<?xml version="1.0" encoding="utf-8"?>
<!-- Generator: Adobe Illustrator 24.0.0, SVG Export Plug-In . SVG Version: 6.00 Build 0)  -->
<svg version="1.1" id="Layer_1" xmlns="http://www.w3.org/2000/svg" xmlns:xlink="http://www.w3.org/1999/xlink" x="0px" y="0px"
	 viewBox="0 0 1200 950" style="enable-background:new 0 0 1200 950;" xml:space="preserve">
<style type="text/css">
	.st0{fill:#4A47EA;}
	.st1{opacity:0.44;fill:url(#SVGID_1_);enable-background:new    ;}
	.st2{fill:none;stroke:#FFFFFF;stroke-width:2.7411;stroke-miterlimit:10;}
	.st3{fill:#FFFFFF;}
	.st4{fill:none;}
	.st5{fill:#00F9DA;}
	.st6{fill:#FAE8EF;}
	.st7{fill:none;stroke:#FFFFFF;stroke-width:3.6548;stroke-linecap:round;stroke-linejoin:round;}
	.st8{fill:none;stroke:#4A47EA;stroke-width:3.6548;stroke-miterlimit:10;}
	.st9{fill:none;stroke:#FFFFFF;stroke-width:1.8274;stroke-linecap:round;stroke-linejoin:round;}
	.st10{fill:none;stroke:#FFFFFF;stroke-width:1.8274;stroke-miterlimit:10;}
</style>
<title>wiri-va-con-vos</title>
<g id="Layer_2_1_">
	<path class="st0" d="M501.4,912.3c-57.1,36.2-177.5,31.6-251.4,16S119.8,865.4,125.1,785c5.5-83,91.9-173.9,80.6-242
		c-7-42.3-27.4-78.7-43.7-118.7s-29.5-84.5-14.7-125c19.4-53.5,54.6-91.9,109.7-115.9c82-35.7,146.1,14.9,271.1-98.1
		c53.9-48.7,111.7-67.2,170.2-71.2s118.5,36.3,149.2,82.7c47.1,71.4-23.1,150.8,32.9,216.4c32.4,37.9,122.8,68,173.1,80.6
		c50.3,12.6,78.7,33.1,96.3,78.6c16.6,42.8,0.4,71.7-28.6,108.4s-66.8,70.9-69.1,140.1c-1.3,40.1-3.1,81.6-20.6,118.2
		c-19.7,41.1-68.4,65-116.5,70.1c-48.1,5.1-96.4-5.2-143.6-15.5c-47.1-10.3-95.5-20.6-143.6-15.4c-42.4,4.6-82.2,21-123.4,31.4
		c-41.2,10.4-87.5,14.2-124.7-5.2"/>
	
		<radialGradient id="SVGID_1_" cx="584.5311" cy="493.437" r="309.0135" gradientTransform="matrix(1 0 0 -1 0 950)" gradientUnits="userSpaceOnUse">
		<stop  offset="0" style="stop-color:#00F9DA;stop-opacity:0"/>
		<stop  offset="1" style="stop-color:#FFFFFF;stop-opacity:0.6"/>
	</radialGradient>
	<circle class="st1" cx="584.5" cy="456.6" r="309"/>
	<path class="st0" d="M50.1,526.7c-9.5,12.8-11.8,29.6-6,44.4c4.6,11.5,13.7,20.5,20.4,30.9c13,20.4,16.9,45.3,10.6,68.6
		c-1.6,5.7-3.8,11.3-4.2,17.3s1.3,12.4,6.1,15.9c6.2,4.5,14.9,2.4,21.9-0.9c20.1-9.6,35-28.1,44.4-48.3s14.1-42.3,18.3-64.2
		c3.1-16.1,6.1-33,1.6-48.8c-4.6-15.7-16.2-28.5-31.4-34.8C108.7,497.5,65.8,506,50.1,526.7z"/>
	<circle class="st2" cx="356.9" cy="489.8" r="14.1"/>
	<circle class="st2" cx="335.5" cy="621.3" r="11.6"/>
	<circle class="st2" cx="1034.1" cy="530" r="21.9"/>
	<circle class="st2" cx="485.3" cy="844.1" r="13"/>
	<circle class="st2" cx="911.5" cy="514.9" r="8.6"/>
	<path class="st3" d="M663.4,229.9c-11.6,2.3-22,11.7-24.9,23.1c-0.8-5.9-3.5-11.5-7.6-15.9c-4.1-4.3-9.4-7.3-15.2-8.4
		c11.4-3.7,19.9-13.3,22.4-25c0.8,6.8,4.3,12.8,9,17.8C651.7,226.4,656.6,228.8,663.4,229.9z"/>
	<path class="st3" d="M341.4,812.1c-11.6,2.3-22,11.7-24.9,23.1c-0.9-5.9-3.5-11.4-7.6-15.8c-4.1-4.3-9.4-7.3-15.2-8.4
		c11.4-3.7,19.9-13.3,22.4-25c0.8,6.8,4.3,12.8,9,17.8C329.8,808.7,334.7,811,341.4,812.1z"/>
	<path class="st3" d="M746.1,285.1c3,1.5,6.5,1.7,9.6,0.5c2-0.6,3.7-1.9,5-3.5c5.4-7.9-4.8-15.3-12.1-13.9
		C740.7,269.7,739,281.2,746.1,285.1z"/>
	<path class="st3" d="M726.9,385c-2,1.2-2.5,3.8-1.3,5.7c1.2,2,3.8,2.5,5.7,1.3c2-1.2,2.5-3.8,1.3-5.7c-0.2-0.3-0.4-0.6-0.7-0.9
		c-1.7-1.5-4.3-1.4-6.5-1.1"/>
	<path class="st3" d="M821.3,674c-1.9,1.2-2.5,3.8-1.3,5.7c1.2,1.9,3.8,2.5,5.7,1.3c1.9-1.2,2.5-3.8,1.3-5.7
		c-0.2-0.3-0.4-0.6-0.7-0.8c-1.7-1.5-4.3-1.4-6.5-1.1"/>
	<path class="st3" d="M764.5,520.5c-1.2,1.3-2.2,2.8-2.7,4.5c-0.4,1.7,0,3.8,1.5,4.7c1.7,0.9,3.7,0.2,4.7-1.4
		c0.8-1.7,0.6-3.7-0.6-5.1c-1.2-1.4-2.9-2.2-4.8-2.3"/>
	<path class="st3" d="M396.5,816.8c-1.2,1.3-2.2,2.8-2.7,4.5c-0.4,1.7,0,3.8,1.5,4.7c1.7,0.8,3.7,0.2,4.7-1.4
		c0.8-1.7,0.6-3.7-0.6-5.1c-1.2-1.4-2.9-2.2-4.8-2.3"/>
	<path class="st3" d="M893,839.3c-1.2,1.3-2.1,2.8-2.7,4.5c-0.4,1.7,0,3.8,1.5,4.7c1.7,0.8,3.7,0.2,4.7-1.4c0.8-1.7,0.6-3.7-0.6-5.1
		c-1.2-1.4-2.9-2.2-4.8-2.3"/>
	<path class="st3" d="M349.6,699.4c-1.2,1.3-2.2,2.8-2.7,4.5c-0.4,1.7,0,3.8,1.5,4.7c1.7,0.9,3.7,0.2,4.7-1.4
		c0.8-1.7,0.6-3.7-0.6-5.1c-1.2-1.4-2.9-2.2-4.7-2.3"/>
	<path class="st4" d="M837.2,725.2L837.2,725.2z"/>
	<path class="st4" d="M817.1,637.9c0,0,0-0.1,0-0.1l0,0C817.1,637.9,817.1,637.9,817.1,637.9z"/>
	<path class="st4" d="M837.2,725.2L837.2,725.2z"/>
	<path class="st4" d="M817.2,637.8L817.2,637.8z"/>
	<path class="st4" d="M856,691.3v0.2v0.1c0.4-0.1,0.7-0.1,1.1-0.1h-0.6C856.3,691.5,856.1,691.4,856,691.3z"/>
	<path class="st4" d="M819.7,720.9l-0.5,0.5h0.9C819.9,721.2,819.8,721.1,819.7,720.9z"/>
	<path class="st4" d="M821.9,714c0,0.4,0,0.8-0.1,1.2l1.1-1C822.5,714.3,822.2,714.2,821.9,714z"/>
	<path class="st5" d="M985.4,621.3c-0.1-0.8-0.2-1.5-0.4-2.3c-0.2-0.7-0.4-1.3-0.6-2c-0.3-0.9-0.6-1.8-1-2.6
		c-0.4-0.8-0.8-1.5-1.4-2.2c-0.5-0.5-1-1-1.6-1.4c-0.6-0.4-1.3-0.7-2-1c-0.7-0.3-1.4-0.5-2.1-0.7c-0.7-0.2-1.5-0.3-2.2-0.4
		c-0.7-0.1-1.4-0.2-2-0.2c-0.5,0-1,0-1.6,0H970c-0.7,0-1.3,0-2,0.1c-1.5,0.1-3,0.2-4.5,0.4c-0.7,0.1-1.4,0.2-2.1,0.3
		s-1.4,0.3-2.1,0.4l-1.3,0.3c-0.3,0.1-0.6,0.1-0.8,0.2l-2.2,0.7c-0.3,0.1-0.6,0.2-0.9,0.4l-1.2,0.5c-0.8,0.3-1.5,0.7-2.3,1.1
		c-0.8,0.4-1.3,0.7-2,1s-1.2,0.6-1.8,1c-1.2,0.6-2.4,1.3-3.5,2c-1.2,0.7-2.5,1.5-3.8,2.3l-7.1,4.8c-1.3,0.9-2.6,1.8-3.9,2.7
		c-1.1,0.8-2.2,1.6-3.3,2.4c-1.3,1-2.6,1.9-3.9,3c-0.5,0.4-1,0.8-1.4,1.2c-0.5,0.4-1.1,0.9-1.7,1.4l-2,1.8c-0.5,0.4-0.9,0.9-1.4,1.4
		c-1,1-1.9,2-2.8,3c-2,2.3-4.1,4.6-6.1,6.9c-1.8,2.1-3.5,4.1-5.2,6.2c-1.7,2.1-3.6,4.5-5.5,6.6l-1,1.1c-1.2,0.8-2.4,1.6-3.7,2.5
		c-1.5,1-3,2-4.5,3.1c-3.2,2.2-6.3,4.4-9.5,6.5c-3.4,2.3-6.7,4.5-10.1,6.7c-1.5,1-3,2-4.5,3l-1.9,1.4c0.2-0.4,0.4-0.8,0.6-1.2
		c0.6-1.3,1.2-2.6,1.6-4c0.4-1.3,0.8-2.5,1.2-3.8s0.9-2.6,1.4-3.9c1.8-5.4,4.1-10.6,6.2-15.9c0.3-0.8,0.6-1.6,1-2.5
		c0.3-0.8,0.6-1.6,0.9-2.4c0.7-1.6,1.3-3.2,2-4.8c2.3-5.3,4.7-10.7,7.1-16c1.2-2.7,2.3-5.4,3.4-8.2c0.3-0.7,0.5-1.5,0.8-2.2
		c0.2-0.7,0.4-1.3,0.6-2c0.9-3,1.3-6.1,1.2-9.2c0-1.5-0.1-3.1-0.1-4.6c0-0.6,0-1.3-0.1-1.9c-0.1-0.9-0.2-1.8-0.2-2.6
		c-0.1-0.9-0.2-1.6-0.3-2.4c-0.1-0.8-0.2-1.3-0.3-1.9c-0.3-1.4-0.6-2.9-0.9-4.3c-0.2-0.6-0.3-1.3-0.5-1.9c-0.2-0.6-0.3-1.4-0.5-2
		c-0.4-1.3-0.9-2.6-1.7-3.7c-0.5-0.6-1-1.2-1.5-1.8c-0.9-1.1-1.8-2.2-2.7-3.2c-0.7-0.8-1.5-1.6-2.4-2.2c-0.3-0.3-0.7-0.5-1.1-0.7
		c-0.4-0.2-0.9-0.4-1.4-0.6c-0.9-0.4-1.9-0.6-2.9-0.7h-0.6c-0.6,0-1.3,0.1-1.9,0.1c-1,0.1-2,0.3-2.9,0.6c-1,0.4-1.9,1-2.6,1.8
		c-0.3,0.3-0.7,0.7-1,1.1s-0.4,0.5-0.6,0.7c-0.5,0.6-1,1.3-1.5,1.9c-0.8,1.2-1.7,2.3-2.4,3.6c-0.7,1.1-1.3,2.2-1.8,3.3
		c-0.4,0.9-0.7,1.8-1,2.7c-0.4,1.5-0.8,2.9-1.2,4.4c-0.2,0.6-0.3,1.2-0.5,1.8s-0.4,1.4-0.5,2c-0.1,0.8-0.3,1.7-0.5,2.5
		c-0.1,0.3-0.1,0.6-0.1,0.9l-0.2,1.6c-0.1,0.6-0.1,1.3-0.2,1.9c0,0.6-0.1,1.3-0.1,1.9c-0.1,3.1-0.3,6.2-0.4,9.3
		c-0.1,2.7-0.2,5.4-0.3,8c0,1.5-0.1,2.9,0,4.4c0,1.5,0,3,0.1,4.4s0.1,3,0.2,4.5c0.1,1.5,0.2,3,0.3,4.5c0.2,3,0.3,6,0.4,9
		c0,1.5,0.1,2.9,0.1,4.4c0,1.5,0.1,2.7,0.2,4.2c0,0.7,0.1,1.4,0.1,2.2s0.1,1.3,0.2,2c0.1,1.5,0.3,3,0.4,4.5c0,0.6,0.1,1.3,0.1,1.9
		c0,0.9,0,1.8,0,2.7c0,1.4,0,2.7,0,4.1c0,2.4,0,4.7,0,7.1c0,1.3,0,2.5,0,3.8c0,0.6,0.1,1.3,0.1,1.9c0,0.1,0,0.1,0,0.1l-2.9,2.2
		c-0.1,0.1-0.1,0.1-0.2,0.2c-0.5,0-1,0-1.5,0.1c-0.8,0.1-1.6,0.2-2.4,0.4c-0.3,0.1-0.6,0.3-0.8,0.6c-0.2,0.3-0.2,0.7-0.1,1
		c0.1,0.3,0.3,0.6,0.6,0.8l0.2,0.1c-0.7,0.5-1.3,1-2,1.5c-0.1,0.1-0.2,0.1-0.3,0.2c-1.5,1.2-3,2.3-4.5,3.5c-1.7,1.3-3.4,2.6-5,4
		c-2.9,2.4-5.8,4.8-8.7,7.3l-1.6,1.4c0.1-0.2,0.1-0.5,0-0.7c-0.4-1.5-0.8-2.9-1.2-4.4c-0.1-0.4-0.3-0.9-0.4-1.3
		c0.1-0.8,0.2-1.6,0.3-2.5c0.2-1.4,0.4-2.7,0.7-4.1c0.3-1.3,0.5-2.7,0.7-4.1c0.2-1.4,0.4-2.7,0.6-4c0.3-1.5,0.7-2.9,1-4.3
		c0.7-2.9,1.3-5.7,2-8.6c0.3-1.3,0.6-2.6,0.9-3.9s0.7-2.8,1.1-4.2c0.3-1.4,0.7-2.9,1.1-4.4c0.3-1.5,0.6-2.8,0.9-4.2
		c0.6-2.8,1.1-5.7,1.6-8.5c0.3-1.5,0.6-3,0.8-4.4c0.3-1.5,0.4-3,0.5-4.6c0-1.1-0.1-2.2-0.1-3.4c0-0.6-0.1-1.2-0.1-1.8
		c-0.1-0.9-0.2-1.8-0.3-2.7c-0.1-0.7-0.2-1.5-0.3-2.2c-0.1-0.7-0.2-1.2-0.3-1.8c-0.1-0.9-0.3-1.8-0.4-2.7c-0.1-0.7-0.3-1.3-0.4-2
		c-0.1-0.7-0.2-1.2-0.4-1.8c-0.2-0.8-0.4-1.7-0.6-2.5c-0.1-0.2-0.1-0.5-0.2-0.7c-0.2-0.5-0.3-1-0.5-1.5c-0.2-0.6-0.5-1.3-0.7-1.9
		c-0.5-1.3-1-2.5-1.6-3.8c-0.4-0.8-0.9-1.6-1.5-2.4c-0.6-0.9-1.3-1.6-2.2-2.2c-0.5-0.2-0.9-0.5-1.4-0.7c-0.5-0.2-0.9-0.4-1.4-0.6
		h0.1c-0.7-0.3-1.5-0.6-2.2-0.9c-0.6-0.3-1.3-0.5-2-0.7c-0.6-0.2-1.3-0.3-1.9-0.3c-0.3,0-0.5,0-0.8,0.1c-0.7,0.2-1.4,0.4-2.1,0.8
		c-0.3,0.1-0.6,0.3-0.9,0.5c-0.7,0.4-1.4,0.8-2.1,1.2c-0.7,0.4-1.1,0.7-1.7,1.1c-0.8,0.5-1.6,1.1-2.4,1.6c-0.5,0.4-0.9,0.8-1.3,1.3
		c-0.3,0.3-0.5,0.6-0.8,1c-0.9,1.2-1.6,2.4-2.3,3.8c-0.4,0.8-0.7,1.7-0.9,2.5c-0.1,0.4-0.2,0.8-0.2,1.2c-0.1,0.4-0.1,0.7-0.1,1
		c0,0.3-0.1,0.8-0.2,1.1c-0.1,0.8-0.1,1.5-0.2,2.3c0,0.3,0,0.6,0,0.8v1.6c0,0.7,0,1.3,0.1,1.9c0.1,0.6,0.1,1.2,0.1,1.9
		c0.1,1.6,0.3,3.2,0.4,4.9c0.3,3,0.5,6,0.8,9c0.1,1.4,0.3,2.9,0.5,4.3c0.2,1.4,0.4,3,0.7,4.6c0.2,1.5,0.6,2.9,0.9,4.3
		c0.3,1.4,0.7,2.8,1,4.2c0.3,1.4,0.7,2.8,1.1,4.2c0.4,1.4,0.7,2.8,1,4.2c0.1,0.6,0.3,1.1,0.4,1.6c0.1,0.8,0.3,1.7,0.5,2.5
		c0.3,1.4,0.5,2.7,0.7,4.1c0.2,1.4,0.5,2.7,0.7,4.1c0.2,1,0.4,2,0.6,3c0.1,0.4,0.2,0.8,0.3,1.3c0.4,1.6,0.9,3.2,1.3,4.9
		c0.1,0.5,0.3,1.1,0.5,1.6c0.3,0.9,0.6,1.8,0.9,2.8c0.9,2.7,1.8,5.4,2.7,8.1c0.2,0.5,0.4,0.9,0.6,1.4l0.9,2.2
		c0.2,0.5,0.5,1.1,0.8,1.6c0.4,0.8,0.8,1.7,1.2,2.5c0.1,0.2,0.3,0.4,0.6,0.5c0.1,0.2,0.2,0.3,0.3,0.5c0.2,0.2,0.4,0.3,0.6,0.4
		c-1.1,1.1-2.3,2.2-3.4,3.3c-0.1,0.1-0.3,0.3-0.4,0.4c-2.7,2.6-5.3,5.2-7.9,7.9c-1.5,1.4-2.9,2.9-4.3,4.4c-1.4,1.5-2.7,2.9-4,4.3
		c-0.5,0.6-1,1.2-1.6,1.8c-0.8,0.9-1.6,1.8-2.3,2.7c-1.3,1.4-2.5,2.9-3.7,4.3c-1,1.2-2,2.4-3,3.7c-1-0.5-1.9-1.1-2.7-1.7l0,0
		l-0.3-0.3c-0.1-0.3-0.1-0.7-0.2-1c-0.1-0.3-0.1-0.6-0.1-0.9c0.3-0.9,0.6-1.9,0.9-2.8c0.2-0.7-0.2-1.4-0.9-1.6
		c-0.2-0.1-0.5-0.1-0.8,0c-0.2-1.1-0.5-2.2-0.7-3.3c-0.3-1.4-0.6-2.8-0.8-4.2c-0.1-0.5-0.1-0.9-0.2-1.4l-0.2-1.7
		c-0.1-0.7-0.2-1.4-0.2-2.1s-0.1-1.5-0.2-2.3c0-0.8-0.1-1.7-0.1-2.5c-0.1-1.3,0-2.7,0-4v-4.2c0-2.9,0.1-5.8,0.1-8.7
		c0-0.7,0-1.4,0-2.1s0-1.6-0.1-2.4s-0.1-1.6-0.2-2.4c-0.1-0.8-0.1-1.4-0.2-2.2c-0.1-1.5-0.4-2.9-0.6-4.4s-0.4-2.7-0.6-4.1
		s-0.4-2.9-0.7-4.4c-0.2-1.3-0.5-2.6-0.9-3.9c-0.4-1.3-0.8-2.7-1.2-4.2s-0.8-2.7-1.3-4.1c-0.5-1.3-1-2.7-1.6-4
		c-0.6-1.3-1.1-2.4-1.7-3.5c-0.3-0.6-0.6-1.2-1-1.8c-0.3-0.6-0.6-1.1-1-1.7l-1.3-1.8c-0.4-0.5-0.7-1.1-1.1-1.7
		c-0.7-1.2-1.5-2.4-2.3-3.5l-0.6-0.9c-0.2-0.4-0.5-0.7-0.8-1c-0.5-0.5-0.9-1-1.4-1.5c-0.9-1-2-1.9-3.2-2.6c-1.3-0.7-2.6-1.3-4.1-1.6
		c-0.7-0.2-1.3-0.3-2-0.4c-0.5-0.1-1.1-0.1-1.7-0.2h-0.6c-0.5,0-0.9,0.1-1.4,0.2s-0.9,0.2-1.3,0.3c-0.4,0.1-0.9,0.3-1.3,0.5
		c-0.2,0.1-0.5,0.3-0.7,0.4c-0.6,0.5-1.2,1-1.6,1.6c-0.5,0.6-1,1.3-1.4,2c-0.4,0.6-0.7,1.2-1.1,1.7c-0.8,1.3-1.5,2.6-2.2,3.9
		c-0.3,0.5-0.5,1.1-0.8,1.7c-0.3,0.7-0.7,1.5-0.9,2.2c-0.5,1.3-1.1,2.6-1.5,4c-0.3,0.8-0.5,1.6-0.8,2.5c-0.2,0.7-0.4,1.4-0.6,2.1
		c-0.3,1.1-0.4,2.2-0.6,3.3c-0.2,1.4-0.3,2.9-0.3,4.3c0,0.7,0,1.4,0,2.1c0,0.7,0,1.5,0.1,2.2s0.1,1.5,0.1,2.2
		c0.1,1.1,0.2,2.1,0.4,3.2c0.3,1.3,0.6,2.6,1,3.8c0.2,0.6,0.4,1.3,0.6,1.9c0.2,0.6,0.4,1.3,0.7,2l0.9,2.3c0.3,0.8,0.7,1.6,1.1,2.4
		c0.5,1.2,1.1,2.4,1.7,3.5c0.3,0.6,0.7,1.3,1.1,1.9c0.4,0.8,0.9,1.5,1.3,2.3c0.3,0.6,0.7,1.1,1.1,1.7c0.4,0.5,0.7,1,1,1.6l0.8,1.2
		c0.2,0.2,0.3,0.5,0.5,0.7l1.5,2c0.8,1.1,1.7,2.1,2.6,3.1c1.1,1.2,2.1,2.4,3.2,3.7c0.8,0.9,1.6,1.9,2.5,2.8l1.8,2
		c0.4,0.5,0.9,0.9,1.4,1.4c2,2,4.2,3.8,6.3,5.7c0.5,0.4,1,0.9,1.5,1.3l1.9,1.8c0.5,0.5,1,1.1,1.5,1.6s0.8,0.9,1.2,1.3
		c2,2.2,4,4.4,6,6.7c0.5,0.5,0.9,1,1.4,1.5c0.1,0.2,0.2,0.3,0.3,0.4l0.3,0.4c0.2,0.2,0.3,0.3,0.5,0.4c0.1,0.1,0.2,0.1,0.3,0.1
		c0.2,0.2,0.4,0.4,0.7,0.6c0,0.1,0,0.2,0,0.2c0.1,0.4,0.2,0.7,0.2,1.1c0,0.2,0.1,0.4,0.1,0.6c0.1,0.4,0.2,0.8,0.4,1.2
		c0.4,0.6,1.2,0.8,1.8,0.5c0.4-0.2,0.6-0.7,0.6-1.2c0.2,0.1,0.3,0.2,0.5,0.3l-2.4,2.9c-1.3,1.5-2.5,3-3.8,4.6
		c-1.3,1.5-2.6,3-3.9,4.6l-2.3,2.8c-0.5,0.6-1,1.2-1.4,1.8c-1.2,1.5-2.5,3.1-3.7,4.7l-7.5,9.5c-2.5,3.1-4.9,6.3-7.3,9.5l-0.2,0.2
		c-0.1,0.1-0.1,0.2-0.2,0.2l-0.1,0.2l0,0l-1,1.3c-0.3,0.4-0.6,0.7-0.8,1.1l0,0l0,0.1l0,0c-0.1,0.1-0.1,0.1-0.2,0.2
		c-0.1,0.1-0.2,0.2-0.3,0.3c-0.1,0.1-0.1,0.1-0.2,0.2l0,0l-0.1,0.1l0,0c-0.5,0.7-1.1,1.4-1.6,2.2s-1,1.3-1.5,2
		c-1.2,1.6-2.3,3.2-3.5,4.8c-2.3,3.3-4.6,6.6-6.8,9.9c-0.5,0.8-1.1,1.6-1.6,2.5s-1.1,1.7-1.6,2.5c-0.4,0.6-0.2,1.4,0.4,1.8
		c0,0,0,0,0,0c0.6,0.4,1.4,0.2,1.8-0.5c0,0,0,0,0,0l1.7-2.7c0.5-0.9,1.1-1.7,1.7-2.6c1-1.5,2-3,3-4.5l3.7-5.4
		c1.1-1.6,2.2-3.2,3.4-4.7c0.5-0.6,1-1.3,1.4-1.9l1.5-2l0.1-0.1c0.1-0.1,0.1-0.2,0.2-0.2l0.1-0.2l0,0l0,0l0,0l0,0l0.9-1.2l0.8-1.1
		l0,0v-0.1c0.1-0.1,0.1-0.1,0.2-0.2c0.1-0.1,0.2-0.2,0.3-0.3c0.1-0.1,0.1-0.2,0.2-0.2l0,0l0.1-0.1c1.9-2.5,3.9-5.1,5.8-7.6
		c2.3-2.9,4.6-5.9,6.9-8.8c1.2-1.5,2.4-3.1,3.7-4.6s2.4-3.1,3.7-4.6c1.3-1.5,2.6-3,3.9-4.6c1.3-1.5,2.6-3,3.9-4.6
		c1.8-2.2,3.7-4.4,5.4-6.6l1.5-1.8c0.2,0.3,0.4,0.5,0.6,0.7c0.2,0.2,0.5,0.4,0.7,0.5c0.3,0.2,0.4,0.3,0.7,0.4c0.4,0.3,0.7,0.6,1,1
		c0.3,0.5,0.6,0.9,0.9,1.4c0.3,0.5,0.7,1,1.1,1.5c0.4,0.5,0.7,1.1,1.1,1.6c0.3,0.5,0.8,1.2,1.2,1.7c0.9,1.2,1.9,2.4,2.9,3.5
		c0.9,1.1,1.9,2,2.9,3c1,1,1.8,2,2.7,3c1.1,1.1,2.1,2.3,3.2,3.5c1.5,1.7,3,3.3,4.7,4.7c1.5,1.1,3.1,2.1,4.7,3
		c2.7,1.4,5.6,2.6,8.5,3.8c0.5,0.2,1,0.4,1.5,0.6l2.6,0.9c0.6,0.2,1.3,0.3,1.8,0.5c0.6,0.2,1.2,0.3,1.8,0.4c3.1,0.6,6.1,1.3,9.1,2
		c1.4,0.3,2.9,0.7,4.3,1c3.2,0.7,6.3,1.6,9.6,1.6c1.7,0,3.5-0.2,5.2-0.4c2.8-0.3,5.8-0.6,8.4-1.7c0.8-0.4,1.6-0.8,2.3-1.5
		c0.3-0.3,0.6-0.7,0.9-1.1c0.2-0.3,0.4-0.6,0.5-1c0.2-0.4,0.3-0.8,0.5-1.3c0.2-0.5,0.4-1.1,0.4-1.6c0.2-1.5,0.1-3-0.1-4.5
		c-0.1-1.5-0.6-2.9-1.3-4.2c-0.5-0.7-1-1.4-1.5-2.1c-0.4-0.5-0.9-1.1-1.4-1.6c-0.4-0.5-1.1-1.1-1.6-1.7c-2-2.1-4.4-3.8-7-5.2
		c-0.6-0.3-1.2-0.7-1.8-1l-2.5-1.1c-1.2-0.5-2.3-1-3.5-1.6c-1.4-0.6-2.9-1.3-4.3-1.8c-0.6-0.3-1.3-0.5-2-0.8l-2.5-0.8
		c-1.4-0.4-2.7-0.8-4.1-1.1c-1.4-0.4-2.6-0.6-3.8-1c-1.3-0.3-2.7-0.7-4.1-1.2c-1.3-0.4-2.9-0.9-4.3-1.5c-0.7-0.2-1.3-0.5-2-0.7
		l-2.4-0.7c-0.5-0.2-1.1-0.3-1.6-0.5l-2.7-0.6c-0.9-0.2-1.8-0.4-2.7-0.5c-2.1-0.4-4.2-0.6-6.3-0.7c-0.7,0-1.4-0.1-2.1-0.1
		c-1.2,0-2.4,0-3.6,0.1c-0.5,0-1.1,0-1.6,0.1l-2.8,0.1l-4,0.2c-1.5,0.1-3,0.1-4.4,0.1c-0.7,0-1.3,0.6-1.3,1.3l-0.2-0.1l0,0l-0.2-0.3
		c-0.1-0.2-0.3-0.4-0.5-0.5c2.3-2.8,4.7-5.5,7-8.2c2.5-2.9,5.2-5.7,7.9-8.4c1.2-1.2,2.5-2.4,3.7-3.7c1.5-1.5,3-3,4.6-4.6l0.1-0.1
		c0.1,0.6,0.7,1,1.3,1c2.1-0.1,4.3-0.2,6.4-0.2c0.6,0.3,1.2,0.6,1.8,0.8c0.8,0.3,1.6,0.6,2.4,0.9c0.8,0.3,1.6,0.6,2.3,0.9
		s1.6,0.8,2.3,1.2c0.7,0.4,1.3,0.8,1.9,1.3c0.5,0.4,1,0.8,1.5,1.3c0.5,0.4,1.2,1,1.8,1.5c1.2,0.9,2.3,1.7,3.5,2.5
		c1.2,0.8,2.4,1.6,3.7,2.3c1.3,0.7,2.3,1.5,3.5,2.1c1.2,0.7,2.5,1.4,3.8,2.1c1.3,0.7,2.4,1.2,3.6,1.9c1.2,0.7,2.5,1.5,3.8,2.2
		c1.3,0.7,2.5,1.3,3.7,1.8c1.9,0.8,3.9,1.6,5.9,2.4c0.5,0.3,1.1,0.5,1.6,0.8l1.6,0.9c0.6,0.3,1.2,0.7,1.9,0.9
		c0.6,0.2,1.2,0.5,1.8,0.7c2.4,0.8,4.7,1.7,7.1,2.5l0.8,0.3c0.3,0.1,0.6,0.3,0.9,0.5c0.6,0.3,1.3,0.6,1.8,1c1.4,0.7,2.8,1.2,4.3,1.6
		c1.4,0.4,2.7,0.8,4.1,1.1c0.9,0.2,1.8,0.4,2.7,0.5c0.8,0.1,1.6,0.1,2.4,0c0.9-0.1,1.7-0.2,2.6-0.4s1.6-0.3,2.4-0.4
		c0.8-0.2,1.6-0.5,2.3-0.9c0.3-0.2,0.6-0.3,0.8-0.5c1.1-0.7,2-1.6,2.7-2.7c0.2-0.4,0.3-0.9,0.4-1.3c0.1-0.4,0.2-0.8,0.2-1.3
		c0.1-1.4,0.1-2.9-0.2-4.3c-0.1-0.7-0.3-1.4-0.5-2.1c-0.3-0.7-0.6-1.4-1-2.1c-0.7-1.2-1.4-2.2-2.3-3.2c-0.4-0.5-0.8-0.9-1.3-1.4
		c-0.5-0.5-0.9-0.9-1.4-1.3c-1.1-0.9-2.2-1.7-3.4-2.6c-0.5-0.4-1-0.7-1.6-1c-0.6-0.4-1.3-0.7-1.9-1h-0.1l0,0h0
		c-1.3-0.5-2.6-1.1-3.9-1.6s-2.7-1-4.1-1.4c-0.7-0.2-1.4-0.4-2.1-0.6c-0.3-0.1-0.7-0.1-1-0.2c-0.3-0.1-0.6-0.2-0.9-0.2
		c-1.4-0.3-2.8-0.5-4.3-0.8c-2.9-0.6-5.9-1.2-8.8-1.8c-1.4-0.3-2.7-0.7-4.1-1l-2.1-0.5c-0.7-0.2-1.4-0.3-2.1-0.5
		c-1.3-0.3-2.7-0.5-4.1-0.7l-4.7-0.7c-1.3-0.2-2.6-0.4-3.9-0.6c-1.6-0.3-3.2-0.5-4.8-0.7c-1.4-0.2-2.7-0.3-4.1-0.5
		c-1.4-0.1-2.9-0.3-4.4-0.4c-0.8,0-1.6-0.1-2.4-0.1c-0.8,0-1.6,0-2.4,0c-1.3,0-2.6,0-3.9,0.1l-5.5,0.2c-0.2-0.1-0.4-0.2-0.5-0.4
		c-0.3-0.3-0.7-0.6-1-0.9c-0.2-0.2-0.4-0.4-0.6-0.5c-0.3-0.2-0.6-0.3-0.9-0.4c-0.3-0.1-0.7-0.2-1-0.1l0,0c1.3-1.2,2.6-2.4,3.9-3.7
		c5.3-4.8,10.9-9.4,16.5-13.7l3-2.3l4.8-3.5c0.3-0.2,0.5-0.4,0.8-0.6c1.2,0,2.4,0,3.7,0.1c0.5,0.1,1.1,0.2,1.6,0.4l0.6,0.2
		c0.8,0.4,1.5,0.8,2.3,1.2l1.2,0.6c0.5,0.3,1,0.5,1.6,0.7c0.9,0.3,1.8,0.6,2.7,0.8c0.9,0.2,1.8,0.4,2.6,0.8l0.2,0.1l0,0l0.3,0.1
		c0.7,0.3,1.5,0.7,2.1,1.2c0.5,0.4,0.9,0.9,1.4,1.3c0.3,0.3,0.6,0.5,0.9,0.7c0.2,0.1,0.4,0.2,0.6,0.3c0.2,0.1,0.6,0.3,0.9,0.4
		c1.3,0.5,2.5,1.1,3.8,1.7c1.2,0.6,2.4,1.3,3.5,2.1c0.9,0.7,1.9,1.3,2.8,1.9c1.3,0.8,2.7,1.3,4.2,1.9c1.4,0.6,2.7,1.3,4,2
		c0.6,0.3,1.3,0.7,1.9,1s1.1,0.7,1.7,1c0.6,0.3,1.3,0.7,2,1c0.7,0.3,1.2,0.6,1.8,0.8l4.2,1.8c0.6,0.3,1.3,0.6,1.9,0.9
		c0.6,0.3,1.3,0.6,2,0.9l0,0c0.1,0,0.2,0.1,0.2,0.1h0.1c0.3,0.1,0.6,0.2,0.9,0.3l1,0.4c1.3,0.4,2.6,0.8,3.9,1.2s2.8,0.8,4.2,1.2
		c0.7,0.2,1.5,0.5,2.2,0.8l1.9,0.7c1.3,0.5,2.6,1,3.9,1.4c0.6,0.2,1.3,0.4,1.9,0.6l2.1,0.5c2.9,0.6,5.9,0.7,8.8,0.1
		c0.7-0.1,1.4-0.3,2-0.5c0.7-0.3,1.5-0.6,2.2-1c0.7-0.3,1.2-0.6,1.8-0.9s1.3-0.7,1.9-1.1l0.9-0.5c0.3-0.2,0.5-0.3,0.8-0.5
		c0.2-0.1,0.4-0.3,0.5-0.5c0.2-0.2,0.5-0.5,0.6-0.8c0.5-0.6,0.8-1.3,1-2.1c0.1-0.6,0.2-1.2,0.2-1.7c0.1-1.4,0.1-2.7,0.1-4.2
		c0-0.8-0.1-1.6-0.2-2.4c-0.1-0.4-0.1-0.7-0.2-1c-0.2-0.9-0.6-1.7-1.1-2.5c-1.1-1.5-2.4-2.9-3.8-4.1c-1.1-1-2.3-1.9-3.6-2.7
		c-0.3-0.2-0.6-0.4-0.9-0.6s-0.5-0.3-0.8-0.5c-0.6-0.4-1.2-0.7-1.8-1.1c-1.3-0.7-2.6-1.4-3.9-2.1s-2.8-1.3-4.2-1.9
		c-1.4-0.6-2.5-1.1-3.9-1.6l-1.4-0.5c-0.3-0.1-0.5-0.2-0.8-0.3l-2.4-0.8c-0.6-0.2-1.3-0.3-1.9-0.5c-0.6-0.2-1.2-0.3-1.8-0.4
		c-0.6-0.1-1.4-0.3-2.1-0.4l-2.6-0.4c-2.9-0.4-5.8-0.7-8.7-0.9c-2.9-0.2-6-0.3-9-0.5c-2.4-0.1-4.9-0.3-7.3-0.3h-0.8
		c-2.9,0.1-5.8,0.2-8.7,0.5c-2.6,0.3-5.2,0.6-7.9,0.8c-0.9-0.1-1.8-0.3-2.6-0.4c-1.7-0.2-3.3-0.5-5-0.7l-2.9-0.4
		c-0.4,0-0.7-0.1-1.1-0.1c1.6-1.2,3.3-2.4,5-3.5c6.4-4.3,12.8-8.5,19.1-12.9c0.5,0.3,1.2,0.2,1.6-0.2l0.2-0.2c0.5-0.3,1-0.6,1.6-0.8
		c0.6-0.2,1.1-0.4,1.7-0.6c0.6-0.2,1.2-0.4,1.8-0.5c0.6-0.2,1.3-0.3,1.9-0.4s1.3-0.3,2-0.4c2-0.2,4-0.3,5.9-0.5
		c1.1-0.1,2.1-0.2,3.2-0.4s2.2-0.3,3.3-0.5c2.8-0.3,5.6-0.5,8.4-1.1c1.3-0.2,2.6-0.6,3.9-0.9c1.3-0.4,2.7-0.8,4.2-1.3
		c2.7-1,5.3-2,7.9-3.1s5.2-2.2,7.8-3.2c1.3-0.5,2.7-1.1,4-1.5c1.4-0.5,2.9-1,4.3-1.5c1.4-0.5,2.6-1,3.9-1.5s2.7-1,4.1-1.5
		c1.3-0.5,2.7-1.1,4.1-1.8c1.2-0.6,2.4-1.2,3.6-1.8c2.6-1.4,5.3-2.7,7.8-4.3c2.6-1.6,5-3.4,7.3-5.4c0.6-0.5,1.1-1,1.6-1.5
		c0.5-0.5,0.9-0.8,1.3-1.3c1.4-1.4,2.6-3,3.5-4.7c0.4-0.9,0.8-1.7,1.1-2.6c0.1-0.4,0.2-0.9,0.3-1.3c0.1-0.4,0.1-0.7,0.2-1.1
		c0.2-1,0.3-2,0.3-3C985.6,623.1,985.6,622.2,985.4,621.3z M837.2,725.2L837.2,725.2z M837.2,725.2L837.2,725.2z M817.2,637.8
		L817.2,637.8z M817.2,637.9c0,0,0-0.1,0-0.1l0,0C817.2,637.9,817.1,637.9,817.2,637.9L817.2,637.9z M819.2,721.4l0.5-0.5
		c0.1,0.2,0.2,0.4,0.4,0.5L819.2,721.4z M821.9,715.2c0-0.4,0.1-0.8,0.1-1.2c0.3,0.2,0.7,0.3,1,0.2L821.9,715.2z M856.1,691.6v-0.1
		v-0.2c0.2,0.1,0.4,0.2,0.6,0.2h0.6C856.7,691.5,856.4,691.6,856.1,691.6L856.1,691.6z"/>
	<path class="st5" d="M924.6,274c-7.8,0-15.6,0.9-23.2,2.7c-4.5,1.1-9,2.6-13.3,4.3c-0.2-0.2-0.5-0.3-0.8-0.2c-0.1,0-0.2,0-0.3,0
		c-0.1,0-0.2,0-0.2,0.1l-0.1,0l-1.8,0.4h-0.1l-0.5,0.1l-0.4,0.1c-18.4,5-35.8,13.2-51.3,24.3c-7.9,5.6-15.3,11.8-22.2,18.6
		c-20.6,20.5-36.3,45.4-45.7,72.9c-2.9,8.5-5.2,17.3-6.7,26.2v0.1c-0.3,1.8-0.6,3.8-0.9,5.9c-0.1,0.5-0.1,1-0.2,1.5
		c0,0.2,0,0.3-0.1,0.4l-0.1,0.4v0.1v0.1v0.1c0,0.3-0.1,0.7-0.1,1l-0.1,1.2l-0.1,1v0.1c0,0.5-0.1,1-0.1,1.5c0,0.7,0.5,1.3,1.2,1.3
		c0.5,0.6,1.2,1,2,0.9c0.6,0,1.1-0.3,1.3-0.8c0,0,0.1,0,0.1,0c0.1,0,0.2,0,0.4-0.1c0.3-0.1,0.6-0.3,0.8-0.6c0.8-1.8,1.8-3.6,3-5.2
		c1.3-1.6,2.7-3,4.3-4.2c2.1-1.5,4.3-2.8,6.7-3.8h0.1c4-1.6,8.1-2.7,12.4-3.2c3.6-0.5,7.3-0.7,11-0.7c5.4,0,10.9,0.5,16.3,1.2
		l-0.1-0.1c8.7,1.3,17.2,3.1,25.7,5.5c8.1,2.3,16.3,5,25,8.4c2.6,1,5.4,2.1,8.2,3.3l-0.1-0.1c4.4,1.9,8.4,3.7,12,5.4
		c2.4,1.1,5,2.4,7.6,3.7l0.5,0.3l0.3,0.1l0.3,0.1l0.2,0.1l0.2,0.1l1.3,0.7l0.3,0.2l0.3,0.2l0.4,0.2l1.1,0.5c0.2,0.1,0.4,0.2,0.7,0.2
		h0.2l0.3,0.2l0.3,0.2l0.1,0.1l0.1,0.1l0.1,0.1l0.1,0.1l0.1,0.1l0.3,0.2l0.2,0.1l0.1,0.1l0.3,0.2l0.4,0.2c1.3,0.8,2.6,1.6,4,2.3
		l0.2,0.1l0.1,0.1c0.5,0.3,1,0.5,1.5,0.8c3.9,2,7.9,3.8,12,5.4h0.1c9.1,3.4,18.6,5.4,28.3,6h0.3c1.7,0.1,3.4,0.1,5,0.1
		c2.9,0,5.9-0.1,8.8-0.4l0.7-0.1h0.2h0.2h0.1h0.1h0.3h0.2h0.2l2.5-0.3c0.3-0.1,0.6-0.3,0.7-0.5h0.1c4.5-1,8.9-2.4,13.2-4.1l0.5-0.2
		h0.1c3.5-1.4,7-3.1,10.3-4.9c3.4-1.9,6.6-4,9.7-6.4c3.1-2.4,6.1-5,8.9-7.8c2.8-2.9,5.4-5.9,7.7-9.1c4.8-6.6,8.6-13.9,11.3-21.6
		c2.6-7.6,4.1-15.6,4.4-23.6c0.3-7.1-0.3-14.1-1.7-21.1c-1.3-6.6-3.3-13-6-19.1c-0.3-0.8-0.7-1.5-1-2.2c-0.1-0.3-0.4-0.5-0.6-0.6
		c-2.5-7.2-5.7-14.1-9.8-20.5c-4.5-7.1-9.7-13.7-15.8-19.5c-12.7-12.3-28.1-21.4-45-26.4c-9.6-2.9-19.5-4.3-29.5-4.3L924.6,274z"/>
	<path class="st0" d="M771.3,689c0,1.5,0.1,3,0,4.5l0,0v0.3c0,0.3,0,0.6,0,0.9v0.1c0,0,0,0.1,0,0.1v0.1v1.1
		c-0.1,3.1-0.3,6.1-0.6,9.2c-0.2,2-0.5,4-0.7,6c0,0,0,0,0,0.1c0,0.2,0,0.3-0.1,0.4c0,0,0,0,0,0.1c0,0.1,0,0.3-0.1,0.5
		c0,0.2,0,0.1,0,0.1l-0.1,0.4v0.1c0,0.1,0,0.3-0.1,0.4c0,0,0,0.1,0,0.1c0,0.1,0,0.2-0.1,0.4c0,0,0,0.1,0,0.1l-0.1,0.5l0,0
		c0,0.1-0.1,0.3-0.1,0.4c0,0,0,0.1,0,0.1l-0.1,0.4l0,0c0,0.2-0.1,0.3-0.1,0.5c0,0.2,0,0.1,0,0.1c0,0-0.1,0.3-0.1,0.5l0,0
		c0,0.2-0.1,0.3-0.1,0.5l0,0c0,0.1-0.1,0.3-0.1,0.4v0.1c0,0.2-0.1,0.3-0.1,0.5l0,0c0,0.1-0.1,0.3-0.1,0.4v0.1c0,0.1,0,0.2-0.1,0.3
		s0,0.2-0.1,0.3l-0.1,0.3c0,0.1,0,0.2-0.1,0.3v0.1c-0.2,1-0.5,2.1-0.7,3.1c0,0,0,0,0,0.1c0,0,0,0,0,0.1c-0.2,1-0.5,2-0.8,3
		c-0.2,0.7-0.4,1.5-0.6,2.2c0,0,0,0.1,0,0.1l-0.3,1c-0.4,1.3-0.8,2.5-1.2,3.7l0,0c-0.1,0.2-0.1,0.4-0.2,0.7l-0.1,0.1
		c-0.3,0.9-0.6,1.7-0.9,2.6c0,0,0,0.1,0,0.1l-0.1,0.1c0,0,0,0.1,0,0.1l-0.1,0.2l0,0c0,0-0.1,0.3-0.2,0.4c0,0.1-0.1,0.2-0.2,0.3
		c0.1-0.4,0.2-0.8,0.3-1.2l0,0l0.6-2.7c0.1-0.7-0.3-1.4-1-1.6h-0.3h-0.2c0,0,0,0,0-0.1c0.8-2.5,1.6-5,2.3-7.6c0-0.1,0-0.2,0.1-0.2
		l0,0c0.3-1.3,0.6-2.6,0.9-3.8c0.8-3.7,1.5-7.5,2-11.2l0,0c0-0.1,0-0.2,0-0.3c0.2-1.7,0.4-3.4,0.6-5.1c0-0.3,0.1-0.6,0.1-1l0,0v-0.2
		c0.5-5.5,0.5-11,0.3-16.4v-0.1c0-0.1,0-0.2,0-0.3c0-0.1,0-0.2,0-0.3c0,0,0-0.1,0-0.1v-0.4l0,0v-0.4l0,0c-0.1-1.3-0.2-2.7-0.3-4l0,0
		c0-0.1,0-0.3,0-0.4l0,0c0-0.1,0-0.3,0-0.4c0,0,0-0.1,0-0.1c0-0.1,0-0.3,0.1-0.4l0.1,0.1c0.2,0.2,0.6,0.4,0.9,0.3
		c0.3,0,0.7-0.2,0.9-0.4c0.1-0.1,0.2-0.3,0.2-0.4c0.2,0.2,0.3,0.5,0.4,0.8c0,0.1,0,0.1,0,0.2c0,0.1,0,0.2,0,0.3
		c0.3,2.8,0.5,5.6,0.6,8.4c0,0,0,0.1,0,0.1v0.3c0,0.1,0,0.2,0,0.2L771.3,689z"/>
	<path class="st0" d="M770.4,677.9c0,0.2,0,0.4-0.1,0.5c-0.2-0.3-0.6-0.4-1-0.4h-0.1c-0.5,0-1,0.4-1.2,0.8c-0.2-0.2-0.3-0.5-0.4-0.8
		c0-0.1,0-0.2,0-0.2s0-0.1,0-0.1c0,0,0-0.2,0-0.3c0,0,0,0,0-0.1c0-0.1,0-0.1,0-0.2l0,0l-0.1-0.3l0,0c0-0.2-0.1-0.3-0.1-0.5
		c-0.1-0.8-0.3-1.6-0.4-2.4c0,0,0-0.1,0-0.1c-0.1-0.3-0.1-0.6-0.2-0.9l0,0c-0.3-1.6-0.6-3.2-0.9-4.8c0,0,0-0.1,0-0.1
		c0-0.1,0-0.2,0-0.3c-1.7-9.1-3.6-18.3-5.6-27.4c-4-17.5-8.5-34.9-13.4-52.1c-4.1-14-8.5-27.9-13.5-41.6c0.6,0.4,1.4,0.3,1.8-0.3
		c0.3-0.4,0.3-0.8,0.2-1.2c-0.1-0.3-0.2-0.6-0.3-0.8l-0.1-0.4c0,0,0-0.1,0-0.1c0-0.1,0-0.2-0.1-0.3c0,0,0,0,0-0.1l-0.5-1.6
		c3.6,9.4,6.8,19,9.9,28.6c5.3,17,10.1,34.3,14.3,51.6c4.1,16.8,7.6,33.6,10.7,50.6v0.2c0.2,0.9,0.3,1.8,0.5,2.7c0,0,0,0,0,0.1
		c0.1,0.4,0.1,0.9,0.2,1.3c0,0,0,0,0,0l0,0v0.1c0,0,0,0,0,0l0,0L770.4,677.9z"/>
	<path class="st0" d="M770.3,678.4c-0.1,0.1-0.1,0.3-0.2,0.4c-0.2,0.3-0.6,0.4-0.9,0.4c-0.3,0-0.7-0.1-0.9-0.3l-0.1-0.1
		c0.2-0.5,0.7-0.8,1.2-0.8h0.1C769.7,678,770,678.2,770.3,678.4z"/>
	<path class="st6" d="M707.5,470.5c1.7,3.4,3,7,3.8,10.7c-0.1,0.3-0.1,0.6,0,0.8c6.1,15.9,11.7,32,16.8,48.2c0.7,2.1,1.4,4.2,2,6.4
		c-0.2,0.3-0.2,0.7-0.1,1c0.6,1.6,1.2,3.3,1.9,4.9l0,0c0,0.1,0.1,0.3,0.1,0.4v0.1c0,0.1,0.1,0.3,0.1,0.4c0.3,0.8,0.5,1.7,0.8,2.5
		c0.1,0.3,0.3,0.5,0.5,0.7c5,13.7,9.5,27.6,13.5,41.6c5,17.2,9.4,34.6,13.3,52.2c2,9.1,3.9,18.2,5.6,27.4c0,0.1,0,0.2,0,0.3
		c0,0,0,0.1,0,0.1c0.3,1.6,0.6,3.2,0.9,4.8l0,0c0.1,0.3,0.1,0.6,0.2,0.9c0,0,0,0.1,0,0.1c0.1,0.8,0.3,1.6,0.4,2.4
		c0,0.2,0,0.3,0.1,0.5l0,0l0.1,0.3l0,0c0,0.1,0,0.1,0,0.2c0,0,0,0,0,0.1c0,0.1,0,0.2,0,0.3c0,0.1,0,0.1,0,0.1c0,0,0,0.2,0,0.2
		c0,0.3,0.2,0.6,0.4,0.8c-0.1,0.1-0.1,0.3-0.1,0.4c0,0,0,0.1,0,0.1c0,0.1,0,0.3,0,0.4l0,0c0,0.1,0,0.3,0,0.4l0,0
		c0.1,1.3,0.2,2.7,0.3,4l0,0v0.4l0,0v0.4c0,0,0,0.1,0,0.1c0,0.1,0,0.2,0,0.3c0,0.1,0,0.2,0,0.3v0.1c0.3,5.5,0.2,11-0.3,16.4v0.2l0,0
		c0,0.3-0.1,0.6-0.1,1c-0.2,1.7-0.3,3.4-0.6,5.1c0,0.1,0,0.2,0,0.3l0,0c-0.5,3.8-1.2,7.5-2,11.2c-0.3,1.3-0.6,2.6-0.9,3.8l0,0
		c0,0.1,0,0.1-0.1,0.2c-0.7,2.5-1.5,5.1-2.3,7.6c0,0,0,0,0,0.1l0,0c-0.5,0.1-1,0.5-1.1,1c-0.3,1.2-0.5,2.5-0.8,3.7l0,0
		c0,0.2-0.1,0.3-0.1,0.5c-0.1,0.5-0.2,0.9-0.3,1.4c-0.2,0.8-0.4,1.7-0.6,2.5l0,0c-1.4,6.4-3,12.8-4.7,19.2c-2.6,9.5,0,0,0,0
		c-0.4,1.4-0.7,2.7-1.1,4.1c-2.2,8-4.7,15.9-7.4,23.8c-0.1,0.3,0,0.6,0.1,0.9l-0.1,0.3v0.1c0,0,0,0,0,0c-5.9,15-9.7,30.7-11.1,46.8
		c-1.6,16.5-0.7,33.2,2.7,49.4c0.1,0.3,0.3,0.6,0.6,0.8c0.3,0.2,0.7,0.2,1,0.1c0.3-0.1,0.6-0.3,0.8-0.7v-0.1
		c-3.1,17.6-134,106.7-201.5,33.5c0.3,0.1,0.7,0,1-0.1c0.3-0.2,0.5-0.5,0.6-0.8c0.1-0.4,0.1-0.8,0.2-1.3c0-0.1,0-0.2,0-0.3
		c0.3-2.1,0.5-4.1,0.7-6.2v-0.1c0.6-8,0.5-16-0.5-23.9c-1-8.4-2.6-16.8-4.8-24.9c-4.4-16.3-11-32-19.6-46.6
		c-4.9-8.4-10.6-16.4-17-23.8c-0.2-0.2-0.4-0.3-0.6-0.3c-0.2-0.2-0.3-0.5-0.5-0.7l-0.6-0.9l0,0c-0.1-0.1-0.1-0.1-0.1-0.2l0,0
		l-0.3-0.4c-1.7-2.6-3.5-5.2-5.3-7.8v0c-9.3-13.6-18.9-27-28.9-40.1c-1.5-2-3.1-4-4.6-6.1l0,0l-0.4-0.6l68.8-1.5l77-1.3l48.3-1
		c0.5,0,0.9-0.3,1.2-0.7c-1.2,8.2-1.8,16.5-2,24.7c0,0.4,0.2,0.7,0.5,0.9c0.3,0.2,0.6,0.3,1,0.3c0.4,0,0.7-0.2,0.9-0.5
		c0.2-0.3,0.3-0.6,0.3-0.9c0-2.6,0.1-5.2,0.3-7.7c0.9-16.6,4-33,9.2-48.8c3.7-11.2,8.7-22,15.1-31.9l0.7-1.1v-0.1
		c0.1-0.1,0.2-0.2,0.3-0.3l0.1-0.2c1-1.5,2.1-3,3.2-4.4l0.2-0.3l0.2-0.3l0.1-0.2c0.2-0.3,0.3-0.6,0.3-0.9c0-0.1,0-0.3-0.1-0.4
		c8.9-11.9,15.1-25.7,18-40.4c2.4-11.9,3-24.1,1.7-36.1l0,0l0,0l0,0l0,0c-0.1-1-0.2-2-0.4-3c0.3-0.3,0.3-0.8,0.2-1.2l-0.1-0.1l0,0
		l-0.1-0.1l0,0l0,0c0-0.1-0.1-0.2-0.1-0.3l-0.2-0.4l-0.1-0.3l0,0l-0.1-0.2c-0.1-0.4-0.1-0.8-0.2-1.3c0-0.4-0.2-0.7-0.5-0.9
		c-0.1,0-0.1-0.1-0.2-0.1c-0.2-0.7-0.5-1.4-0.7-2l0,0c0,0-0.1-0.2-0.1-0.3c-0.1-0.3-0.2-0.7-0.3-1l0,0c0,0,0,0,0-0.1
		c-0.1-0.4-0.3-0.8-0.4-1.3l0,0c-0.6-1.7-1.1-3.4-1.6-5.2l0,0v-0.1c-0.2-0.5-0.3-1-0.5-1.5l0,0c-1.4-4.9-2.7-9.7-3.8-14.4
		c-0.3-1.1-0.5-2.2-0.8-3.3l-0.4-1.7c0-0.2-0.1-0.3-0.1-0.5l0,0c-0.1-0.3-0.1-0.6-0.2-0.8c-0.1-0.5-0.2-1.1-0.3-1.6l0,0
		c-3.2-15.8-5.1-31.9-5.4-48c-0.1-5,0-10.1,0.3-15c0-0.6,0.1-1.3,0.1-1.9c0.3-0.3,0.5-0.7,0.5-1.1c0-0.7,0-1.4,0-2.1
		c0.1-2.1,0.5-4.1,1.1-6.1c0.3-1,0.8-1.9,1.4-2.8c0.4-0.5,0.8-1,1.3-1.5c0.4-0.3,0.7-0.6,1.2-0.8c0.4-0.2,0.8-0.3,1.3-0.5
		c0.4-0.1,0.9-0.1,1.3-0.1c0.6,0.1,1.2,0.2,1.8,0.3c0.8,0.3,1.6,0.7,2.3,1.2c1.1,0.7,2.1,1.6,3,2.5v0.4c0,0.7,0.6,1.3,1.3,1.3
		c0.1,0,0.1,0,0.2,0C705.3,466.7,706.5,468.6,707.5,470.5L707.5,470.5z"/>
	<path class="st0" d="M762.6,732c0.7,0.2,1.2,0.9,1,1.6l-0.6,2.7l0,0c-0.1,0.4-0.2,0.8-0.3,1.2c-0.2,0.2-0.4,0.3-0.6,0.4
		c-0.3,0.1-0.7,0.1-1-0.1c-0.3-0.2-0.5-0.4-0.6-0.8c-0.1-0.3-0.1-0.7,0.1-1c0.1-0.1,0.1-0.3,0.2-0.4v-0.1l0.1-0.2
		c0-0.1,0.1-0.1,0.1-0.2l0,0l0.6-1.6l0.5-1.6l0,0h0.2L762.6,732z"/>
	<path class="st0" d="M762.8,737.6l-0.1,0.6c0,0.1,0,0.2-0.1,0.3c-0.1,0.1,0,0,0,0.1l-0.1,0.2c0,0,0,0,0,0.1c-0.2,1-0.4,1.9-0.6,2.9
		l0,0c0,0.1-0.1,0.3-0.1,0.5c0,0,0,0,0,0.1c-1.4,6.3-3,12.5-4.7,18.7v0.1l-0.9,3.2c0,0,0,0,0,0l-0.1,0.5c0,0.1-0.1,0.3-0.1,0.4l0,0
		c-2,7-4.1,13.9-6.4,20.8c-0.1-0.1-0.3-0.2-0.4-0.3c-0.2-0.1-0.4-0.1-0.6-0.1c-0.5,0-1,0.3-1.2,0.7l-0.6,1.5c0,0,0,0.1,0,0.1
		c-0.2,0.5-0.4,0.9-0.6,1.4v0.1c-0.2-0.3-0.2-0.6-0.1-0.9c2.7-7.8,5.1-15.7,7.4-23.8c0.4-1.4,0.8-2.7,1.1-4.1l0,0
		c1.7-6.4,3.3-12.8,4.7-19.2l0,0c0.2-0.8,0.4-1.7,0.6-2.5c0.1-0.5,0.2-0.9,0.3-1.4c0-0.2,0.1-0.3,0.1-0.5l0,0
		c0.3-1.2,0.5-2.5,0.8-3.7c0.1-0.5,0.5-0.9,1.1-1l-0.5,1.6l-0.6,1.6l0,0c0,0.1,0,0.1-0.1,0.2l-0.1,0.2v0.1c-0.1,0.1-0.1,0.3-0.2,0.4
		c-0.2,0.3-0.2,0.7-0.1,1c0.1,0.3,0.3,0.6,0.6,0.8c0.3,0.2,0.7,0.2,1,0.1C762.5,737.9,762.7,737.8,762.8,737.6z"/>
	<path class="st0" d="M737.4,838.5c-1.2,14.2-0.6,28.4,2,42.4c0.3,1.4,0.5,2.7,0.8,4.1c0,0.3,0,0.6,0,0.9v0.1
		c-0.2,0.3-0.4,0.5-0.8,0.7c-0.3,0.1-0.7,0.1-1-0.1c-0.3-0.2-0.5-0.4-0.6-0.8c-3.4-16.2-4.4-32.9-2.7-49.4
		c1.5-16,5.2-31.8,11.1-46.8c0,0,0,0,0,0v-0.1l0.1-0.3l0.1,0.1c0.2,0.3,0.5,0.5,0.8,0.6c0.4,0.1,0.7,0,1-0.2
		c0.3-0.2,0.5-0.5,0.6-0.8c0.3-1,0.7-1.9,1-2.9c0.1,0.1,0.2,0.3,0.2,0.4c0,0.1,0.1,0.3,0.1,0.4c0,0.2-0.1,0.4-0.2,0.6l-0.6,1.5l0,0
		c-0.2,0.6-0.5,1.2-0.7,1.7c-0.6,1.4-1.1,2.9-1.6,4.3C741.8,809,738.6,823.6,737.4,838.5z"/>
	<path class="st0" d="M749.7,786c-0.3,1-0.7,1.9-1,2.9c-0.1,0.3-0.3,0.6-0.6,0.8c-0.3,0.2-0.7,0.3-1,0.2c-0.3-0.1-0.6-0.3-0.8-0.6
		l-0.1-0.1v-0.1c0.2-0.5,0.4-0.9,0.6-1.4c0,0,0-0.1,0-0.1l0.6-1.5c0.2-0.5,0.7-0.7,1.2-0.7c0.2,0,0.4,0,0.6,0.1
		C749.4,785.7,749.5,785.8,749.7,786z"/>
	<path class="st0" d="M740.2,885c0.1,0.3,0.1,0.6,0,0.9C740.2,885.6,740.2,885.3,740.2,885z"/>
	<path class="st0" d="M735.6,545.1c0.2,0.7-0.1,1.4-0.8,1.7c-0.4,0.1-0.9,0.1-1.2-0.2l-1.5-4l-0.4-1.3c-0.2-0.6-0.3-1.1-0.5-1.7
		v-0.1l-0.9-2.9c0.2-0.3,0.4-0.6,0.8-0.7c0.1,0,0.3-0.1,0.4-0.1c0.6,0,1.1,0.4,1.3,0.9c0.6,1.7,1.3,3.3,1.9,5l0,0l0.5,1.6
		c0,0,0,0,0,0.1c0,0.1,0.1,0.2,0.1,0.3c0,0,0,0.1,0,0.1l0.1,0.4C735.4,544.6,735.5,544.9,735.6,545.1z"/>
	<path class="st0" d="M734.6,541.7C734.5,541.7,734.5,541.7,734.6,541.7c-0.6-1.6-1.3-3.3-1.9-4.9c-0.2-0.5-0.7-0.9-1.3-0.9
		c-0.1,0-0.3,0-0.4,0.1c-0.3,0.1-0.6,0.4-0.8,0.7c-0.7-2.1-1.3-4.3-2-6.4c-5.2-16.2-10.8-32.3-16.8-48.2c-0.1-0.3-0.1-0.6,0-0.8
		c0,0.1,0.1,0.3,0.1,0.4c0.1,0.3,0.4,0.6,0.7,0.7c0.3,0.2,0.7,0.2,1,0.1c0.3-0.1,0.6-0.4,0.7-0.7c0-0.1,0.1-0.1,0.1-0.2
		c1.3,3.4,2.6,6.8,3.9,10.3c5.7,15.5,10.9,31.1,15.8,46.9l0,0c0.2,0.5,0.3,1,0.5,1.6l0,0L734.6,541.7z"/>
	<path class="st0" d="M733.6,546.6c-0.2-0.2-0.4-0.4-0.5-0.7c-0.2-0.8-0.5-1.7-0.8-2.5c0-0.1-0.1-0.3-0.1-0.4V543
		c0-0.1-0.1-0.3-0.1-0.4l0,0L733.6,546.6z"/>
	<path class="st0" d="M731.6,541.3l0.4,1.3c-0.6-1.6-1.2-3.3-1.9-4.9c-0.1-0.3-0.1-0.7,0.1-1l0.9,2.9v0.1
		C731.3,540.2,731.5,540.7,731.6,541.3z"/>
	<path class="st0" d="M714,480.7c0.1,0.3,0.1,0.5,0,0.8c0-0.1-0.1-0.2-0.1-0.3c-0.2-0.5-0.7-0.9-1.3-0.9c-0.1,0-0.3,0-0.4,0.1
		c-0.4,0.1-0.7,0.4-0.8,0.8c-0.8-3.7-2.1-7.3-3.8-10.7l0,0c-1-1.9-2.2-3.8-3.5-5.5c0.7-0.1,1.2-0.6,1.2-1.3v-1.4
		c2,2.3,3.7,4.9,5,7.7C711.9,473.4,713.1,477,714,480.7z"/>
	<path class="st0" d="M713.9,481.2c0,0.1,0.1,0.2,0.1,0.3c0,0.1,0,0.2-0.1,0.2c-0.2,0.3-0.4,0.5-0.7,0.7c-0.3,0.1-0.7,0.1-1-0.1
		c-0.3-0.1-0.6-0.4-0.7-0.7c0-0.1-0.1-0.3-0.1-0.4c0.1-0.4,0.4-0.7,0.8-0.8c0.1,0,0.3-0.1,0.4-0.1
		C713.2,480.3,713.7,480.7,713.9,481.2z"/>
	<path class="st0" d="M705.2,462.3v1.4c0,0.7-0.5,1.2-1.2,1.3c-0.3-0.4-0.7-0.9-1.1-1.3c-0.1-0.1-0.3-0.3-0.4-0.4v-3.7
		c0.4,0.3,0.8,0.7,1.1,1C704.2,461.2,704.7,461.7,705.2,462.3z"/>
	<path class="st0" d="M705.2,412.2v50c-0.5-0.6-1-1.1-1.5-1.6c-0.4-0.3-0.7-0.7-1.1-1v-94c0,0.7,0.6,1.3,1.3,1.3
		c0.7,0,1.3-0.6,1.3-1.3V412.2z"/>
	<path class="st0" d="M705.2,314.7v50.9c0,0.7-0.6,1.3-1.3,1.3c-0.7,0-1.3-0.6-1.3-1.3v-54.4c0-0.1,0-0.1,0-0.2l0,0
		c0.2,0.3,0.6,0.4,0.9,0.5c0.7,0,1.3-0.4,1.4-1.1c0.2,0.2,0.3,0.5,0.3,0.8L705.2,314.7z"/>
	<path class="st0" d="M705.2,310.4v0.8c0-0.3-0.1-0.6-0.3-0.8c0,0,0-0.1,0-0.1c0-0.5,0-1.1,0-1.6c0.2,0.2,0.3,0.5,0.3,0.8
		L705.2,310.4z"/>
	<path class="st0" d="M705,287.9c0,6.9,0,13.8-0.1,20.7c-0.2-0.3-0.6-0.5-0.9-0.5c0-0.1,0-0.1,0-0.2c0-0.7-0.6-1.3-1.3-1.3h-0.4
		l0-16c0.2,0.2,0.4,0.3,0.7,0.3c0.7,0,1.4-0.5,1.4-1.2c0,0,0-0.1,0-0.1v-0.2c0,0,0-0.1,0-0.1c0,0,0,0,0-0.1c0,0,0-0.1,0-0.1
		s0-0.1,0-0.1c0-0.7,0-1.4,0-2.1l0.1,0.1C704.8,287.2,704.9,287.6,705,287.9z"/>
	<path class="st0" d="M704.9,308.7c0,0.5,0,1.1,0,1.6c0,0,0,0.1,0,0.1c-0.2-0.3-0.6-0.5-1-0.5c-0.7,0-1.2,0.5-1.3,1.1l0,0v-1.5
		c0-0.1,0-0.1,0-0.2h0.1c0.7,0,1.2-0.5,1.3-1.1C704.4,308.2,704.7,308.4,704.9,308.7z"/>
	<path class="st0" d="M704.5,286.9c0,0.7,0,1.4,0,2.1c0,0,0,0.1,0,0.1c0,0,0,0.1,0,0.1c0,0,0,0,0,0.1s0,0.1,0,0.1v0.2
		c0,0,0,0.1,0,0.1c-0.1,0.7-0.7,1.3-1.4,1.2c-0.3,0-0.5-0.1-0.7-0.3c0-0.9,0-1.9,0-2.8c0.1-0.7,0.6-1.2,1.3-1.2h0.1
		C704.1,286.6,704.4,286.7,704.5,286.9z"/>
	<path class="st0" d="M699.7,280c-0.1-0.1-0.2-0.3-0.3-0.4c-0.7-1-1.5-1.9-2.4-2.7c-1.2-1-2.5-1.9-3.9-2.7c-1.7-0.8-3.5-1.5-5.3-1.9
		c-2.1-0.4-4.3-0.6-6.5-0.5c-0.2,0-0.4,0-0.6,0.1c-0.3,0.1-0.7,0-1-0.2c0,0-0.1-0.1-0.1-0.1h2c0.7,0,1.3-0.6,1.3-1.3
		c0-0.4-0.2-0.8-0.6-1.1c0.2,0,0.4,0,0.6,0c1.4,0,2.7,0.1,4.1,0.3c2,0.3,4,0.9,5.8,1.7c3.4,1.4,6.3,3.7,8.5,6.6l0,0l0.1,0.1l0.1,0.1
		c0.8,1.1,1.4,2.2,1.9,3.5c0.5,1.2,0.9,2.6,1,3.9c0,0,0,0,0,0.1c0,0,0,0.1,0,0.1l0,0c0,0,0,0,0,0.1c0,0.4,0.1,0.8,0.1,1.3
		c-0.2-0.2-0.5-0.3-0.8-0.3h-0.1c-0.7,0-1.3,0.5-1.3,1.2c0,0.9,0,1.9,0,2.8c-0.4-0.3-0.6-0.7-0.5-1.1c0.1-0.9,0.2-1.8,0.1-2.7
		c0-0.3,0-0.5-0.1-0.8v0c-0.1-0.9-0.3-1.8-0.6-2.7c-0.4-1.1-0.9-2.1-1.5-3C699.7,280.1,699.7,280.1,699.7,280L699.7,280L699.7,280z"
		/>
	<path class="st0" d="M703.9,309.9c0.4,0,0.8,0.2,1,0.5c-0.1,0.7-0.7,1.2-1.4,1.1c-0.4,0-0.7-0.2-0.9-0.5l0,0
		C702.6,310.4,703.2,309.9,703.9,309.9z"/>
	<path class="st0" d="M704,465c-0.1,0-0.1,0-0.2,0c-0.7,0-1.3-0.6-1.3-1.3v-0.4c0.1,0.1,0.3,0.3,0.4,0.4
		C703.3,464.1,703.7,464.6,704,465z"/>
	<path class="st0" d="M704,307.9c0,0.1,0,0.1,0,0.2h-0.1c-0.7,0-1.2,0.5-1.3,1.1h-0.3c0-0.9,0-1.8,0-2.6h0.4
		C703.4,306.6,704,307.2,704,307.9z"/>
	<path class="st0" d="M703.9,308.1h0.1c-0.1,0.6-0.7,1.1-1.3,1.1h-0.1C702.6,308.6,703.2,308.1,703.9,308.1z"/>
	<path class="st0" d="M703.2,581c1.3,12.1,0.7,24.2-1.7,36.1c-2.9,14.6-9.1,28.4-18,40.4c-0.1-0.2-0.2-0.4-0.4-0.6
		c-0.3-0.2-0.6-0.3-0.9-0.3c-0.4,0-0.7,0.2-1,0.5l-0.1,0.1l-0.2,0.3l0,0l0,0l-0.2,0.3l0,0c-0.5,0.6-0.9,1.2-1.4,1.8
		c-0.2-0.5-0.1-1,0.2-1.4c1.9-2.3,3.7-4.8,5.4-7.3c0.1-0.1,0.1-0.2,0.2-0.3c4.4-6.8,8-14.2,10.6-21.9c0,0,0-0.1,0-0.1v-0.1
		c3-9.2,4.8-18.7,5.4-28.3c0.3-6.4,0.2-12.8-0.5-19.2l0,0c-0.2-1.8-0.4-3.5-0.7-5.3l0.2,0.5l0,0c0.1,0.2,0.1,0.3,0.2,0.5
		c0,0,0,0.1,0,0.1l0,0c0,0.1,0.1,0.2,0.1,0.2c0,0.1,0,0.1,0.1,0.2l0,0l0.1,0.2c0.3,0.7,1,1,1.7,0.8c0.2-0.1,0.5-0.3,0.6-0.5
		c0.1,1,0.3,2,0.4,3l0,0l0,0l0,0L703.2,581z"/>
	<path class="st0" d="M703.1,576.7c0.1,0.4,0.1,0.9-0.2,1.2c-0.1-0.9-0.2-1.9-0.4-2.8l0.1,0.2l0,0l0.1,0.3l0.2,0.4
		c0,0.1,0.1,0.2,0.1,0.3l0,0l0,0l0.1,0.1l0,0L703.1,576.7z"/>
	<path class="st0" d="M702.5,575.1c0.1,0.9,0.3,1.9,0.4,2.8c-0.1,0.2-0.4,0.4-0.6,0.5c-0.7,0.2-1.4-0.1-1.7-0.8l-0.1-0.2l0,0
		c0-0.1,0-0.1-0.1-0.2c0-0.1-0.1-0.2-0.1-0.2l0,0c0,0,0-0.1,0-0.1c-0.1-0.2-0.1-0.3-0.2-0.5l0,0l-0.2-0.5l0,0
		c-0.1-0.6-0.2-1.2-0.3-1.8c-0.1-0.7,0.5-1.4,1.2-1.4c0,0,0,0,0,0h0.1c0.2,0,0.5,0.1,0.7,0.2C701.9,573.6,702.2,574.3,702.5,575.1z"
		/>
	<path class="st0" d="M702.5,309.3c0,0.1,0,0.1,0,0.2v1.5c-0.2-0.3-0.3-0.6-0.3-0.9v-0.8L702.5,309.3z"/>
	<path class="st0" d="M702.5,311c0,0.1,0,0.1,0,0.2V311L702.5,311z"/>
	<path class="st0" d="M702.5,459.7v3.7c-0.9-0.9-1.9-1.8-3-2.5c-0.7-0.5-1.5-0.9-2.3-1.2c-0.6-0.2-1.2-0.3-1.8-0.3
		c-0.4,0-0.9,0-1.3,0.1c-0.4,0.1-0.9,0.3-1.3,0.5c-0.4,0.2-0.8,0.5-1.2,0.8c-0.5,0.4-0.9,0.9-1.3,1.5c-0.6,0.9-1,1.8-1.4,2.8
		c-0.6,2-1,4.1-1.1,6.1c0,0.7,0,1.4,0,2.1c0,0.4-0.2,0.9-0.5,1.1c0.1-1.1,0.2-2.2,0.3-3.4l0,0l0.1-0.6c0-0.1,0-0.2,0-0.2
		c0-0.3-0.1-0.5-0.2-0.8c-0.2-0.3-0.5-0.5-0.8-0.6h-0.2c-0.3,0-0.5,0.1-0.8,0.2c-0.1,0.1-0.2,0.1-0.2,0.2c0.2-1.7,0.5-3.3,1-4.9
		c0.3-0.9,0.6-1.7,1.1-2.5c0.4-0.8,0.9-1.5,1.5-2.2c1.1-1.3,2.6-2.3,4.3-2.7c0.6-0.1,1.2-0.2,1.8-0.2
		C697.9,456.8,700.5,457.8,702.5,459.7z"/>
	<path class="st5" d="M702.5,425.5v34.2c-2-1.8-4.6-2.9-7.4-3.1c-0.6,0-1.2,0.1-1.8,0.2c-1.7,0.4-3.2,1.4-4.3,2.7
		c-0.6,0.7-1.1,1.4-1.5,2.2c-0.4,0.8-0.8,1.7-1.1,2.5c-0.5,1.6-0.9,3.3-1,4.9c-0.2,0.2-0.3,0.4-0.3,0.6c-0.7,8.1-1,16.2-0.7,24.3
		c0.2,8.2,0.9,16.4,1.9,24.6c0.9,7,2,13.9,3.4,20.8c0,0,0,0.1,0,0.1l0.6,2.7c0,0.1,0,0.2,0.1,0.3c1.4,6.5,3,13,4.9,19.4
		c0,0,0,0,0,0.1l0.4,1.3c0,0,0,0,0,0.1c0,0.1,0,0.1,0,0.1c0.5,1.8,1.1,3.7,1.7,5.5l0.1,0.3c0,0,0,0,0,0.1c0,0.1,0.1,0.3,0.1,0.4
		c0.1,0.1,0.1,0.4,0.2,0.5c0.1,0.2,0.1,0.4,0.2,0.6l0,0c0,0,0,0.1,0,0.1c0.5,1.5,1.1,3,1.6,4.6c0,0,0,0,0,0.1v0.1l0,0
		c0.3,1.8,0.5,3.5,0.7,5.3l0,0c0.7,6.4,0.8,12.8,0.5,19.2c-0.6,9.6-2.4,19.2-5.4,28.3v0.1c0,0,0,0.1,0,0.1
		c-2.6,7.7-6.1,15.1-10.6,21.9c-0.1,0.1-0.1,0.2-0.2,0.3c-1.7,2.5-3.5,5-5.4,7.3c-0.3,0.4-0.4,0.9-0.2,1.4c-0.2,0.3-0.4,0.5-0.6,0.8
		c-0.2-0.1-0.4-0.2-0.6-0.2h-0.8h-0.6h-0.1l-3.1,0.1h-0.1l-84.3,1.9l-89.7,1.9l-53.8,1.2c-0.7-3.5-1.5-7-2.5-10.5c0,0,0,0,0-0.1
		c0,0,0-0.1,0-0.1c-0.1-0.4-0.2-0.7-0.3-1.1l-0.1-0.3l0,0v-0.1c0-0.1,0-0.1-0.1-0.2l0,0l0,0l-0.3-1l0,0c0,0,0-0.1,0-0.1l-0.1-0.3
		l-0.1-0.3c1.7,1.6,3.6,3,5.7,4.1c0.7,0.4,1.5,0.7,2.2,0.9c0.7,0.2,1.5,0.3,2.2,0.3c0.8,0,1.6-0.1,2.3-0.5c0.8-0.4,1.6-1,2.2-1.7
		c1-1.3,1.6-2.7,1.8-4.3c0.3-1.7,0.5-3.4,0.4-5.2c-0.1-3-0.5-6.1-1.1-9.1c0,0,0-0.1,0-0.1c-0.1-0.4-0.2-0.8-0.2-1.2c0,0,0-0.1,0-0.1
		l-0.1-0.6c-0.1-0.3-0.3-0.5-0.5-0.7c-0.8-4.2-1.8-8.4-3.1-12.5c0,0,0,0,0-0.1c-0.1-0.3-0.2-0.6-0.3-0.9c0,0,0-0.1,0-0.1
		c-0.3-1-0.6-2.1-1-3.1c-0.1-0.3-0.3-0.5-0.5-0.7l0.6-1.6c0.2,0.1,0.5,0.1,0.7,0.2c0.5,0.1,1,0.2,1.6,0.2c0.9,0,1.8-0.1,2.7-0.5
		c0.9-0.4,1.7-0.9,2.4-1.6c0.5-0.6,1-1.2,1.4-1.8c0.5-0.8,0.8-1.6,1.1-2.4c0.3-0.7,0.5-1.4,0.7-2.2c0.4-0.1,0.7-0.5,0.8-0.9
		c0.1-0.4,0.1-0.8,0.1-1.1l0,0l0,0c0,0,0,0,0-0.1c0,0,0,0,0-0.1c0-0.2,0-0.4,0.1-0.6c0,0,0,0,0-0.1c0-0.1,0-0.2,0-0.2v-0.3
		c0.5-7.5,0.2-15.1-0.9-22.5c-1.1-8.2-2.7-16.3-4.8-24.4c-2-8-4.5-16-7.3-23.8c-2.4-6.6-5-13-8-19.3l0.1-7.9l0,0
		c0-6.6,0.1-13.2,0.1-19.8c0-0.8,0-1.6,0-2.3l0,0v-4.5c0.1-13.4,0.2-26.8,0.2-40.3c0-4.9,0.1-9.8,0.1-14.7
		c0.1-10.8,0.1-21.7,0.2-32.5c0.1-15.2,0.2-30.3,0.3-45.5c0-1.8,0-3.7,0-5.6c0.1-0.2,0.2-0.5,0.2-0.7c0-0.2-0.1-0.5-0.2-0.7
		l0.1-15.1c0-4.7,0.1-9.4,0.1-14.1h257.9v0.8c0,0.3,0.1,0.7,0.3,0.9L702.5,425.5L702.5,425.5z M660.9,608.7
		c-0.1-15.7-0.1-31.3-0.2-47c-61.7,0.3-123.3,0.6-185,1c0.1,15.6,0.1,31.3,0.2,47L660.9,608.7z M653.2,534.8
		c-0.1-14.9-0.1-29.7-0.2-44.6l-174.8,0.9l0.2,44.6L653.2,534.8z M671.6,395.1l-0.2-44.6c0-0.3-0.1-0.7-0.3-0.9
		c-0.2-0.3-0.6-0.4-0.9-0.5l-74.7,0.4l-75.8,0.4l-43.3,0.2c-0.4,0-0.7,0.1-1,0.3c-0.3,0.2-0.4,0.6-0.5,0.9c0.1,13.7,0.1,27.3,0.2,41
		c0,0.3,0.1,0.7,0.3,0.9c0.2,0.3,0.6,0.4,0.9,0.5h0.1l0.1,1c-0.3,0-0.7,0.1-0.9,0.3c-0.3,0.2-0.4,0.6-0.5,0.9
		c-0.1,0.7,0.5,1.4,1.2,1.4l73.7-0.4l75.2-0.4l44.9-0.2c0.3,0,0.7-0.1,0.9-0.3C671.4,395.8,671.6,395.5,671.6,395.1L671.6,395.1z
		 M670.4,464.3c-0.1-14.9-0.1-29.7-0.2-44.6l-193.8,0.9l0.2,44.6L670.4,464.3z"/>
	<path class="st0" d="M702.3,573.8c0.1,0.4,0.1,0.8,0.2,1.3c-0.3-0.8-0.6-1.5-0.8-2.3c0.1,0,0.1,0.1,0.2,0.1
		C702.1,573.2,702.3,573.5,702.3,573.8z"/>
	<path class="st3" d="M702.3,290.6l0,16H444.8c0-6.1,0-12.2,0.1-18.3c0-1,0-2.1,0-3.1v-0.1c0-0.2,0-0.3-0.1-0.5l0,0
		c0-0.1,0-0.2,0.1-0.3c0-0.1,0-0.1,0-0.2c0,0,0,0,0-0.1c0.3-1.3,0.8-2.6,1.4-3.9c0.7-1.3,1.5-2.4,2.4-3.5c0.9-1,2-1.9,3.1-2.6
		c1.2-0.8,2.4-1.4,3.7-1.8c1.1-0.3,2.2-0.6,3.3-0.7c0.1,0,0.2,0,0.3,0h220.5c0,0,0.1,0.1,0.1,0.1c0.3,0.2,0.7,0.3,1,0.2
		c0.2,0,0.4,0,0.6-0.1c2.2-0.1,4.4,0.1,6.5,0.5c1.8,0.4,3.6,1.1,5.3,1.9c1.4,0.7,2.7,1.6,3.9,2.7c0.9,0.8,1.7,1.7,2.4,2.7
		c0.1,0.1,0.2,0.3,0.3,0.4l0,0l0,0c0,0,0,0,0,0.1c0.6,1,1.1,2,1.5,3c0.3,0.9,0.5,1.8,0.6,2.7v0.1c0,0.3,0.1,0.5,0.1,0.8
		c0,0.9,0,1.8-0.1,2.7C701.7,289.9,701.9,290.3,702.3,290.6z M612.7,297.6c3.4-0.7,5.7-4,5-7.4s-4-5.7-7.4-5c-3.4,0.7-5.7,4-5,7.4
		C606,296,609.2,298.2,612.7,297.6L612.7,297.6z M594.7,293.5c0-0.7-0.6-1.3-1.3-1.3l0,0h-50.5c-0.7,0-1.3,0.6-1.3,1.3
		c0,0.7,0.6,1.3,1.3,1.3c0,0,0,0,0,0h50.5C594.1,294.8,594.7,294.2,594.7,293.5L594.7,293.5z"/>
	<path class="st0" d="M702.3,306.6c0,0.9,0,1.8,0,2.6H444.5c0-0.3,0-0.6,0-0.9c0-0.1,0-0.3-0.1-0.4c0.2-0.2,0.4-0.5,0.4-0.8v-0.5
		L702.3,306.6L702.3,306.6z"/>
	<path class="st0" d="M701,570.8c0.2,0.7,0.5,1.4,0.7,2c-0.2-0.1-0.5-0.2-0.7-0.2h-0.1c-0.7,0-1.3,0.7-1.2,1.4c0,0,0,0,0,0
		c0.1,0.6,0.2,1.2,0.3,1.8v-0.1c0,0,0,0,0-0.1c-0.6-1.5-1.1-3-1.6-4.6c0,0,0-0.1,0-0.1l0,0c-0.1-0.2-0.1-0.4-0.2-0.6
		c-0.1-0.2-0.1-0.4-0.2-0.5s-0.1-0.3-0.1-0.4c0,0,0,0,0-0.1l-0.1-0.3c-0.6-1.8-1.2-3.7-1.7-5.5c0,0,0-0.1,0-0.1c0,0,0,0,0-0.1
		l-0.4-1.3c0,0,0,0,0-0.1c-1.9-6.4-3.5-12.9-4.9-19.4c0-0.1-0.1-0.2-0.1-0.3l-0.6-2.7c0,0,0-0.1,0-0.1c-1.4-6.9-2.5-13.8-3.4-20.8
		c-1-8.2-1.7-16.4-1.9-24.6c-0.3-8.1,0-16.2,0.7-24.3c0-0.2,0.1-0.5,0.3-0.6c-0.1,1.4-0.2,2.8-0.2,4.2c0.1,0.7,0.7,1.3,1.4,1.2
		c0.3,0,0.5-0.1,0.7-0.3c0,0.6-0.1,1.3-0.1,1.9c-0.3,5-0.4,10.1-0.3,15c0.4,16.1,2.2,32.2,5.4,48l0,0c0.1,0.5,0.2,1.1,0.3,1.6
		c0.1,0.3,0.1,0.5,0.2,0.8l0,0c0,0.2,0.1,0.3,0.1,0.5l0.4,1.7c0.2,1.1,0.5,2.2,0.8,3.3c1.1,4.7,2.3,9.4,3.7,14.1l0,0
		c0.1,0.5,0.3,1,0.5,1.5v0.1l0,0c0.5,1.7,1.1,3.4,1.6,5.2l0,0c0.1,0.4,0.3,0.8,0.4,1.3c0,0,0,0,0,0.1l0,0c0.1,0.3,0.2,0.7,0.3,1
		c0,0.1,0.1,0.2,0.1,0.3C701,570.7,701,570.8,701,570.8z"/>
	<path class="st0" d="M687.8,470c0,0.1,0,0.2,0,0.2l-0.1,0.6l0,0c-0.1,1.1-0.2,2.2-0.3,3.4c-0.2,0.2-0.5,0.3-0.7,0.3
		c-0.7,0.1-1.4-0.5-1.4-1.2c0-1.4,0-2.8,0.2-4.2c0.1-0.1,0.1-0.1,0.2-0.2c0.2-0.1,0.5-0.2,0.8-0.2h0.2c0.3,0.1,0.6,0.3,0.8,0.6
		C687.8,469.4,687.8,469.7,687.8,470z"/>
	<path class="st0" d="M683.6,657.5c0,0.1,0.1,0.3,0.1,0.4c0,0.3-0.1,0.7-0.3,0.9l-0.1,0.2l-0.2,0.3l-0.2,0.3
		c-1.1,1.4-2.2,2.9-3.2,4.4l-0.1,0.2c-0.1,0.1-0.2,0.2-0.2,0.3v0.1l-0.7,1.1c-6.4,9.9-11.4,20.7-15.1,31.9
		c-5.2,15.8-8.3,32.2-9.2,48.8c-0.1,2.6-0.2,5.2-0.3,7.7c0,0.3-0.1,0.7-0.3,0.9c-0.2,0.3-0.6,0.4-0.9,0.5c-0.3,0-0.7-0.1-1-0.3
		c-0.3-0.2-0.4-0.6-0.5-0.9c0.1-8.3,0.8-16.5,2-24.7c0.1-0.2,0.2-0.4,0.2-0.6c0-0.1,0-0.2,0-0.3c1-7.1,2.5-14.1,4.3-21
		c4.2-15.7,10.3-31,19.4-44.5h0.3h0.7c0.7,0,1.3-0.5,1.4-1.3c0-0.5-0.2-1-0.7-1.2c0.2-0.3,0.4-0.5,0.6-0.8c0.1,0.2,0.2,0.4,0.4,0.5
		c0.5,0.4,1.4,0.4,1.8-0.1C682.2,659.2,682.9,658.4,683.6,657.5z"/>
	<path class="st0" d="M683.2,656.9c0.2,0.2,0.3,0.4,0.4,0.6c-0.7,0.9-1.4,1.7-2,2.6c-0.5,0.5-1.3,0.6-1.8,0.1
		c-0.2-0.1-0.3-0.3-0.4-0.5c0.5-0.6,0.9-1.3,1.4-1.8l0,0l0.2-0.3l0,0l0,0l0.2-0.3l0.1-0.1c0.2-0.3,0.6-0.5,1-0.5
		C682.6,656.7,682.9,656.7,683.2,656.9z"/>
	<path class="st0" d="M682.4,269.2c0.4,0.2,0.6,0.6,0.6,1.1c0,0.7-0.6,1.3-1.3,1.3h-2c-0.5-0.4-0.6-1.2-0.2-1.7
		c0.2-0.3,0.5-0.5,0.8-0.5C680.9,269.2,681.6,269.2,682.4,269.2z"/>
	<path class="st0" d="M681.6,268.9c0.3,0,0.5,0.1,0.7,0.2c-0.7,0-1.5,0-2.2,0.1c-0.3,0.1-0.6,0.3-0.8,0.5c-0.4,0.6-0.3,1.3,0.2,1.7
		H459.1c-0.1,0-0.2,0-0.3,0c0.3,0,0.6-0.1,0.8-0.1h0.4c0.3,0,0.7-0.1,1-0.3c0.3-0.2,0.4-0.6,0.5-0.9c0-0.3-0.1-0.7-0.3-1
		c-0.1-0.1-0.3-0.3-0.4-0.3L681.6,268.9L681.6,268.9z"/>
	<path class="st0" d="M655.4,561.8c0.1,15.6,0.1,31.3,0.2,47l-179.7,1c-0.1-15.7-0.1-31.3-0.2-47
		C535.6,562.4,595.5,562.1,655.4,561.8z"/>
	<path class="st0" d="M678.7,660.5c0.6,0.4,0.9,1.2,0.5,1.8c-0.2,0.4-0.7,0.7-1.2,0.7h-0.7H677c0.1-0.1,0.1-0.2,0.2-0.3l0,0
		c0.1-0.1,0.1-0.2,0.2-0.3l0,0c0-0.1,0.1-0.1,0.1-0.2C677.9,661.6,678.3,661.1,678.7,660.5z"/>
	<path class="st0" d="M678.7,660.5c-0.4,0.6-0.8,1.1-1.2,1.7c0,0.1-0.1,0.1-0.1,0.2l0,0c-0.1,0.1-0.1,0.2-0.2,0.3l0,0
		c-0.1,0.1-0.1,0.2-0.2,0.3h-0.4l-3.1,0.1h-0.1l-51.4,1.1l-90.4,2l-85.6,1.8c-0.1-0.9-0.3-1.8-0.5-2.6l53.8-1.2l89.7-1.8l84.4-1.8
		h0.1l3.1-0.1h0.1h0.6h0.8C678.4,660.4,678.5,660.4,678.7,660.5z"/>
	<path class="st3" d="M676.7,663h0.3c-9.1,13.5-15.2,28.8-19.4,44.5c-1.8,6.9-3.3,13.9-4.3,21c-0.1-0.6-0.6-1-1.2-1l0,0
		c-25.3,0.5-50.6,1.1-75.9,1.6l-76.7,1.7l-42.6,0.9l-0.3-0.1l0,0c-0.5-0.1-1-0.3-1.5-0.4c-1.3-0.5-2.6-1.1-3.8-1.9
		c-1.8-1.2-3.4-2.6-4.8-4.2c-1.9-2.2-3.6-4.7-5-7.3c-1.7-3.5-3-7.1-3.8-10.9c-0.3-1.6-0.6-3.1-0.7-4.7c0.7,0.2,1.4,0.4,2.1,0.5
		c0.7,0,1.3,0,2-0.2c0.7-0.2,1.3-0.6,1.9-1.1c0.9-0.9,1.6-2,2-3.2c0.3-1,0.6-2,0.7-3.1c0.9-3,1.4-6,1.5-9.1
		c0.2-3.4,0.1-6.9-0.2-10.3c-0.2-2.6-0.5-5.1-1-7.6l85.6-1.8l90.4-2l51.4-1.1h0.1l3.1-0.1h0.1L676.7,663z M602.9,697
		c0.4-3,0.1-6.1-0.8-9c-0.8-2.3-1.9-4.4-3.4-6.3c-0.8-0.9-1.6-1.8-2.5-2.6c-1-0.8-2-1.6-3.1-2.3c-3.8-2.4-8.3-3.7-12.8-3.7
		c-0.6,0-1.2,0-1.8,0.1c-3.2,0.2-6.3,1.1-9.1,2.5c-2.7,1.4-5.2,3.3-7.2,5.5c-2,2.2-3.4,4.9-4.3,7.7c-0.9,2.9-1.1,5.9-0.6,8.8
		c0.5,2.9,1.6,5.8,3.3,8.2c0.8,1.2,1.8,2.4,2.9,3.4c1.1,1,2.3,2,3.6,2.7c2.6,1.6,5.5,2.7,8.5,3.2c3.2,0.6,6.6,0.5,9.8-0.2
		c3-0.7,5.9-1.9,8.5-3.7c1.2-0.9,2.4-1.9,3.5-3c1-1.1,1.9-2.3,2.7-3.5C601.5,702.6,602.5,699.9,602.9,697z"/>
	<path class="st0" d="M660.7,490.2c0.1,14.9,0.1,29.7,0.2,44.6l-182.6,0.9l-0.2-44.6L660.7,490.2z"/>
	<path class="st0" d="M670.1,419.7c0.1,14.9,0.1,29.7,0.2,44.6l-193.8,0.9l-0.2-44.6L670.1,419.7z"/>
	<path class="st0" d="M668.8,351.8c0.1,14,0.1,28,0.2,41.9l-74.2,0.4l-74.3,0.4l-43.9,0.2h-0.1l-0.1-1c0.7,0,1.3-0.5,1.3-1.2
		l-0.2-39.7c24-0.1,48-0.2,72.1-0.4l75.9-0.4C640,351.9,654.4,351.8,668.8,351.8z"/>
	<path class="st0" d="M653.3,728.5c0,0.1,0,0.2,0,0.3c0,0.2-0.1,0.4-0.2,0.6L653.3,728.5z"/>
	<path class="st0" d="M653.3,728.5l-0.1,0.9c-0.2,0.4-0.7,0.7-1.2,0.7l-48.3,1.1l-77,1.7l-68.8,1.5l0,0l-0.3-0.3
		c0.2-0.2,0.3-0.4,0.4-0.7c0.1-0.7-0.3-1.4-1-1.6h-0.1l42.6-0.9l76.7-1.7c25.3-0.6,50.6-1.1,75.9-1.6l0,0
		C652.6,727.5,653.1,727.9,653.3,728.5z"/>
	<path class="st0" d="M617.7,290.2c0.7,3.4-1.6,6.7-5,7.4c-3.4,0.7-6.7-1.6-7.4-5c-0.7-3.4,1.6-6.7,5-7.4c0,0,0,0,0,0
		C613.7,284.6,617,286.8,617.7,290.2z"/>
	<path class="st0" d="M594.2,707.8c1.2-1.1,2.3-2.4,3.3-3.8c0.9-1.3,1.6-2.8,2.1-4.3c0.5-1.4,0.7-2.9,0.8-4.4c0.1-1.5,0-3-0.3-4.4
		c0-0.1,0-0.1,0-0.2s0,0,0,0c-0.3-1.5-0.8-2.9-1.5-4.2c0,0,0,0,0-0.1l0,0c-0.7-1.3-1.6-2.6-2.6-3.8c-1.1-1.2-2.4-2.3-3.8-3.2
		c-1.5-1-3.1-1.7-4.7-2.3l-0.3-0.1c-1.8-0.6-3.7-0.9-5.5-1.1c-1-0.1-2-0.1-3,0c-1,0.1-2,0.2-3,0.4c-1.8,0.4-3.6,1-5.2,1.8
		c-1.6,0.8-3.1,1.9-4.5,3.1c-1.2,1.1-2.3,2.4-3.2,3.8c-0.8,1.3-1.5,2.7-2,4.1c-0.5,1.5-0.8,3-0.9,4.6c-0.1,1.5,0.1,3.1,0.3,4.6
		c0.3,1.5,0.8,3,1.5,4.3c0.7,1.4,1.6,2.7,2.7,3.9c1.1,1.2,2.4,2.3,3.8,3.2c1.5,1,3.1,1.7,4.7,2.3c1.8,0.6,3.8,1,5.7,1.1
		c2,0.1,4-0.1,5.9-0.4h0.1c1.9-0.4,3.7-1.1,5.4-1.9h0.1l0,0C591.4,710,592.8,709,594.2,707.8L594.2,707.8L594.2,707.8z M602.1,687.9
		c1.9,5.7,1.1,12.1-2.2,17.2c-0.8,1.3-1.7,2.4-2.7,3.5c-1.1,1.1-2.2,2.1-3.5,3c-2.6,1.7-5.4,3-8.5,3.7c-3.2,0.7-6.5,0.8-9.8,0.2
		c-3-0.5-5.9-1.6-8.5-3.2c-1.3-0.8-2.5-1.7-3.6-2.7c-1.1-1-2.1-2.1-2.9-3.4c-1.7-2.5-2.8-5.3-3.3-8.2c-0.5-2.9-0.3-6,0.6-8.8
		c0.9-2.9,2.3-5.5,4.3-7.7c2-2.3,4.5-4.2,7.2-5.5c2.9-1.4,6-2.3,9.1-2.5c0.6,0,1.2-0.1,1.8-0.1c4.5,0,9,1.3,12.8,3.7
		c1.1,0.7,2.1,1.4,3.1,2.3c0.9,0.8,1.7,1.7,2.5,2.6C600.2,683.6,601.3,685.7,602.1,687.9z"/>
	<path class="st3" d="M600.1,690.9c0.3,1.5,0.4,2.9,0.3,4.4c-0.1,1.5-0.4,3-0.8,4.4c-0.5,1.5-1.2,2.9-2.1,4.3
		c-0.9,1.4-2,2.7-3.3,3.8l0,0l0,0c-1.3,1.1-2.8,2.1-4.3,2.9l0,0h-0.1c-1.7,0.9-3.5,1.5-5.4,1.9h-0.1c-2,0.4-3.9,0.5-5.9,0.4
		c-1.9-0.1-3.9-0.5-5.7-1.1c-1.7-0.6-3.3-1.4-4.7-2.3c-1.4-0.9-2.6-2-3.8-3.2c-1-1.2-1.9-2.5-2.7-3.9c-0.7-1.4-1.2-2.8-1.5-4.3
		c-0.3-1.5-0.4-3-0.3-4.6c0.1-1.6,0.4-3.1,0.9-4.6c0.5-1.5,1.2-2.8,2-4.1c0.9-1.4,2-2.6,3.2-3.8c1.4-1.2,2.9-2.2,4.5-3.1
		c1.7-0.8,3.4-1.4,5.2-1.8c1-0.2,2-0.4,3-0.4c1-0.1,2-0.1,3,0c1.9,0.2,3.7,0.5,5.5,1.1l0.1,0.1c1.7,0.6,3.3,1.4,4.7,2.3
		c1.4,0.9,2.7,2,3.8,3.2c1,1.1,1.9,2.4,2.6,3.8l0,0c0,0,0,0,0,0.1c0.7,1.3,1.2,2.8,1.5,4.2l0,0C600,690.6,600.1,690.8,600.1,690.9z"
		/>
	<path class="st0" d="M593.4,292.1c0.7,0,1.3,0.6,1.3,1.3c0,0.7-0.6,1.3-1.3,1.3c0,0,0,0,0,0h-50.5c-0.7,0-1.3-0.6-1.3-1.3
		c0-0.7,0.6-1.3,1.3-1.3c0,0,0,0,0,0H593.4z"/>
	<path class="st0" d="M540.8,886.9c0.9,7.9,1.1,15.9,0.5,23.9v0.1c-0.2,2.1-0.4,4.1-0.7,6.2c0,0.1,0,0.2,0,0.3
		c-0.1,0.4-0.1,0.8-0.2,1.3c-0.1,0.3-0.3,0.6-0.6,0.8c-0.3,0.2-0.7,0.2-1,0.1c-0.3-0.1-0.6-0.3-0.8-0.6c-0.2-0.3-0.2-0.7-0.1-1
		l0.2-1.1l0,0c0,0,0,0,0-0.1l0.1-0.3c0-0.3,0.1-0.6,0.1-0.9c0,0,0-0.1,0-0.1v-0.2c0.2-1.4,0.3-2.7,0.4-4.1l0,0
		c0.7-9.2,0.4-18.4-0.9-27.5c-2.2-15.5-6.4-30.6-12.6-44.9c-5.7-13.6-13.1-26.5-22-38.3c-1.1-1.5-2.3-2.9-3.5-4.3
		c0.2,0,0.3-0.1,0.5-0.2c0.6-0.4,0.8-1.2,0.5-1.8l-0.7-1.1v-0.1l-0.4-0.6l0,0l-0.7-1c0.2,0.1,0.4,0.2,0.6,0.3
		c6.4,7.4,12.1,15.3,17,23.8c8.5,14.6,15.1,30.3,19.6,46.6C538.3,870.2,539.8,878.5,540.8,886.9z"/>
	<path class="st0" d="M500.6,794c0.4,0.6,0.2,1.5-0.5,1.8c-0.1,0.1-0.3,0.1-0.5,0.2c-0.7-0.8-1.4-1.7-2.2-2.5
		c-0.5-0.5-0.5-1.3,0-1.9c0.3-0.2,0.6-0.4,1-0.4c0.1,0,0.2,0,0.3,0l0.7,1l0,0l0.4,0.6v0.1L500.6,794z"/>
	<path class="st0" d="M499.7,796c-0.5,0.1-1.1-0.2-1.3-0.6l-0.8-1.2c-0.2-0.4-0.5-0.7-0.7-1.1l0,0l0,0l0,0c0-0.1,0-0.1-0.1-0.2
		l-0.7-1.1l-1.5-2.2l0,0c-1.8-2.7-3.7-5.5-5.6-8.2v-0.1c-1.5-2.2-3-4.4-4.6-6.6c-9.3-13.3-18.9-26.4-28.8-39.3l0,0l-0.9-1.1v-0.1
		l0,0h0.9l2.4-0.1l0.4,0.6l0,0c1.5,2,3.1,4,4.6,6.1c10,13.1,19.6,26.5,28.9,40.1v0c1.8,2.6,3.5,5.2,5.3,7.8l0.3,0.4l0,0
		c0,0.1,0.1,0.1,0.1,0.2l0,0l0.6,0.9c0.2,0.2,0.3,0.5,0.5,0.7c-0.1,0-0.2,0-0.3,0c-0.4,0-0.7,0.1-1,0.4c-0.5,0.5-0.5,1.3,0,1.9
		C498.2,794.3,498.9,795.2,499.7,796z"/>
	<path class="st0" d="M459.2,571.5c-0.7-3.8-1.5-7.5-2.4-11.3c-1.9-8.1-4.2-16-7-23.9c-2.5-7.4-5.5-14.7-8.8-21.8
		c0.2,0.2,0.5,0.3,0.8,0.3c0.7,0,1.3-0.6,1.3-1.3V513c3,6.3,5.7,12.8,8,19.3c2.8,7.8,5.3,15.7,7.3,23.8c2.1,8,3.7,16.2,4.8,24.4
		c1.1,7.5,1.4,15,0.9,22.5v0.1c0,0.1,0,0.2,0,0.2c0,0,0,0,0,0.1c0,0.2,0,0.4-0.1,0.6c0,0,0,0,0,0.1c0,0,0,0,0,0.1l0,0l0,0
		c0,0.4-0.1,0.8-0.1,1.1c-0.1,0.4-0.4,0.8-0.8,0.9c0-0.1,0-0.1,0-0.2c0-0.1,0,0,0-0.1l0,0c0-0.2,0.1-0.3,0.1-0.5c0,0,0,0,0-0.1
		c0.1-0.4,0.2-0.9,0.3-1.4c0.2-0.7-0.3-1.4-1-1.6c-0.4-0.1-0.7,0-1,0.2l0,0c0,0,0,0,0,0c0,0,0-0.1,0-0.1c0.4-5,0.3-10-0.2-15
		C460.9,582.1,460.2,576.8,459.2,571.5z"/>
	<path class="st0" d="M462.6,602.5c0.7,0.2,1.2,0.9,1,1.6c-0.1,0.4-0.2,0.9-0.3,1.4c0,0,0,0,0,0.1c0,0.2-0.1,0.3-0.1,0.5l0,0
		c0,0,0,0,0,0.1s0,0.1,0,0.2c-0.2,0.1-0.5,0.1-0.8,0.1c-0.3-0.1-0.6-0.3-0.8-0.6c-0.2-0.3-0.3-0.7-0.2-1c0.1-0.4,0.1-0.8,0.2-1.3
		l0.1-0.6c0,0,0-0.1,0-0.1c0,0,0,0,0-0.1l0,0C461.9,602.5,462.2,602.4,462.6,602.5z"/>
	<path class="st0" d="M460,607.3L460,607.3c0.2-0.6,0.4-1.2,0.5-1.8c0,0,0,0,0-0.1c0-0.2,0.1-0.3,0.1-0.5s0-0.1,0-0.1l0,0
		c0.1-0.5,0.2-0.9,0.3-1.4c0.1-0.3,0.3-0.6,0.6-0.8l0,0c0,0,0,0,0,0.1c0,0,0,0.1,0,0.1l-0.1,0.6c0,0.4-0.1,0.9-0.2,1.3
		c-0.1,0.4,0,0.7,0.2,1c0.2,0.3,0.5,0.5,0.8,0.6c0.3,0.1,0.5,0,0.8-0.1c-0.2,0.7-0.4,1.5-0.7,2.2c-0.3,0.8-0.7,1.6-1.1,2.4
		c-0.4,0.7-0.8,1.3-1.4,1.8c-0.7,0.7-1.5,1.2-2.4,1.6c-0.8,0.4-1.8,0.5-2.7,0.5c-0.5,0-1-0.1-1.6-0.2c-0.2-0.1-0.5-0.1-0.7-0.2
		c-0.2-0.1-0.4-0.1-0.6-0.2c-0.8-0.3-1.6-0.7-2.3-1.2c-1.5-1.1-3-2.3-4.3-3.7c-2.6-2.9-5-6.1-7.1-9.4c-2.2-3.4-4.1-6.9-5.9-10.5
		c-0.2-0.3-0.3-0.7-0.2-1c0,0,0,0,0,0c0.1,0.2,0.3,0.5,0.4,0.7l0,0l0.3,0.6c0,0,0,0,0,0.1c0,0.1,0.1,0.2,0.2,0.3l0.2,0.3
		c0.4,0.6,1.2,0.8,1.8,0.4c0.3-0.2,0.4-0.4,0.5-0.7c1.3,2.5,2.7,5,4.2,7.4c1.8,2.9,3.8,5.7,5.9,8.3c1.5,1.8,3.2,3.4,5.1,4.8
		c0.8,0.5,1.6,1,2.4,1.3c0.5,0.2,1,0.3,1.5,0.3c0.4,0,0.7,0,1.1,0c0.3-0.1,0.7-0.2,1-0.3c0.3-0.2,0.6-0.4,0.9-0.6
		c0.4-0.4,0.8-0.8,1.1-1.2C459.2,609.1,459.7,608.2,460,607.3z"/>
	<path class="st6" d="M461.4,587.4c0.5,5,0.6,10,0.2,15c0,0,0,0.1,0,0.1c0,0,0,0,0,0l0,0c-0.3,0.2-0.5,0.5-0.6,0.8
		c-0.1,0.5-0.2,0.9-0.3,1.4l0,0c0,0,0,0.1,0,0.1c0,0-0.1,0.3-0.1,0.5c0,0,0,0,0,0.1c-0.2,0.6-0.3,1.2-0.5,1.8l0,0
		c-0.4,0.9-0.8,1.8-1.3,2.7c-0.3,0.4-0.7,0.8-1.1,1.2c-0.3,0.2-0.6,0.4-0.9,0.6c-0.3,0.1-0.6,0.2-1,0.3c-0.4,0-0.7,0.1-1.1,0
		c-0.5-0.1-1-0.2-1.5-0.3c-0.9-0.3-1.7-0.8-2.4-1.3c-1.9-1.4-3.6-3-5.1-4.8c-2.2-2.6-4.2-5.4-5.9-8.3c-1.5-2.4-2.9-4.9-4.2-7.4
		c0.1-0.4,0.1-0.8-0.1-1.2c-0.1-0.2-0.2-0.4-0.3-0.6c0,0,0-0.1,0-0.1c-0.1-0.2-0.2-0.3-0.3-0.5l-0.6-1l0,0l-0.1-0.1
		c0-0.1-0.1-0.2-0.1-0.2c0-0.1,0,0,0,0c-1.1-1.9-2.2-3.9-3.2-5.9l0,0c-3.9-7.1-7.6-14.2-11.2-21.4c-0.9-1.8-1.8-3.7-2.7-5.6
		c-0.4-0.9-0.9-1.8-1.3-2.7c-0.2-0.4-0.4-0.9-0.6-1.3c-0.1-0.1-0.1-0.3-0.2-0.5l-0.2-0.4l-0.4-0.9c-0.9-1.9-1.8-3.9-2.7-5.8
		c-3.6-7.7-7.1-15.5-10.3-23.4c-0.1-0.2-0.2-0.4-0.3-0.5c-1.3-3.2-2.2-6.4-2.9-9.8l0,0c0-0.1,0-0.1,0-0.2c-0.6-3.2-0.8-6.5-0.6-9.8
		c0.2-2.2,0.6-4.4,1.4-6.5c0.5-1.3,1.1-2.5,1.9-3.7c0.6-0.8,1.3-1.6,2.1-2.3c0.7-0.6,1.5-1.1,2.4-1.5h0c0.1,0,0.2,0.1,0.3,0.1
		c0.3,0.1,0.7,0,1-0.2c2.4-1.3,4.9-2.6,7.5-3.8c6.6-3.2,13.3-6.1,20.2-8.7c0.9-0.4,1.8-0.7,2.7-1l0,0l0.2-0.1l1.1-0.4h0.1l0.3-0.1
		l0.9-0.3c0.5-0.2,0.9-0.7,0.9-1.3h0.9v4.7c0,3.6,0,7.1-0.1,10.6c0,0.3,0,0.6,0,0.8v0.1v4.6c0,6.1-0.1,12.3-0.1,18.4
		c-2.5-4.8-5.3-9.5-8.5-13.8c-0.2-0.3-0.5-0.5-0.8-0.6c-0.1,0-0.2,0-0.3,0c-0.3,0-0.5,0.1-0.7,0.2c-0.6,0.4-0.8,1.2-0.4,1.8
		c4,5.7,7.5,11.7,10.4,18l0.1,0.2l0,0c0,0.4,0.2,0.8,0.5,1c3.3,7.1,6.3,14.4,8.8,21.8c2.7,7.8,5,15.8,7,23.9
		c0.9,3.7,1.7,7.5,2.4,11.3C460.2,576.8,460.9,582.1,461.4,587.4z"/>
	<path class="st0" d="M459.6,271.5c-0.3,0-0.6,0-0.8,0.1c-0.6-0.1-1-0.7-1-1.3c0-0.7,0.6-1.3,1.3-1.3h1.7c0.2,0.1,0.3,0.2,0.4,0.3
		c0.2,0.3,0.3,0.6,0.3,1c0,0.4-0.2,0.7-0.5,0.9c-0.3,0.2-0.6,0.3-1,0.3L459.6,271.5L459.6,271.5z"/>
	<path class="st0" d="M460.7,268.9h-1.7c-0.7,0-1.3,0.6-1.3,1.3c0,0.6,0.4,1.2,1,1.3c-1.1,0.1-2.2,0.4-3.3,0.7
		c-1.3,0.5-2.6,1.1-3.7,1.8c-1.1,0.8-2.2,1.7-3.1,2.6c-0.9,1.1-1.7,2.2-2.4,3.5c-0.6,1.2-1.1,2.5-1.4,3.9c0,0,0,0,0,0.1
		c0,0.1,0,0.1,0,0.2c0,0.1,0,0.2-0.1,0.3c-0.1-0.2-0.1-0.3-0.2-0.4c-0.2-0.3-0.6-0.4-0.9-0.5h-0.1c-0.7,0-1.3,0.5-1.4,1.2v0.6
		c0,0,0,0,0,0v1.2c-0.2-0.2-0.3-0.6-0.3-0.9c0.5-6.3,4.1-11.9,9.7-14.9c1-0.5,2-1,3-1.3c1.8-0.6,3.7-0.9,5.6-0.9l0,0
		C460.4,268.8,460.6,268.8,460.7,268.9z"/>
	<path class="st0" d="M446.7,651.7c1,0.7,2.1,1.3,3.2,1.8c0.5,0.2,1.1,0.3,1.7,0.4c0.3,0,0.7,0,1,0c0.2-0.1,0.5-0.1,0.7-0.2
		c0.2-0.1,0.5-0.3,0.7-0.4c0.2-0.2,0.4-0.4,0.6-0.7c0.3-0.4,0.5-0.9,0.7-1.4c0.4-1.2,0.6-2.4,0.7-3.6c0.2-3.4-0.1-6.7-0.7-10.1l0,0
		c-0.1-0.4-0.1-0.7-0.2-1.1c0,0,0,0,0-0.1c-0.1-0.3-0.1-0.5-0.2-0.8c0.2,0.1,0.5,0.2,0.7,0.2c0.4,0,0.7-0.2,0.9-0.4
		c0.2-0.2,0.4-0.6,0.3-0.9c-0.1-0.4-0.1-0.8-0.2-1.2c0.3,0.2,0.5,0.4,0.5,0.7l0.1,0.6c0,0,0,0.1,0,0.1c0.1,0.4,0.2,0.8,0.2,1.2
		c0,0,0,0.1,0,0.1c0.6,3,1,6,1.1,9.1c0.1,1.7-0.1,3.5-0.4,5.2c-0.2,1.6-0.9,3-1.8,4.3c-0.6,0.7-1.3,1.3-2.2,1.7
		c-0.7,0.3-1.5,0.5-2.3,0.5c-0.8,0-1.5-0.1-2.2-0.3c-0.8-0.2-1.5-0.6-2.2-0.9c-2.1-1.1-4-2.5-5.7-4.1l0,0c-0.1-0.2-0.1-0.4-0.2-0.6
		c0.3-0.1,0.6-0.2,0.8-0.4c0.2-0.2,0.3-0.6,0.3-0.9c0-0.3-0.2-0.7-0.4-0.9l-0.1-0.2l-0.3-0.4c-0.2-0.2-0.4-0.4-0.5-0.6
		c0.1,0.1,0.3,0.1,0.4,0.2c0.2,0.2,0.3,0.3,0.5,0.5c0,0,0,0,0,0C443.7,649.3,445.2,650.5,446.7,651.7z"/>
	<path class="st0" d="M457,731.7c0.7,0.2,1.2,0.8,1,1.6c-0.1,0.3-0.2,0.5-0.4,0.7l-0.8-1c-0.1-0.1-0.1-0.2-0.2-0.2l-0.2-0.2
		c-0.2-0.2-0.6-0.4-0.9-0.4c-0.3,0-0.7,0.1-0.9,0.4c-0.2,0.2-0.4,0.6-0.4,0.9c0,0.1,0,0.2,0.1,0.3c-0.2-0.1-0.5-0.2-0.7-0.3
		c-0.1-0.1-0.1-0.3-0.1-0.5c0-0.7,0.6-1.3,1.4-1.3h0.8H457L457,731.7z"/>
	<path class="st0" d="M457.9,734.3L457.9,734.3l-2.4,0.1h-0.9l0,0c-0.1-0.2-0.3-0.4-0.3-0.6c0.5,0.2,1.1,0.3,1.6,0.5h0.1l0,0h0.2
		h0.1h0.1c0.4,0.1,0.9-0.1,1.2-0.4L457.9,734.3z"/>
	<path class="st0" d="M456.9,732.9l0.8,1c-0.3,0.3-0.8,0.5-1.2,0.4h-0.1h-0.1h-0.2l0,0H456c-0.5-0.1-1.1-0.3-1.6-0.5
		c0-0.1-0.1-0.2-0.1-0.3c0-0.3,0.1-0.7,0.4-0.9c0.2-0.2,0.6-0.4,0.9-0.4c0.3,0,0.7,0.1,0.9,0.4l0.2,0.2
		C456.8,732.8,456.8,732.9,456.9,732.9z"/>
	<path class="st0" d="M456.9,634.3c0,0.3-0.1,0.7-0.3,0.9c-0.2,0.3-0.6,0.4-0.9,0.4c-0.3,0-0.5-0.1-0.7-0.2c0-0.1,0-0.1,0-0.2l0,0
		l-0.1-0.6c0-0.1-0.1-0.3-0.1-0.5c0-0.2,0.1-0.4,0.1-0.6c0.2-0.3,0.4-0.5,0.8-0.6c0.1,0,0.3-0.1,0.4-0.1c0.2,0,0.4,0.1,0.6,0.1
		l0.1,0.1C456.8,633.5,456.9,633.9,456.9,634.3z"/>
	<path class="st0" d="M456.9,731.7h-1.2h-0.8c-0.7,0-1.3,0.6-1.4,1.3c0,0.2,0,0.3,0.1,0.5c-2.4-0.9-4.6-2.3-6.5-4
		c-2.6-2.3-4.8-5-6.6-8c-2-3.3-3.5-6.9-4.6-10.6c-1-3.3-1.5-6.7-1.7-10.1c0.4,0.2,0.8,0.5,1.2,0.7c0.5,0.3,1,0.5,1.6,0.7
		c0.1,1.6,0.4,3.1,0.7,4.7c0.8,3.8,2.1,7.4,3.8,10.9c1.4,2.6,3,5.1,5,7.3c1.4,1.6,3,3,4.8,4.2c1.2,0.8,2.5,1.4,3.8,1.9
		c0.5,0.2,1,0.3,1.5,0.4l0,0L456.9,731.7z"/>
	<path class="st0" d="M456.7,633.1l-0.1-0.1c-0.2-0.1-0.4-0.1-0.6-0.1c-0.1,0-0.3,0-0.4,0.1c-0.3,0.1-0.6,0.3-0.8,0.6
		c-0.1,0.2-0.1,0.4-0.1,0.6c0,0.2,0,0.3,0.1,0.5l0.1,0.6l0,0c0,0.1,0,0.1,0,0.2c-0.1,0-0.1-0.1-0.2-0.2c-0.3-0.2-0.4-0.6-0.4-0.9
		c-0.1-0.6-0.2-1.3-0.3-2v-0.1l0,0c-0.7-3.6-1.6-7.2-2.6-10.7c0.2,0.7,1,1.1,1.7,0.8c0.7-0.2,1-0.9,0.9-1.6
		C455,624.8,456,628.9,456.7,633.1z"/>
	<path class="st6" d="M455.3,637.4c0.7,3.3,0.9,6.7,0.7,10.1c-0.1,1.2-0.3,2.4-0.7,3.6c-0.2,0.5-0.4,1-0.7,1.4
		c-0.2,0.2-0.4,0.5-0.6,0.7c-0.2,0.2-0.4,0.3-0.7,0.4c-0.2,0.1-0.5,0.2-0.7,0.2c-0.3,0-0.7,0.1-1,0c-0.6-0.1-1.1-0.2-1.7-0.4
		c-1.1-0.5-2.2-1.1-3.2-1.8c-1.6-1.1-3.1-2.4-4.5-3.8c0,0,0,0,0,0c-0.2-0.2-0.3-0.4-0.5-0.5c-0.1-0.1-0.2-0.2-0.4-0.2l-1.3-1.5
		l-0.5-0.6l0,0l-0.5-0.6c-0.1-0.1-0.1-0.2-0.2-0.2c0-0.1-0.1-0.1-0.2-0.2l0,0l-0.1-0.2c-5.1-6.1-9.8-12.4-14.3-19l0,0
		c-6.4-9.4-12.1-19.2-17-29.4l-0.1-0.2l0,0c-0.8-1.7-1.6-3.3-2.3-5c0.1-0.3,0.1-0.6,0-0.9l-0.1-0.3c0,0,0,0,0,0
		c-3.4-7-5.9-14.5-7.5-22.1l0,0v-0.1v-0.1c-0.7-3.7-1-7.5-0.7-11.3c0.1-1.6,0.4-3.1,0.9-4.6v-0.1c0.3-0.8,0.7-1.6,1.2-2.3
		c0.3-0.4,0.7-0.8,1.1-1.2c0.4-0.3,0.7-0.5,1.2-0.7c0.4-0.2,0.9-0.3,1.3-0.4c0.6-0.1,1.2-0.1,1.8-0.1h0.1c0.4,0,0.8,0.1,1.2,0.2h0.1
		l0.3,0.1l0,0c0.3,0.1,0.6,0.2,0.9,0.3l0,0h0l0.1,0.1h0.1l0.3,0.1c0.3,0.2,0.7,0.2,1,0.1c0.3-0.1,0.6-0.3,0.8-0.6
		c0.2-0.4,0.2-0.8,0-1.2l0.8-0.4c0.9,1.8,1.7,3.6,2.6,5.4l0,0.1c2.4,5,4.9,10,7.4,14.9c3,5.8,6,11.6,9.1,17.3l0,0c1,1.8,2,3.7,3,5.5
		c0,0,0,0,0,0.1c0.1,0.2,0.2,0.4,0.3,0.6c0,0,0,0,0,0c-0.1,0.3,0,0.7,0.2,1c1.8,3.6,3.8,7.1,5.9,10.5c2.1,3.3,4.5,6.5,7.2,9.4
		c1.3,1.4,2.7,2.6,4.3,3.7c0.7,0.5,1.5,0.9,2.3,1.2c0.2,0.1,0.4,0.2,0.6,0.2l-0.6,1.6c-0.2-0.2-0.5-0.2-0.8-0.2
		c-0.1,0-0.3,0-0.4,0.1c-0.7,0.2-1.1,1-0.8,1.7c0.4,1.1,0.7,2.1,1,3.2c0.1,0.3,0.2,0.6,0.3,1c1.1,3.5,1.9,7.1,2.6,10.7l0,0v0.1
		c0.1,0.6,0.2,1.3,0.3,2c0,0.3,0.2,0.7,0.4,0.9c0.1,0.1,0.1,0.1,0.2,0.2c0.1,0.3,0.1,0.5,0.2,0.8c0,0,0,0,0,0.1
		c0.1,0.4,0.1,0.7,0.2,1.1L455.3,637.4z"/>
	<path class="st0" d="M454.7,734.3L454.7,734.3c-0.5-0.1-0.9-0.4-1.1-0.9c0.2,0.1,0.5,0.2,0.7,0.3
		C454.4,733.9,454.5,734.1,454.7,734.3z"/>
	<path class="st0" d="M453.8,620.8c0.2,0.7-0.2,1.4-0.9,1.6c-0.7,0.2-1.4-0.2-1.7-0.8c-0.1-0.3-0.2-0.6-0.3-1
		c-0.2-0.7,0.2-1.4,0.8-1.7c0.1,0,0.3-0.1,0.4-0.1c0.5,0,1,0.3,1.2,0.8C453.6,620.1,453.7,620.4,453.8,620.8z"/>
	<path class="st0" d="M453.8,620.8C453.8,620.8,453.8,620.8,453.8,620.8c-0.1-0.3-0.2-0.7-0.3-1.1c0,0,0,0.1,0,0.1
		C453.6,620.1,453.7,620.4,453.8,620.8z"/>
	<path class="st0" d="M452.5,616.6c0.3,1,0.7,2.1,1,3.1c-0.2-0.5-0.7-0.8-1.2-0.8c-0.1,0-0.3,0-0.4,0.1c-0.7,0.2-1.1,1-0.8,1.7
		c-0.3-1.1-0.7-2.1-1-3.2c-0.2-0.7,0.2-1.4,0.8-1.7c0.1,0,0.3-0.1,0.4-0.1c0.3,0,0.6,0.1,0.8,0.2
		C452.2,616.1,452.4,616.3,452.5,616.6z"/>
	<path class="st0" d="M446.9,675.6c0.3,3.4,0.4,6.9,0.2,10.3c-0.2,3.1-0.7,6.2-1.5,9.1c0-0.1,0-0.1,0-0.2c0.1-0.4,0-0.7-0.2-1
		c-0.2-0.3-0.5-0.5-0.8-0.6c-0.6-0.1-1.1,0.1-1.4,0.6c0.6-2.2,1-4.5,1.2-6.8c0.4-6.5,0-13-1.1-19.4c0.2,0.2,0.5,0.3,0.8,0.3h1.9
		C446.4,670.5,446.7,673.1,446.9,675.6z"/>
	<path class="st0" d="M443,666.2c0,0,0-0.1,0-0.1c0.2-0.4,0.7-0.7,1.2-0.7h1.4c0.2,0.9,0.3,1.8,0.5,2.6h-1.9c-0.3,0-0.6-0.1-0.8-0.3
		L443,666.2z"/>
	<path class="st0" d="M445.4,693.8c0.2,0.3,0.3,0.7,0.2,1c0,0.1,0,0.1,0,0.2c-0.1,0.3-0.2,0.6-0.3,1c-0.1,0.3-0.3,0.6-0.6,0.8
		c-0.6,0.4-1.4,0.2-1.8-0.4c0,0,0,0,0,0c-0.1-0.1-0.1-0.2-0.2-0.4c0.1-0.5,0.2-1,0.3-1.6c0.1-0.2,0.1-0.4,0.2-0.6
		c0.3-0.5,0.9-0.7,1.4-0.6C445,693.3,445.3,693.6,445.4,693.8z"/>
	<path class="st0" d="M445.3,696c0.1-0.3,0.2-0.6,0.3-1c-0.1,1-0.4,2.1-0.7,3.1c-0.4,1.2-1.1,2.3-2,3.2c-0.5,0.5-1.2,0.9-1.9,1.1
		c-0.6,0.2-1.3,0.2-2,0.2c-0.7-0.1-1.4-0.2-2.1-0.5c-0.1-0.9-0.1-1.9-0.2-2.9c0,0,0-0.1,0-0.1c0.3,0.2,0.7,0.3,1.1,0.5
		c0.4,0.1,0.9,0.2,1.3,0.3c0.3,0,0.6,0,0.8,0l0.6-0.2c0.2-0.1,0.4-0.2,0.6-0.4c0.2-0.2,0.4-0.4,0.6-0.7c0.3-0.4,0.5-0.9,0.7-1.4
		c0.1-0.4,0.3-0.8,0.4-1.3c0,0.1,0.1,0.3,0.2,0.4c0.4,0.6,1.2,0.8,1.8,0.4c0,0,0,0,0,0C445,696.7,445.2,696.4,445.3,696z"/>
	<path class="st0" d="M443,654.9c1,3.4,1.8,6.9,2.5,10.5h-1.4c-0.5,0-1,0.3-1.2,0.7c-0.7-3.5-1.5-7-2.5-10.4c0,0,0,0,0-0.1
		c-0.1-0.4-0.2-0.8-0.3-1.2c0-0.1,0-0.2-0.1-0.3l0,0l-0.1-0.3l0,0c0,0,0-0.1,0-0.1c0,0,0-0.1,0-0.1c0,0,0-0.1,0-0.1l0,0
		c-0.1-0.2-0.1-0.4-0.2-0.6v-0.1l0,0c0-0.1,0-0.1-0.1-0.2v-0.1l-0.1-0.4c0,0,0,0,0-0.1c-0.1-0.2-0.1-0.5-0.2-0.7
		c-0.2-0.7,0.2-1.4,0.8-1.7h0.1l0.2,0.2c0.1,0.1,0.3,0.3,0.4,0.4c0.2,0.2,0.4,0.3,0.6,0.3c0.2,0.2,0.5,0.4,0.7,0.6l0.1,0.3l0.1,0.3
		c0,0,0,0.1,0,0.1c0,0,0,0,0,0l0.3,1l0,0l0,0c0,0.1,0,0.1,0.1,0.2v0.1l0,0l0.1,0.3c0.1,0.4,0.2,0.7,0.3,1.1
		C443.1,654.7,443.1,654.8,443,654.9C443,654.8,443,654.9,443,654.9z"/>
	<path class="st0" d="M444.8,285.2L444.8,285.2c0,1,0,2.1,0,3.1c0,6.1,0,12.2-0.1,18.3h-0.9c-0.4,0-0.8,0.2-1,0.5
		c-0.2,0.1-0.4,0.2-0.6,0.4c-0.1-0.2-0.1-0.3-0.1-0.5c0-6.3,0-12.6,0.1-18.8c0-0.5,0-0.9,0-1.3c0.2,0.3,0.5,0.5,0.9,0.6
		c0.7,0,1.4-0.5,1.4-1.2c0-0.5,0.1-1,0.2-1.5c0.1,0.2,0.1,0.3,0.1,0.5L444.8,285.2z"/>
	<path class="st0" d="M444.8,284.6L444.8,284.6c-0.1,0.5-0.2,1-0.2,1.5c-0.1,0.7-0.7,1.3-1.4,1.2c-0.4,0-0.7-0.3-0.9-0.6v-1.3
		c0,0,0,0,0,0v-0.5c0-0.7,0.6-1.2,1.3-1.2h0.1c0.4,0,0.7,0.2,0.9,0.5C444.7,284.3,444.7,284.4,444.8,284.6z"/>
	<path class="st0" d="M444.8,306.6v0.5c0,0.3-0.1,0.6-0.4,0.8c-0.2-0.5-0.7-0.9-1.3-0.9c-0.1,0-0.2,0-0.3,0c0.2-0.3,0.6-0.5,1-0.5
		L444.8,306.6z"/>
	<path class="st6" d="M443.3,667.7c1.2,6.4,1.5,12.9,1.1,19.4c-0.2,2.3-0.6,4.6-1.2,6.8c-0.1,0.1-0.1,0.3-0.2,0.4c0,0.1,0,0.2,0,0.2
		c-0.1,0.3-0.2,0.6-0.3,0.9c-0.1,0.2-0.1,0.4,0,0.6c-0.1,0.4-0.2,0.8-0.4,1.3c-0.2,0.5-0.4,0.9-0.7,1.4c-0.2,0.2-0.4,0.5-0.6,0.7
		c-0.2,0.1-0.4,0.2-0.6,0.4l-0.6,0.2c-0.3,0-0.6,0-0.8,0c-0.4-0.1-0.9-0.2-1.3-0.3c-0.4-0.1-0.7-0.3-1.1-0.5
		c-0.1-0.6-0.7-1.1-1.3-1.1h-0.1c-0.1,0-0.2,0-0.3,0.1c-2.4-1.8-4.6-3.9-6.5-6.2c-3.6-4.3-6.8-8.9-9.7-13.8c-2.9-4.9-5.6-9.9-8.1-15
		l-0.1-0.2v-0.1c-3.4-7-6.4-14.2-9-21.5c-2.6-7-4.6-14.3-6-21.6l-0.1-0.3c-0.1-0.3-0.1-0.7-0.2-1c0-0.1-0.1-0.3-0.1-0.4
		c0-0.1,0-0.1,0-0.2c-0.7-3.8-1-7.7-0.8-11.6l0,0c0.1-0.8,0.2-1.6,0.3-2.4l0,0c0-0.1,0.1-0.3,0.1-0.4s0,0,0,0c0,0,0-0.1,0-0.1
		c0.3-0.2,0.5-0.5,0.6-0.8c0.2-0.7,0.3-1.4,0.6-2.1c0.3-0.8,0.7-1.5,1.2-2.3c0.3-0.5,0.7-0.9,1.1-1.3c0.4-0.3,0.8-0.6,1.2-0.8
		c0.4-0.2,0.9-0.3,1.3-0.4c0.6-0.1,1.2-0.1,1.8-0.1h0.1c0.4,0.1,0.8,0.1,1.2,0.2c0.1,0,0.2,0,0.3,0c5.1,10.6,11,20.7,17.6,30.4
		c0,0,0,0,0.1,0.1c4.4,6.4,9,12.7,14,18.7l0,0l0.4,0.5l0,0c0.1,0.1,0.2,0.2,0.3,0.3l0,0l0,0l0.2,0.2l0,0l0.2,0.3l0.1,0.1l0,0
		c0.8,1,1.7,2,2.6,3h-0.1c-0.7,0.2-1.1,1-0.8,1.7c0.1,0.2,0.2,0.5,0.2,0.7c0,0,0,0,0,0.1l0.1,0.4v0.1c0,0.1,0,0.1,0.1,0.2l0,0v0.1
		c0.1,0.2,0.1,0.4,0.2,0.6l0,0c0,0,0,0.1,0,0.1c0,0,0,0.1,0,0.1c0,0,0,0.1,0,0.1c0,0,0,0,0,0l0.1,0.3l0,0c0,0.1,0,0.2,0.1,0.3
		c0.1,0.4,0.2,0.8,0.3,1.2c0,0,0,0,0,0.1c1,3.4,1.8,6.9,2.5,10.4c-0.1,0.2-0.2,0.4-0.2,0.6C442.4,666.9,442.7,667.5,443.3,667.7z"/>
	<path class="st0" d="M444.4,308c0.1,0.1,0.1,0.3,0.1,0.4c0,0.3,0,0.6,0,0.9h-0.6c-0.7,0-1.3-0.6-1.3-1.3
		C443,308.5,443.8,308.5,444.4,308C444.4,308,444.4,308,444.4,308L444.4,308z"/>
	<path class="st0" d="M444.5,309.3c0,4.7-0.1,9.4-0.1,14.1l-0.1,15.1c-0.1-0.1-0.1-0.2-0.2-0.3l-1.9-2.4l-0.3-0.3l0-0.1l-0.2-0.2
		l0.2-26.8c0-0.3,0.1-0.7,0.4-0.9c0,0.2,0.1,0.3,0.2,0.4c0,0,0,0,0.1,0.1c0,0.7,0.6,1.3,1.3,1.3L444.5,309.3z"/>
	<path class="st0" d="M444.3,338.4c0.1,0.2,0.2,0.4,0.2,0.7c0,0.3-0.1,0.5-0.2,0.7C444.3,339.4,444.3,338.9,444.3,338.4z"/>
	<path class="st0" d="M444.3,338.4c0,0.5,0,0.9,0,1.4c-0.1,0.1-0.1,0.2-0.2,0.2c-0.5,0.5-1.4,0.5-1.9,0c-0.2-0.2-0.4-0.5-0.6-0.7
		c0-1.4,0-2.7,0-4.1l0.2,0.2l0,0.1l0.3,0.3l1.9,2.4C444.2,338.3,444.2,338.4,444.3,338.4z"/>
	<path class="st0" d="M444.3,339.8c0,1.8,0,3.7,0,5.6c-0.1,15.2-0.2,30.4-0.3,45.5c-0.1,10.8-0.1,21.7-0.2,32.5
		c0,4.9,0,9.8-0.1,14.7h-0.6c0-0.2-0.1-0.5-0.2-0.7c-0.6-1-1.2-2-1.8-3l0.1-19.1c0.1-11,0.1-22.1,0.2-33.1l0.1-19.1
		c0.1-7.9,0.1-15.8,0.1-23.8c0.2,0.2,0.4,0.5,0.6,0.7c0.5,0.5,1.4,0.5,1.9,0C444.2,340,444.2,339.9,444.3,339.8z"/>
	<path class="st0" d="M444.4,308c-0.5,0.5-1.3,0.5-1.9,0c0,0,0,0,0,0l0,0c-0.2-0.3-0.1-0.7,0.2-0.8c0.1-0.1,0.3-0.1,0.4-0.1
		C443.7,307.1,444.2,307.4,444.4,308z"/>
	<path class="st0" d="M443.7,438.1c-0.1,13.4-0.2,26.8-0.2,40.3v4.5l0,0c0,0.8,0,1.6,0,2.3c0,6.6-0.1,13.2-0.1,19.8l0,0l-0.1,7.9
		c-0.6-1.2-1.2-2.4-1.8-3.7c-0.3-0.5-0.5-1.1-0.8-1.6c0-6.1,0-12.3,0.1-18.4v-4.6v-0.1c0-0.3,0-0.6,0-0.8c0-3.6,0-7.1,0.1-10.6v-4.7
		l0.1-8.1c0-3.9,0-7.8,0.1-11.8c0-3.1,0-6.3,0.1-9.4c0.4,0.3,1,0.3,1.4,0c0.4-0.2,0.7-0.7,0.7-1.2L443.7,438.1z"/>
	<path class="st0" d="M443,666.2l0.3,1.5c-0.3-0.3-0.5-0.6-0.5-1c0-0.2,0.1-0.4,0.2-0.6C443,666.1,443,666.2,443,666.2z"/>
	<path class="st0" d="M443.2,513v0.6c0,0.7-0.6,1.3-1.3,1.3c-0.3,0-0.6-0.1-0.8-0.3c-0.1-0.3-0.3-0.6-0.4-0.9c0,0,0-0.1-0.1-0.1
		c0-0.3,0-0.5,0-0.8v-0.1v-4.9c0.3,0.5,0.6,1.1,0.8,1.6C442,510.6,442.6,511.8,443.2,513z"/>
	<path class="st0" d="M443,694.3c0-0.1,0.1-0.3,0.2-0.4c-0.1,0.2-0.1,0.4-0.2,0.6C443,694.4,443,694.3,443,694.3z"/>
	<path class="st0" d="M442.7,695.4c0.1-0.3,0.2-0.6,0.3-0.9c-0.1,0.5-0.2,1.1-0.3,1.6C442.6,695.9,442.6,695.7,442.7,695.4z"/>
	<path class="st0" d="M442.8,437.4c0.1,0.2,0.2,0.4,0.2,0.7c0,0.5-0.3,0.9-0.7,1.2c-0.4,0.3-1,0.3-1.4,0c0-1.6,0-3.2,0-4.8
		C441.6,435.4,442.3,436.4,442.8,437.4z"/>
	<path class="st0" d="M442.8,649.1c0,0.3-0.1,0.7-0.3,0.9c-0.2,0.2-0.5,0.4-0.8,0.4c0,0,0-0.1,0-0.1c-0.2-0.5-0.7-0.9-1.3-0.9h-0.2
		l-0.2-0.2c-0.5-0.5-0.6-1.3-0.1-1.9c0.4-0.4,1-0.5,1.5-0.3c0.2,0.2,0.3,0.4,0.5,0.6l0.3,0.4l0.1,0.2
		C442.6,648.4,442.8,648.7,442.8,649.1z"/>
	<path class="st0" d="M442.8,307.1c-0.2,0.2-0.3,0.5-0.3,0.8l0,0c0,0,0,0-0.1-0.1c-0.1-0.1-0.2-0.3-0.2-0.4
		C442.4,307.3,442.6,307.2,442.8,307.1z"/>
	<path class="st0" d="M441.9,651.1L441.9,651.1c-0.2-0.2-0.5-0.4-0.7-0.6c0.1,0,0.2,0,0.4,0h0.1
		C441.7,650.7,441.8,650.9,441.9,651.1z"/>
	<path class="st0" d="M441.6,650.3c0,0,0,0.1,0,0.1h-0.1c-0.1,0-0.2,0-0.4,0l-0.7-0.6l-0.1,0l-0.3-0.3h0.2
		C440.9,649.5,441.4,649.8,441.6,650.3z"/>
	<path class="st0" d="M441.6,335.2c0,1.4,0,2.7,0,4.1c-0.3-0.4-0.6-0.7-0.9-1.1l0,0c-0.2-0.2-0.3-0.4-0.5-0.6l-0.2-0.2l0,0l-0.2-0.3
		c-0.1-0.1-0.2-0.2-0.3-0.4c-2.2-2.6-4.4-5.2-6.6-7.8v-0.1c-0.2-0.3-0.5-0.6-0.8-0.9l0,0c-2.4-2.9-4.9-5.8-7.4-8.7
		c-10.6-12.2-21.4-24.1-32.9-35.4h0c0.3,0,0.7-0.1,0.9-0.4c0.2-0.2,0.4-0.6,0.4-0.9c0-0.3-0.1-0.7-0.4-0.9l-1-0.8c0.1,0,0.1,0,0.2,0
		c0.3,0,0.7,0.1,0.9,0.4c2.9,2.9,5.8,5.8,8.7,8.7c11.3,11.7,22.1,23.8,32.6,36.2l0.3,0.4l0,0c0.1,0.1,0.2,0.3,0.4,0.4v0
		c2.2,2.6,4.3,5.1,6.4,7.7l0,0C441.4,334.9,441.5,335.1,441.6,335.2z"/>
	<path class="st6" d="M441.6,339.3c0,7.9-0.1,15.8-0.1,23.8l-0.1,19.1c-0.1,11-0.1,22-0.2,33.1l-0.1,19.1c-0.6-1-1.2-1.9-1.8-2.9
		l0,0c-0.1-0.2-0.3-0.4-0.4-0.6v-0.1c-0.1-0.1-0.1-0.2-0.2-0.3v-0.1c-0.1-0.2-0.2-0.3-0.3-0.5s-0.1-0.3-0.2-0.4
		c-6.6-10.9-12.9-22-19.1-33.1c-9.2-16.7,0,0,0,0l0,0c-8.9-16.1-17.4-32.4-25.5-48.9c-4-8.3-7.9-16.6-11.7-25
		c-0.9-2.1-1.8-4.1-2.7-6.2c-0.5-1-0.9-2.1-1.4-3.1c-0.2-0.5-0.4-1-0.7-1.6l-0.3-0.8c0-0.1-0.1-0.2-0.1-0.3l-0.4-1
		c-0.8-2-1.6-4-2.5-6c-1.4-3.6-2.8-7.1-4.2-10.7c-0.1-0.2-0.1-0.3-0.3-0.5c0-0.2-0.1-0.4-0.1-0.7l0,0c-0.4-2.9-0.5-5.9-0.2-8.9
		c0.2-1.2,0.4-2.3,0.9-3.4c0.3-0.6,0.6-1.2,1-1.7c0.3-0.3,0.6-0.6,0.9-0.9c0.4-0.3,0.7-0.5,1.1-0.7c0.5-0.2,0.9-0.3,1.4-0.4
		c0.7-0.1,1.5-0.1,2.2,0c1.4,0.2,2.8,0.6,4.1,1.2c3.3,1.5,6.4,3.5,9.3,5.7l0.1,0.1l0.7,0.6c0.3,0.2,0.6,0.4,0.9,0.4
		c11.5,11.3,22.3,23.2,32.9,35.4c2.5,2.9,5,5.8,7.4,8.7l0,0c0.3,0.3,0.5,0.6,0.8,0.9v0.1c2.2,2.6,4.4,5.2,6.6,7.8
		c0.1,0.1,0.2,0.2,0.3,0.4l0.2,0.3l0,0l0.2,0.2c0.2,0.2,0.3,0.4,0.5,0.6l0,0C441,338.6,441.3,339,441.6,339.3z"/>
	<path class="st0" d="M440.1,645.6l1.3,1.4c-0.5-0.2-1.1-0.1-1.5,0.3c-0.5,0.5-0.4,1.4,0.1,1.9l0.2,0.2H440c-0.9-1-1.8-2-2.6-3l0,0
		l-0.1-0.1l-0.2-0.3l0,0l-0.2-0.2l0,0l0,0c-0.1-0.1-0.2-0.2-0.3-0.3l0,0l-0.4-0.5l0,0c-5-6-9.6-12.2-14-18.7c0,0,0,0-0.1-0.1
		c-6.6-9.7-12.5-19.9-17.7-30.6c0.7,0,1.3-0.6,1.4-1.3c0-0.6-0.4-1.2-1.1-1.3c-0.4-0.1-0.8-0.2-1.2-0.2h-0.4
		c-0.7-1.6-1.4-3.2-2.1-4.8c-0.1-0.3-0.1-0.6,0-0.8c0.4,0.8,0.7,1.6,1.1,2.4v0.1l0.1,0.1c0,0.1,0.1,0.1,0.1,0.2
		c0.1,0.3,0.4,0.6,0.7,0.8c0.3,0.2,0.7,0.2,1,0.1c0.3-0.1,0.6-0.3,0.8-0.6l0.1-0.2c0.7,1.7,1.5,3.4,2.3,5l0,0l0.1,0.2
		c5,10.2,10.7,20,17,29.4l0,0c4.5,6.6,9.2,12.9,14.3,19l0.1,0.2l0,0c0.1,0.1,0.1,0.1,0.2,0.2c0.1,0.1,0.1,0.2,0.2,0.2l0.5,0.6l0,0
		L440.1,645.6z"/>
	<path class="st0" d="M440.5,649.8l0.7,0.6c-0.2,0-0.4-0.1-0.6-0.3c-0.1-0.2-0.3-0.3-0.4-0.4l-0.2-0.2h0.1L440.5,649.8L440.5,649.8z
		"/>
	<path class="st0" d="M441,434.4c0,1.6,0,3.2,0,4.8c-0.2-0.1-0.3-0.3-0.4-0.4c-1-1.7-2.1-3.4-3.1-5.1c0,0,0,0,0,0
		c-0.4-0.6-0.7-1.2-1.1-1.8l0,0l-0.2-0.3l0,0l-0.3-0.5l-0.1-0.2l0,0c-6.5-10.9-12.8-21.8-18.9-32.9l0-0.1l0,0l-2.8-5.1
		c-8.9-16.2-17.4-32.6-25.4-49.3c-4-8.2-7.8-16.5-11.4-24.9c-0.9-2.2-1.9-4.4-2.8-6.6l-0.1-0.2c-1.9-4.5-3.7-9.1-5.5-13.7
		c0.1,0,0.3,0,0.4,0c0.3-0.1,0.6-0.3,0.8-0.6c0.2-0.3,0.2-0.7,0.1-1c-0.3-1.3-0.5-2.6-0.7-3.9c0.1,0.1,0.2,0.3,0.3,0.5
		c1.3,3.6,2.7,7.1,4.2,10.7c0.8,2,1.6,4,2.5,6l0.4,1c0.1,0.1,0.1,0.2,0.1,0.3l0.3,0.8c0.2,0.5,0.4,1,0.7,1.6c0.4,1,0.9,2.1,1.4,3.1
		c0.9,2.1,1.8,4.1,2.7,6.2c3.8,8.4,7.7,16.7,11.7,25c8,16.5,16.4,32.7,25.4,48.8l0,0l0,0c6.2,11.1,12.5,22.1,19,33
		c0.1,0.1,0.2,0.3,0.2,0.4c0.1,0.1,0.2,0.4,0.3,0.5v0.1c0.1,0.1,0.1,0.2,0.2,0.3v0.1c0.1,0.2,0.3,0.4,0.4,0.6l0,0
		C439.9,432.5,440.4,433.4,441,434.4z"/>
	<path class="st0" d="M440.6,513.7c0.1,0.3,0.3,0.6,0.4,0.9C440.7,514.3,440.6,514,440.6,513.7L440.6,513.7
		C440.6,513.6,440.6,513.6,440.6,513.7z"/>
	<path class="st0" d="M440.6,507.7v4.9v0.1c0,0.3,0,0.5,0,0.8l-0.1-0.2c-3-6.3-6.5-12.4-10.6-18c-0.4-0.6-0.2-1.4,0.4-1.8
		c0.2-0.1,0.5-0.2,0.7-0.2c0.1,0,0.2,0,0.3,0c0.3,0.1,0.6,0.3,0.8,0.6C435.3,498.3,438.1,502.9,440.6,507.7z"/>
	<path class="st0" d="M440.5,513.4l0.1,0.2L440.5,513.4z"/>
	<path class="st0" d="M439.9,468c0,0.1,0.1,0.3,0.1,0.4c0,0.6-0.4,1.1-0.9,1.3l-0.9,0.3l-0.3,0.1h-0.1l-1.1,0.4l-0.2,0.1l0,0
		c-0.9,0.3-1.8,0.7-2.7,1c-6.8,2.6-13.6,5.5-20.2,8.7c-2.5,1.2-5,2.5-7.5,3.8c-0.3,0.2-0.7,0.2-1,0.2c-0.1,0-0.2-0.1-0.3-0.1
		c0.7-0.3,1.5-0.6,2.2-0.8c0.6-0.2,0.9-0.7,0.9-1.3c0-0.1,0-0.3-0.1-0.4c-0.1-0.3-0.3-0.6-0.6-0.8c-0.2-0.1-0.4-0.1-0.6-0.1
		c8.5-4.4,17.3-8.3,26.2-11.7h0h0.1l2.7-1l0,0l0.4-0.1h0l0.4-0.2l0.4-0.1l0,0l0,0l0.4-0.1c0.3-0.1,0.6-0.2,0.8-0.3
		c0.1-0.1,0.3-0.1,0.4-0.1C439.2,467.2,439.7,467.5,439.9,468z"/>
	<path class="st0" d="M436.7,699.3c0,0.9,0.1,1.9,0.2,2.9c-0.5-0.2-1.1-0.4-1.6-0.7c-0.4-0.2-0.8-0.5-1.2-0.7c0-0.4,0-0.8-0.1-1.2
		c0-0.6,0.3-1.2,0.9-1.4l0,0l0.1,0.1l0.1,0c0.5,0.3,1,0.6,1.6,0.9C436.7,699.2,436.7,699.2,436.7,699.3z"/>
	<path class="st0" d="M436.7,699.2c-0.5-0.3-1.1-0.6-1.6-0.9l-0.1,0l-0.1-0.1l0,0c0.1,0,0.2-0.1,0.3-0.1h0.1
		C436,698.1,436.6,698.5,436.7,699.2z"/>
	<path class="st0" d="M435.4,588.8c0.2,0.3,0.3,0.8,0.1,1.2c-0.4-0.7-0.7-1.3-1-2c-0.2-0.3-0.5-0.5-0.8-0.6c-0.1,0-0.2,0-0.3,0
		c-0.3,0-0.5,0.1-0.7,0.2c-0.3,0.2-0.5,0.5-0.5,0.8c-0.1-0.2-0.2-0.4-0.3-0.6c0,0,0,0,0-0.1c-1-1.8-2-3.7-3-5.5l0,0
		c-3.1-5.7-6.2-11.5-9.1-17.3c-2.5-4.9-5-9.9-7.4-14.9l0-0.1c-0.9-1.8-1.7-3.6-2.6-5.4c-3.9-8.2-7.6-16.5-11.1-24.9
		c0.3,0.4,0.9,0.5,1.3,0.3c0.7-0.2,1.1-1,0.9-1.7c0,0,0,0,0,0l-0.1-0.3c0.1,0.1,0.2,0.3,0.3,0.5c3.3,7.9,6.7,15.7,10.3,23.4
		c0.9,1.9,1.8,3.9,2.7,5.8l0.4,0.9l0.2,0.4c0.1,0.2,0.1,0.3,0.2,0.5c0.2,0.5,0.4,0.9,0.6,1.3c0.4,0.9,0.9,1.8,1.3,2.7
		c0.9,1.9,1.8,3.7,2.7,5.6c3.6,7.2,7.3,14.3,11.2,21.4l0,0c1.1,2,2.2,3.9,3.2,5.9l0,0c0,0,0.1,0.2,0.1,0.2l0.1,0.1l0,0l0.6,1
		c0.1,0.2,0.2,0.3,0.3,0.5c0,0,0,0.1,0,0.1C435.2,588.4,435.3,588.6,435.4,588.8z"/>
	<path class="st0" d="M434.5,587.9c0.3,0.7,0.7,1.3,1,2c-0.2,0.7-1,1.1-1.7,0.8c-0.3-0.1-0.5-0.3-0.7-0.5l-0.2-0.3
		c-0.1-0.1-0.1-0.2-0.2-0.3c0,0,0-0.1,0-0.1l-0.3-0.6l0,0c-0.1-0.2-0.3-0.5-0.4-0.7c0.1-0.3,0.3-0.6,0.5-0.8
		c0.2-0.1,0.5-0.2,0.7-0.2c0.1,0,0.2,0,0.3,0C434,587.4,434.3,587.6,434.5,587.9z"/>
	<path class="st0" d="M428.5,691.9c1.9,2.3,4.1,4.4,6.5,6.2c-0.6,0.2-0.9,0.8-0.9,1.4c0,0.4,0,0.8,0.1,1.2c-1.3-0.8-2.5-1.8-3.6-2.9
		c-1.4-1.4-2.8-2.8-4.1-4.3c-2.6-3.1-4.9-6.3-7.1-9.6c-4.5-7-8.5-14.3-12-21.9c-3.4-7.1-6.3-14.4-8.8-21.8c-2.5-7-4.3-14.3-5.7-21.6
		c0-0.1,0-0.1,0-0.2c0.1,0.2,0.2,0.4,0.3,0.5c0.2,0.2,0.6,0.4,0.9,0.3c0.3,0,0.7-0.2,0.9-0.4c0.2-0.2,0.3-0.5,0.3-0.8
		c0,0.1,0.1,0.3,0.1,0.4c0.1,0.3,0.1,0.7,0.2,1l0.1,0.3c1.5,7.3,3.5,14.6,6.1,21.6c2.6,7.3,5.6,14.5,8.9,21.5v0.1l0.1,0.2
		c2.5,5.1,5.2,10.2,8.1,15C421.7,682.9,424.9,687.6,428.5,691.9z"/>
	<path class="st0" d="M397.2,550.6c-0.5,1.5-0.8,3-0.9,4.6c-0.2,3.8,0,7.6,0.7,11.3v0.1v0.1l0,0c1.5,7.7,4.1,15.1,7.5,22.1
		c0,0,0,0,0,0l0.1,0.3c0.1,0.3,0.1,0.6,0,0.9c-0.4-0.9-0.8-1.9-1.2-2.8c-0.1-0.3-0.4-0.6-0.6-0.8c-0.2-0.1-0.4-0.1-0.6-0.1
		c-0.1,0-0.3,0-0.4,0.1c-0.4,0.1-0.7,0.5-0.9,0.9c-0.8-1.9-1.6-3.8-2.4-5.8c-1.4-3.6-2.5-7.4-3.4-11.2c-0.9-3.8-1.5-7.7-1.6-11.7
		c-0.1-1.8,0.1-3.7,0.3-5.5c0.1-1,0.4-2,0.7-2.9c0.3-0.9,0.7-1.8,1.1-2.6c0.5-0.9,1.2-1.7,1.9-2.4c0.7-0.6,1.5-1.1,2.3-1.5
		c1-0.4,2.1-0.6,3.2-0.6c0.4,0,0.8,0,1.1,0.1h0.1c0.3,0,0.7,0.1,1,0.2h0.1h0.1h0.1h0.1l0,0h0h0.1l0,0c0.4,0.1,0.7,0.2,1.1,0.3
		l0.1,0.1l0,0h0.1l0.2,0.1h0.1l0.1,0h0.1l0.1,0.1l0.3,0.1c0.3,0.1,0.5,0.3,0.6,0.6c0.1,0.4,0.1,0.8,0,1.2c-0.2,0.3-0.4,0.5-0.8,0.6
		c-0.3,0.1-0.7,0.1-1-0.1l-0.3-0.1h-0.1l-0.1-0.1h0.1l0,0c-0.3-0.1-0.6-0.2-0.9-0.3l0,0l-0.3-0.1H405c-0.4-0.1-0.8-0.2-1.2-0.2h-0.1
		c-0.6,0-1.2,0-1.8,0.1c-0.4,0.1-0.9,0.2-1.3,0.4c-0.4,0.2-0.8,0.5-1.2,0.7c-0.4,0.4-0.7,0.8-1.1,1.2c-0.5,0.7-0.8,1.5-1.2,2.3
		L397.2,550.6z"/>
	<path class="st0" d="M407.9,482.1c0,0.6-0.3,1.1-0.9,1.3c-0.8,0.2-1.5,0.4-2.2,0.8c-0.2-0.1-0.4-0.3-0.5-0.5
		c-0.2-0.3-0.3-0.7-0.2-1c0.1-0.3,0.3-0.6,0.6-0.8c0.7-0.4,1.3-0.7,2-1c0.2,0,0.4,0.1,0.6,0.1c0.3,0.2,0.5,0.4,0.6,0.8
		C407.9,481.9,407.9,482,407.9,482.1z"/>
	<path class="st0" d="M397.7,508.2c0.6,3.3,1.6,6.6,2.9,9.7c-0.2-0.3-0.6-0.4-0.9-0.4c-0.1,0-0.3,0-0.4,0.1c-0.7,0.2-1.1,1-0.8,1.7
		c0,0.1,0.1,0.2,0.1,0.3c-0.1-0.1-0.2-0.3-0.3-0.5c-0.1-0.3-0.2-0.6-0.4-0.9c-1.3-3.3-2.2-6.8-2.8-10.3c-0.7-3.8-0.8-7.7-0.3-11.5
		c0.4-3.9,1.8-7.5,4.1-10.6c1.8-2.3,4.3-3.9,7.1-4.7l0,0h0.1h0l0,0h0.1c0.1,0,0.3-0.1,0.4-0.1c-0.7,0.3-1.3,0.7-2,1
		c-0.3,0.2-0.5,0.5-0.6,0.8c-0.1,0.3,0,0.7,0.2,1c0.1,0.2,0.3,0.4,0.5,0.5h0c-0.8,0.4-1.6,0.9-2.4,1.5c-0.8,0.7-1.5,1.4-2.1,2.3
		c-0.8,1.1-1.4,2.4-1.9,3.7c-0.7,2.1-1.2,4.3-1.4,6.5c-0.2,3.3,0,6.6,0.6,9.8c0,0.1,0,0.1,0,0.2L397.7,508.2z"/>
	<path class="st0" d="M404.7,593.1c0.7,0.1,1.2,0.8,1,1.6c-0.1,0.6-0.7,1.1-1.3,1.1c-0.5-0.9-0.9-1.9-1.4-2.9h0.4
		C403.9,592.9,404.3,593,404.7,593.1z"/>
	<path class="st0" d="M404.7,590.1l-0.1,0.2c-0.2,0.3-0.4,0.5-0.8,0.6c-0.3,0.1-0.7,0.1-1-0.1c-0.3-0.2-0.5-0.4-0.7-0.8
		c0-0.1-0.1-0.1-0.1-0.2l-0.1-0.1v-0.1c-0.4-0.8-0.7-1.6-1.1-2.4c0.1-0.4,0.5-0.7,0.9-0.9c0.1,0,0.3-0.1,0.4-0.1
		c0.2,0,0.4,0.1,0.6,0.1c0.3,0.2,0.5,0.4,0.6,0.8C403.9,588.2,404.3,589.1,404.7,590.1z"/>
	<path class="st0" d="M404.5,595.7c-0.1,0-0.2,0-0.3,0c-0.4-0.1-0.8-0.2-1.2-0.2h-0.1c-0.6,0-1.2,0-1.8,0.1
		c-0.5,0.1-0.9,0.2-1.3,0.4c-0.4,0.2-0.8,0.5-1.2,0.8c-0.4,0.4-0.8,0.8-1.1,1.3c-0.5,0.7-0.8,1.5-1.2,2.3c-0.2,0.7-0.4,1.4-0.6,2.1
		c-0.1,0.3-0.3,0.6-0.6,0.8c0-0.1,0.1-0.3,0.1-0.4c0.2-0.7-0.3-1.4-1-1.6c0,0,0,0,0,0c-0.1,0-0.2,0-0.3,0c-0.3,0-0.5,0.1-0.7,0.2
		c0.3-1.3,0.7-2.6,1.4-3.7c0.5-1,1.2-1.9,2-2.7c0.5-0.5,1-0.9,1.5-1.2c0.5-0.3,1.1-0.5,1.6-0.7c0.8-0.2,1.6-0.3,2.4-0.3h0.7h0.2
		C403.6,593.8,404,594.8,404.5,595.7z"/>
	<path class="st0" d="M400.7,518.3c0.2,0.7-0.2,1.4-0.8,1.7c0,0,0,0,0,0c-0.5,0.2-1,0-1.3-0.3c0-0.1-0.1-0.2-0.1-0.3
		c-0.2-0.7,0.2-1.4,0.8-1.7c0.1,0,0.3-0.1,0.4-0.1c0.3,0,0.7,0.1,0.9,0.4L400.7,518.3z"/>
	<path class="st0" d="M394.5,606.1L394.5,606.1c-0.2,3.9,0.1,7.8,0.8,11.6c0,0.1,0,0.1,0,0.2c-0.1-0.2-0.2-0.3-0.3-0.5
		c-0.2-0.2-0.6-0.4-0.9-0.3H394c-0.6,0-1.2,0.5-1.3,1.2c0-0.1-0.1-0.3-0.1-0.4c-0.4-2.4-0.7-4.9-0.8-7.3c-0.2-2.4,0-4.9,0.4-7.3
		c0,0,0,0,0-0.1s0-0.1,0-0.1l0,0l0,0c0-0.1,0.1-0.3,0.1-0.4s0-0.1,0-0.1l0,0c0-0.2,0.1-0.3,0.1-0.5c0.1-0.3,0.3-0.6,0.5-0.8
		c0,0.1-0.1,0.3-0.1,0.4c-0.2,0.7,0.3,1.4,1,1.6c0.4,0.1,0.7,0,1-0.2c0,0,0,0.1,0,0.1c0,0,0,0,0,0c0,0-0.1,0.3-0.1,0.4l0,0
		C394.7,604.5,394.6,605.3,394.5,606.1z"/>
	<path class="st0" d="M394.1,601.1c0.7,0.2,1.2,0.9,1,1.6c0,0,0,0,0,0c0,0.1-0.1,0.3-0.1,0.4c-0.6,0.4-1.4,0.2-1.8-0.4
		c-0.2-0.3-0.3-0.7-0.2-1c0-0.1,0.1-0.3,0.1-0.4c0.2-0.2,0.5-0.2,0.7-0.2C393.9,601.1,394,601.1,394.1,601.1z"/>
	<path class="st0" d="M395.3,618c0,0.3-0.2,0.5-0.3,0.8c-0.2,0.3-0.6,0.4-0.9,0.4c-0.3,0-0.7-0.1-0.9-0.3c-0.2-0.1-0.3-0.3-0.3-0.5
		c0.1-0.6,0.6-1.1,1.3-1.2h0.1c0.3,0,0.7,0.1,0.9,0.3C395.2,617.6,395.3,617.8,395.3,618z"/>
	<path class="st0" d="M393.2,282.6c0,0.3-0.2,0.7-0.4,0.9c-0.2,0.2-0.6,0.4-0.9,0.4h0l-0.8-0.8c-0.5-0.5-0.5-1.4,0-1.9
		c0.2-0.2,0.5-0.3,0.8-0.4l1,0.8C393,281.9,393.2,282.2,393.2,282.6z"/>
	<path class="st0" d="M369.3,291.8c0,0.2,0.1,0.4,0.1,0.7c-0.1-0.1-0.2-0.2-0.3-0.3c-0.2-0.1-0.4-0.2-0.7-0.2c-0.1,0-0.2,0-0.3,0
		c-0.7,0.2-1.1,0.9-0.9,1.6c0.5,1.5,1.1,2.9,1.7,4.4c-0.6,0-1.1-0.4-1.3-0.9c-0.2-0.8-0.3-1.7-0.5-2.5c-0.8-3.9-1-7.9-0.6-11.8
		c0.1-1,0.3-2.1,0.6-3.1c0.3-0.9,0.7-1.9,1.2-2.7c0.5-0.9,1.2-1.6,2-2.2c0.7-0.5,1.4-0.9,2.2-1.2c0.9-0.3,1.9-0.4,2.8-0.4
		c1,0,2,0.1,3,0.4c1.9,0.5,3.7,1.2,5.4,2.1c2.8,1.5,5.4,3.2,7.9,5.2c-0.3,0-0.6,0.2-0.8,0.4c-0.5,0.5-0.5,1.4,0,1.9l0.8,0.8
		c-0.3,0-0.7-0.2-0.9-0.4l-0.7-0.6l-0.1-0.1c-2.9-2.3-6-4.2-9.3-5.8c-1.3-0.6-2.7-1-4.1-1.2c-0.7-0.1-1.5-0.1-2.2,0
		c-0.5,0.1-0.9,0.2-1.4,0.4c-0.4,0.2-0.8,0.4-1.1,0.7c-0.3,0.3-0.6,0.6-0.9,0.9c-0.4,0.5-0.7,1.1-1,1.7c-0.4,1.1-0.7,2.2-0.9,3.4
		C368.8,285.9,368.8,288.8,369.3,291.8C369.3,291.8,369.3,291.8,369.3,291.8z"/>
	<path class="st0" d="M370.1,296.4c0.1,0.3,0.1,0.7-0.1,1c-0.2,0.3-0.5,0.5-0.8,0.6c-0.1,0-0.3,0-0.4,0c-0.6-1.4-1.1-2.9-1.7-4.4
		c-0.2-0.7,0.2-1.4,0.9-1.6c0.1,0,0.2,0,0.3,0c0.2,0,0.5,0.1,0.7,0.2c0.1,0.1,0.2,0.2,0.3,0.3C369.6,293.8,369.8,295.1,370.1,296.4z
		"/>
	<line class="st7" x1="957.6" y1="570.6" x2="929.6" y2="609.4"/>
	<path class="st7" d="M934.6,577.9c1.3,14.1,5.3,27.9,11.7,40.6"/>
	<path class="st7" d="M920.1,601.1c10.5-1.9,29.2-7.6,39.7-9.5"/>
	<path class="st7" d="M924.5,587.9c8.4,4.7,20.3,13.9,28.7,18.6"/>
	<line class="st7" x1="321.7" y1="360.2" x2="293.8" y2="399"/>
	<path class="st7" d="M298.7,367.5c1.3,14.1,5.3,27.9,11.7,40.6"/>
	<path class="st7" d="M284.2,390.7c10.5-1.9,29.2-7.6,39.7-9.5"/>
	<path class="st7" d="M288.6,377.5c8.4,4.6,20.3,13.9,28.7,18.6"/>
	<path class="st5" d="M267.6,13.8c-4.5,0-9.1,0.1-13.5,0.3c-0.2-0.1-0.5-0.2-0.7-0.2h-1.1h-0.2h-2.7c-14.9,0-29.7,2.6-43.8,7.6
		c-16,5.7-30.6,14.7-42.8,26.5c-1.4,1.4-2.9,2.9-4.3,4.5c-0.1,0.2-0.3,0.4-0.3,0.6c-3.9,4.2-7.6,8.7-10.9,13.5
		c-4.4,6.3-8,13.1-11,20.2c-1.5,3.6-2.8,7.2-3.9,10.9v0.1c-0.7,2.3-1.3,4.7-1.8,7l-0.1,0.2l-0.1,0.4c0,0.1,0,0.2-0.1,0.3v0.2l0,0
		c0,0.1-0.1,0.3-0.1,0.4c0,0.1-0.1,0.5-0.1,0.7c-0.3,1.6-0.5,3.2-0.7,4.7v0.1c0,0.1,0,0.2,0,0.3c0,0,0,0.1,0,0.1v0.2v0.1
		c0,0.1,0,0.2,0,0.3c-0.8,4-1.3,8-1.5,12.1v0.2c-0.2,7.7,0.9,15.4,3.4,22.7c2.6,7.6,6.7,14.6,12,20.6c2.1,2.4,4.3,4.6,6.7,6.6
		l0.1,0.1l0,0l0.1,0.1c1.6,1.3,3.3,2.6,5,3.8l0.8,0.6l0.1,0.1l0.1,0.1l0.2,0.1l0.2,0.1c1,0.6,2,1.2,3,1.8c0.2,0.1,0.4,0.2,0.6,0.2
		c0.1,0.1,0.2,0.1,0.3,0.1c7.7,2.5,15.5,4.2,23.5,5.2c6.4,0.8,12.8,1.2,19.2,1.2c1.7,0,3.3,0,5-0.1c11.3-0.4,22.6-1.8,33.7-4.3
		l0.3-0.1h0.1c1.4-0.3,2.7-0.6,4-0.9l1.3-0.3l0.3-0.1l0.6-0.2h0.1l0.3-0.1l0.2,0h0.1h0.1l0.4-0.1h0.1l0.5-0.1l0.4-0.1l0.4-0.1
		l0.2-0.1l0.2-0.2l0.9-0.2l0.1,0l0,0l0.6-0.2l0.9-0.3c0.1,0,0.2-0.1,0.3-0.1c0.2,0.1,0.4,0.2,0.7,0.2c0.1,0,0.2,0,0.3-0.1
		c10.9-4.4,22.3-7.4,34-8.9h-0.2h-0.2c6.9-0.9,13.9-1.4,20.8-1.4c6.9,0,13.7,0.5,20.6,1.4c5.2,0.7,10.4,1.7,15.5,3
		c6,1.5,11.9,3.5,17.7,5.8l0,0h0.1l0,0l1.9,0.8c6.8,3,13.2,6.8,19.2,11.2c1.8,1.4,3.5,2.8,5.1,4.3l0.7,0.7l0.1,0.1l0.1,0.1l0.2,0.2
		l0.2,0.2l0.3,0.3c1,0.9,1.9,1.9,2.7,2.9c0.9,1,1.8,2.1,2.6,3.1c2.6,3.3,4.7,7,6.4,10.8c1.2,2.8,2,5.7,2.6,8.7v0.2v0.2v0.1l0,0
		c0.1,0.3,0.1,0.7,0.2,1c0,0.1,0,0.2,0,0.3v-0.1c0.2,2.1,0.4,4.1,0.3,6.2c0,0.2,0,0.4,0,0.5c0,0.3,0.1,0.7,0.4,0.9
		c0.3,0.3,0.6,0.4,1,0.4c0.7,0,1.3-0.6,1.3-1.3c0-0.3,0-0.6,0-0.9v-0.1c0-1.4-0.1-2.8-0.2-4.2c0.1-0.1,0.1-0.2,0.1-0.3l0.1-0.2v-0.2
		v-0.1v-0.1v-0.1l0.1-0.5v-0.1c0.4-1.6,0.8-3.1,1.1-4.7c1.5-7.9,2.3-16,2.4-24c0.2-8.3-0.2-16.7-1.1-25c-1.3-10.7-3.4-21.2-6.2-31.6
		c0.1-0.2,0.1-0.4,0-0.6c0-0.2-0.1-0.3-0.1-0.4l-0.1-0.2v-0.1l-0.1-0.4l-0.1-0.4l-0.1-0.2c-0.1-0.2-0.1-0.4-0.2-0.6v-0.1l-0.1-0.3
		l-0.1-0.2c-0.4-1.6-0.8-3.2-1.3-4.8l-0.1-0.2l-0.1-0.3l0-0.2v-0.1v-0.1l-0.1-0.2v-0.1v-0.1c-4.5-15.6-10.5-30.8-17.8-45.4
		c-7.5-15.2-16.6-29.5-27-42.8c-3-3.8-6.2-7.5-9.4-10.9c0.1-0.4-0.1-0.9-0.4-1.1l-0.3-0.2l-0.3-0.2l-0.1-0.1c-0.5-0.4-1-0.8-1.5-1.2
		l-0.2-0.2l-0.1-0.1l-0.6-0.4L345,28l-0.1-0.1c-3.3-2.4-6.8-4.3-10.5-5.9l-0.1-0.1c-1-0.4-2.1-0.8-3.1-1.2c-0.1-0.4-0.5-0.6-0.8-0.7
		c-1.8-0.4-3.6-0.7-5.4-1l-0.4-0.1l-0.4-0.1l-1.8-0.3h-0.1l-0.6-0.1l-0.3,0c-15.8-2.7-31.7-4.2-47.7-4.6c-2,0-3.9-0.1-5.9-0.1
		L267.6,13.8z M231.5,17.8l1-0.1h0.2L231.5,17.8L231.5,17.8z M153.1,63.1L153.1,63.1L153.1,63.1c-0.1,0.2-0.3,0.4-0.5,0.7
		C152.8,63.5,152.9,63.3,153.1,63.1L153.1,63.1L153.1,63.1L153.1,63.1L153.1,63.1L153.1,63.1L153.1,63.1z M138.8,87.5L138.8,87.5
		c-0.1,0.2-0.1,0.3-0.2,0.5C138.6,87.8,138.7,87.7,138.8,87.5L138.8,87.5L138.8,87.5z"/>
	
		<ellipse transform="matrix(0.1891 -0.982 0.982 0.1891 391.8942 1229.5865)" class="st8" cx="940.4" cy="377.5" rx="50.5" ry="50.5"/>
	<path class="st8" d="M927.5,375.6l5.3,26.3c25.6-40.6,55-78.8,87.6-114"/>
	<path class="st3" d="M300.2,86.1c7,0,4.6,9.3,4.7,23.7c0,3-2.4,5.4-5.4,5.4h-32.2v26.5c0,3.2-2.6,5.8-5.8,5.8c0,0,0,0,0,0h-25.2
		c-2.9,0-5.3-2.4-5.3-5.3V115h-30.8c-2.9,0-5.2-2.3-5.2-5.2V90.3c0-3.3,2.7-6,6-6c0,0,0,0,0,0H230V59.4c0-4.1,3.4-7.5,7.5-7.5
		c0,0,0.1,0,0.1,0l22.8,0.3c3.2,0,5.8,2.6,5.9,5.8l0.8,28.1L300.2,86.1z"/>
	<path class="st8" d="M300.4,86.1c7,0,4.6,9.3,4.7,23.7"/>
	<path class="st8" d="M304.9,109.8c0,3-2.4,5.4-5.4,5.4h-32.2v26.5c0,3.2-2.6,5.8-5.8,5.8c0,0,0,0,0,0h-25.2c-2.9,0-5.3-2.4-5.3-5.3
		V115h-30.8c-2.9,0-5.2-2.3-5.2-5.2V90.3c0-3.3,2.7-6,6-6c0,0,0,0,0,0H230V59.4c0-4.1,3.4-7.5,7.5-7.5c0,0,0.1,0,0.1,0l22.8,0.3
		c3.2,0,5.8,2.6,5.9,5.8l0.8,28.1h34.7"/>
	<path class="st0" d="M983.6,221.2c-11.6,2.3-22,11.7-24.9,23.1c-0.8-5.9-3.5-11.5-7.6-15.9c-4.1-4.3-9.4-7.3-15.2-8.4
		c11.4-3.7,19.9-13.3,22.4-25c0.8,6.8,4.3,12.8,9,17.8C972,217.7,976.9,220.1,983.6,221.2z"/>
	<path class="st0" d="M148.6,361.8c-11.6,2.3-22,11.7-24.9,23.1c-0.9-6-3.5-11.5-7.7-15.9c-4-4.3-9.4-7.3-15.2-8.5
		c11.4-3.7,19.9-13.3,22.4-25c0.8,6.8,4.3,12.8,9,17.8C137,358.3,141.8,360.6,148.6,361.8z"/>
	<path class="st0" d="M1093.1,99.9c-14.2,2.9-27.2,14.4-30.8,28.5c-1-7.3-4.3-14.2-9.4-19.6c-5-5.4-11.6-9-18.8-10.4
		c14.1-4.6,24.6-16.4,27.7-30.9c1,8.4,5.3,15.8,11.1,21.9C1078.7,95.5,1084.7,98.5,1093.1,99.9z"/>
	<path class="st0" d="M484.4,346.8h176.5c8.8,0,15.9,7.1,15.9,15.9V383c0,8.8-7.1,15.9-15.9,15.9H484.4c-8.8,0-15.9-7.1-15.9-15.9
		v-20.3C468.5,353.9,475.6,346.8,484.4,346.8z"/>
	<path class="st0" d="M484.4,416.4h176.5c8.8,0,15.9,7.1,15.9,15.9v20.3c0,8.8-7.1,15.9-15.9,15.9H484.4c-8.8,0-15.9-7.1-15.9-15.9
		v-20.3C468.5,423.6,475.6,416.4,484.4,416.4z"/>
	<path class="st0" d="M484.4,485.2h176.5c8.8,0,15.9,7.1,15.9,15.9v20.3c0,8.8-7.1,15.9-15.9,15.9H484.4c-8.8,0-15.9-7.1-15.9-15.9
		v-20.3C468.5,492.3,475.6,485.2,484.4,485.2z"/>
	<path class="st0" d="M484.4,559.6h176.5c8.8,0,15.9,7.1,15.9,15.9v20.3c0,8.8-7.1,15.9-15.9,15.9H484.4c-8.8,0-15.9-7.1-15.9-15.9
		v-20.3C468.5,566.8,475.6,559.6,484.4,559.6z"/>
	<line class="st9" x1="536.9" y1="361.3" x2="608.3" y2="361.3"/>
	<line class="st9" x1="536.7" y1="372" x2="617" y2="372"/>
	<line class="st9" x1="536.3" y1="382.6" x2="611.9" y2="382.6"/>
	<path class="st3" d="M517.5,378.9c0.9,0.5,1.5,0.9,1.3,2.1s-1.4,2.4-2,3.2c-5.8,7.3-16.3,8.5-23.6,2.7c-1.4-1.1-2.6-2.4-3.6-3.9
		c-0.5-0.8-1.8-2.6-1.8-3.6c0.1-1.3,1.8-1.5,3.1-2.1c2.5-1.3,8.6-3.5,7.8-4.7c-0.7-1-1.8-4.6-1.2-6.3c1.3-3.4,5.2-5,8.6-3.7
		c0.3,0.1,0.5,0.2,0.7,0.3c3.2,2,3.3,7.5,0.6,10.2c3.3,2.7,6.2,3.3,9.1,5.1C516.9,378.5,517.2,378.7,517.5,378.9z"/>
	
		<ellipse transform="matrix(0.1602 -0.9871 0.9871 0.1602 54.3216 810.223)" class="st10" cx="503.3" cy="373.2" rx="17.4" ry="17.4"/>
	<line class="st7" x1="644.6" y1="363.2" x2="644.6" y2="380.9"/>
	<line class="st7" x1="636.1" y1="370.9" x2="653.2" y2="370.9"/>
	<line class="st9" x1="536.9" y1="430.2" x2="608.3" y2="430.2"/>
	<line class="st9" x1="536.7" y1="440.9" x2="617" y2="440.9"/>
	<line class="st9" x1="536.3" y1="451.5" x2="611.9" y2="451.5"/>
	<path class="st3" d="M517.5,447.8c0.9,0.5,1.5,0.9,1.3,2.1s-1.4,2.4-2,3.2c-5.8,7.3-16.3,8.5-23.6,2.7c-1.4-1.1-2.6-2.4-3.6-3.9
		c-0.5-0.8-1.8-2.6-1.8-3.6c0.1-1.3,1.8-1.5,3.1-2.1c2.5-1.3,8.6-3.5,7.8-4.7s-1.8-4.6-1.2-6.3c1.3-3.4,5.2-5,8.6-3.7
		c0.3,0.1,0.5,0.2,0.7,0.3c3.2,2,3.3,7.5,0.6,10.2c3.3,2.7,6.2,3.3,9.1,5.1C516.9,447.4,517.2,447.6,517.5,447.8z"/>
	
		<ellipse transform="matrix(0.9239 -0.3827 0.3827 0.9239 -130.8646 226.2606)" class="st10" cx="503.3" cy="442.1" rx="17.4" ry="17.4"/>
	<line class="st7" x1="644.6" y1="432.1" x2="644.6" y2="449.8"/>
	<line class="st7" x1="636.1" y1="439.8" x2="653.2" y2="439.8"/>
	<line class="st9" x1="536.9" y1="499.9" x2="608.3" y2="499.9"/>
	<line class="st9" x1="536.7" y1="510.6" x2="617" y2="510.6"/>
	<line class="st9" x1="536.3" y1="521.2" x2="611.9" y2="521.2"/>
	<path class="st3" d="M517.5,517.5c0.9,0.5,1.5,0.9,1.3,2.1s-1.4,2.4-2,3.2c-5.8,7.3-16.3,8.5-23.6,2.7c-1.4-1.1-2.6-2.4-3.6-3.9
		c-0.5-0.8-1.8-2.6-1.8-3.6c0.1-1.3,1.8-1.5,3.1-2.1c2.5-1.3,8.6-3.5,7.8-4.7c-0.8-1.1-1.8-4.6-1.2-6.3c1.3-3.4,5.2-5.1,8.6-3.7
		c0.2,0.1,0.5,0.2,0.7,0.3c3.2,2,3.3,7.5,0.6,10.2c3.3,2.7,6.2,3.3,9.1,5.1C516.9,517.2,517.2,517.4,517.5,517.5z"/>
	
		<ellipse transform="matrix(0.9239 -0.3827 0.3827 0.9239 -157.5575 231.5701)" class="st10" cx="503.3" cy="511.8" rx="17.4" ry="17.4"/>
	<line class="st7" x1="644.6" y1="501.9" x2="644.6" y2="519.6"/>
	<line class="st7" x1="636.1" y1="509.5" x2="653.2" y2="509.5"/>
	<line class="st9" x1="536.9" y1="574.4" x2="608.3" y2="574.4"/>
	<line class="st9" x1="536.7" y1="585.1" x2="617" y2="585.1"/>
	<line class="st9" x1="536.3" y1="595.7" x2="611.9" y2="595.7"/>
	<path class="st3" d="M517.5,592c0.9,0.5,1.5,0.9,1.3,2.1s-1.4,2.4-2,3.2c-5.8,7.3-16.3,8.5-23.6,2.7c-1.4-1.1-2.6-2.4-3.6-3.9
		c-0.5-0.8-1.8-2.6-1.8-3.6c0.1-1.3,1.8-1.5,3.1-2.1c2.5-1.3,8.6-3.5,7.8-4.7s-1.8-4.6-1.2-6.3c1.3-3.4,5.2-5,8.6-3.7
		c0.3,0.1,0.5,0.2,0.7,0.3c3.2,2,3.3,7.5,0.6,10.2c3.3,2.7,6.2,3.3,9.1,5.1C516.9,591.7,517.2,591.9,517.5,592z"/>
	
		<ellipse transform="matrix(0.9239 -0.3827 0.3827 0.9239 -186.0651 237.2406)" class="st10" cx="503.3" cy="586.3" rx="17.4" ry="17.4"/>
	<line class="st7" x1="644.6" y1="576.3" x2="644.6" y2="594"/>
	<line class="st7" x1="636.1" y1="584" x2="653.2" y2="584"/>
</g>
</svg>
