<svg xmlns="http://www.w3.org/2000/svg" width="24" height="24" viewBox="0 0 24 24">
  <g id="Group_857" data-name="Group 857" transform="translate(-35 -654)">
    <rect id="Rectangle_1603" data-name="Rectangle 1603" width="24" height="24" transform="translate(35 654)" fill="none"/>
    <g id="Group_856" data-name="Group 856" transform="translate(31 648.287)">
      <path id="Path_12558" data-name="Path 12558" d="M26,7a1.7,1.7,0,0,0-1.286.592,1.691,1.691,0,0,0-2.571,0,1.691,1.691,0,0,0-2.571,0,1.707,1.707,0,0,0-3,1.122v8.618a2.988,2.988,0,0,0-2.143-.9.428.428,0,0,0-.429.429v7.285a.427.427,0,0,0,.126.3l2.446,2.446V28a.428.428,0,0,0,.429.429H25.57a2.145,2.145,0,0,0,2.143-2.143V8.714A1.716,1.716,0,0,0,26,7Zm.857,10.285v9a1.287,1.287,0,0,1-1.286,1.286H17.428v-.857a.427.427,0,0,0-.126-.3l-2.446-2.446V17.328a2.146,2.146,0,0,1,1.714,2.1v3.857h.857V8.714a.857.857,0,1,1,1.714,0V16H20V8.714a.857.857,0,0,1,1.714,0V16h.857V8.714a.857.857,0,1,1,1.714,0V16h.857V8.714a.857.857,0,0,1,1.714,0v8.571Z" transform="translate(-5.712 0)" fill="#4a47ea"/>
      <path id="Path_12559" data-name="Path 12559" d="M28.67,31.164C28.561,31.3,26,34.4,26,36.893c0,3.084,1.88,3.545,3,3.545s3-.461,3-3.545c0-2.493-2.561-5.6-2.67-5.728A.443.443,0,0,0,28.67,31.164ZM29,39.581c-1.442,0-2.143-.879-2.143-2.688,0-1.691,1.47-3.855,2.143-4.756.673.9,2.143,3.062,2.143,4.756C31.142,38.7,30.441,39.581,29,39.581Z" transform="translate(-12.57 -13.725)" fill="#4a47ea"/>
      <path id="Path_12560" data-name="Path 12560" d="M4.378,26.227l.845.141c.045-.27.1-.543.165-.809l-.833-.2C4.486,25.643,4.426,25.936,4.378,26.227Z" transform="translate(-0.214 -10.49)" fill="#4a47ea"/>
      <path id="Path_12561" data-name="Path 12561" d="M9.046,15.015l.7.491c.158-.225.325-.447.5-.658l-.664-.543C9.4,14.534,9.216,14.773,9.046,15.015Z" transform="translate(-2.881 -4.175)" fill="#4a47ea"/>
      <path id="Path_12562" data-name="Path 12562" d="M5.358,22.246l.815.264c.084-.259.18-.52.284-.775l-.794-.324C5.551,21.686,5.449,21.967,5.358,22.246Z" transform="translate(-0.774 -8.235)" fill="#4a47ea"/>
      <path id="Path_12563" data-name="Path 12563" d="M6.928,18.482l.767.383c.121-.243.255-.487.4-.724L7.353,17.7C7.2,17.958,7.059,18.22,6.928,18.482Z" transform="translate(-1.671 -6.116)" fill="#4a47ea"/>
      <path id="Path_12564" data-name="Path 12564" d="M8.188,44.488l-.752.412c.142.259.3.516.456.763l.719-.467C8.462,44.966,8.319,44.728,8.188,44.488Z" transform="translate(-1.961 -21.423)" fill="#4a47ea"/>
      <path id="Path_12565" data-name="Path 12565" d="M12.435,51.212c.212.207.433.408.658.6l.552-.655c-.209-.176-.414-.363-.611-.555Z" transform="translate(-4.818 -24.916)" fill="#4a47ea"/>
      <path id="Path_12566" data-name="Path 12566" d="M6.522,40.988l-.8.3c.1.276.215.552.338.822l.78-.356C6.722,41.5,6.616,41.243,6.522,40.988Z" transform="translate(-0.979 -19.423)" fill="#4a47ea"/>
      <path id="Path_12567" data-name="Path 12567" d="M10.376,47.716l-.683.518c.178.234.367.466.563.687l.642-.567C10.717,48.148,10.541,47.934,10.376,47.716Z" transform="translate(-3.251 -23.268)" fill="#4a47ea"/>
      <path id="Path_12568" data-name="Path 12568" d="M15.6,53.774c.241.174.489.34.738.494l.45-.73c-.231-.143-.462-.3-.687-.459Z" transform="translate(-6.629 -26.333)" fill="#4a47ea"/>
      <path id="Path_12569" data-name="Path 12569" d="M14.729,9.262l.529.675c.216-.17.441-.333.668-.486l-.478-.711C15.2,8.9,14.962,9.08,14.729,9.262Z" transform="translate(-6.129 -0.994)" fill="#4a47ea"/>
      <path id="Path_12570" data-name="Path 12570" d="M12.288,12.509c.188-.2.386-.393.589-.578L12.3,11.3c-.219.2-.432.409-.634.622Z" transform="translate(-4.379 -2.456)" fill="#4a47ea"/>
      <path id="Path_12571" data-name="Path 12571" d="M5.419,37.291l-.839.173c.06.29.132.58.212.863l.824-.235C5.541,37.83,5.475,37.56,5.419,37.291Z" transform="translate(-0.329 -17.31)" fill="#4a47ea"/>
      <path id="Path_12572" data-name="Path 12572" d="M4.9,33.474l-.856.048c.016.294.044.592.082.884l.85-.111C4.941,34.024,4.916,33.747,4.9,33.474Z" transform="translate(-0.023 -15.129)" fill="#4a47ea"/>
      <path id="Path_12573" data-name="Path 12573" d="M4.905,29.522l-.854-.077c-.027.294-.042.592-.048.887l.857.014C4.866,30.072,4.88,29.8,4.905,29.522Z" transform="translate(0 -12.827)" fill="#4a47ea"/>
      <path id="Path_12574" data-name="Path 12574" d="M55.181,42.789l.763.39c.134-.262.26-.534.374-.807l-.791-.33C55.422,42.294,55.305,42.546,55.181,42.789Z" transform="translate(-29.246 -20.025)" fill="#4a47ea"/>
      <path id="Path_12575" data-name="Path 12575" d="M56.668,39.184l.812.271c.093-.279.177-.566.25-.853l-.831-.21C56.833,38.659,56.755,38.926,56.668,39.184Z" transform="translate(-30.096 -17.94)" fill="#4a47ea"/>
      <path id="Path_12576" data-name="Path 12576" d="M57.61,35.417l.845.147c.051-.292.091-.588.12-.881l-.853-.084C57.7,34.871,57.658,35.146,57.61,35.417Z" transform="translate(-30.634 -15.772)" fill="#4a47ea"/>
      <path id="Path_12577" data-name="Path 12577" d="M57.97,30.7q.013.266.013.536c0,.1,0,.193,0,.29l.857.022c0-.1,0-.208,0-.312q0-.29-.014-.577Z" transform="translate(-30.84 -13.518)" fill="#4a47ea"/>
      <path id="Path_12578" data-name="Path 12578" d="M53.184,46.16l.7.5c.172-.241.337-.491.489-.742l-.733-.444C53.5,45.7,53.344,45.936,53.184,46.16Z" transform="translate(-28.105 -21.985)" fill="#4a47ea"/>
      <path id="Path_12579" data-name="Path 12579" d="M56.482,22.839c.093.259.177.523.249.786l.826-.228c-.078-.283-.168-.568-.268-.847Z" transform="translate(-29.99 -8.886)" fill="#4a47ea"/>
      <path id="Path_12580" data-name="Path 12580" d="M58.486,27.419c-.036-.294-.083-.589-.14-.877l-.841.166c.053.268.1.543.13.815Z" transform="translate(-30.575 -11.168)" fill="#4a47ea"/>
      <path id="Path_12581" data-name="Path 12581" d="M50.329,12.749c.194.193.384.4.564.6l.647-.562c-.194-.223-.4-.441-.606-.648Z" transform="translate(-26.473 -2.938)" fill="#4a47ea"/>
      <path id="Path_12582" data-name="Path 12582" d="M54.918,19.17c.129.241.252.49.363.741l.783-.349c-.12-.27-.252-.538-.391-.8Z" transform="translate(-29.096 -6.723)" fill="#4a47ea"/>
      <path id="Path_12583" data-name="Path 12583" d="M53.321,16.462l.723-.46c-.159-.249-.328-.495-.5-.731l-.687.512C53.016,16,53.173,16.231,53.321,16.462Z" transform="translate(-27.915 -4.727)" fill="#4a47ea"/>
      <path id="Path_12584" data-name="Path 12584" d="M47.407,10.134c.222.163.438.336.645.513L48.611,10c-.223-.192-.457-.378-.7-.554Z" transform="translate(-24.803 -1.396)" fill="#4a47ea"/>
      <path id="Path_12585" data-name="Path 12585" d="M47.858,51.9l.522.68c.231-.178.461-.369.684-.568l-.572-.639C48.286,51.561,48.072,51.739,47.858,51.9Z" transform="translate(-25.061 -25.36)" fill="#4a47ea"/>
      <path id="Path_12586" data-name="Path 12586" d="M50.724,49.219l.618.594c.2-.213.4-.435.592-.662l-.659-.548C51.1,48.815,50.914,49.022,50.724,49.219Z" transform="translate(-26.699 -23.775)" fill="#4a47ea"/>
    </g>
  </g>
</svg>
