<?xml version="1.0" encoding="utf-8"?>
<!-- Generator: Adobe Illustrator 24.0.1, SVG Export Plug-In . SVG Version: 6.00 Build 0)  -->
<svg version="1.1" id="Layer_1" xmlns="http://www.w3.org/2000/svg" xmlns:xlink="http://www.w3.org/1999/xlink" x="0px" y="0px"
	 viewBox="0 0 24 24" style="enable-background:new 0 0 24 24;" xml:space="preserve">
<style type="text/css">
	.st0{fill:#58F9DA;stroke:#4B48EA;stroke-width:0.8678;}
	.st1{fill:#4A47EA;stroke:#4A47EA;stroke-width:0.217;}
</style>
<g id="Group_994" transform="translate(-18.163 -55.27)">
	<g id="Group_993" transform="translate(21.496 58)">
		<g id="Group_992" transform="translate(3.171 3.77)">
			<g transform="matrix(1, 0, 0, 1, -6.5, -6.5)">
				<path id="Path_27133-2" class="st0" d="M22.3,9.5c0.5,0.4,0.6,1.1,0.2,1.5c0,0,0,0,0,0l-3,3.8c-0.2,0.2-0.2,0.4-0.2,0.7l0.1,4.8
					c0,0.1,0,0.3-0.1,0.4c-0.2,0.6-0.8,0.9-1.4,0.7c0,0,0,0,0,0l-4.6-1.6c-0.2-0.1-0.5-0.1-0.7,0l-4.6,1.6c-0.1,0-0.3,0.1-0.4,0.1
					c-0.6,0-1.1-0.5-1.1-1.1l0.1-4.9c0-0.3-0.1-0.5-0.2-0.7l-3-3.8c-0.1-0.1-0.1-0.2-0.2-0.4c-0.2-0.6,0.2-1.2,0.7-1.4L8.8,8
					c0.2-0.1,0.4-0.2,0.6-0.4l2.8-4c0.3-0.5,1-0.6,1.5-0.3c0.1,0.1,0.2,0.2,0.3,0.3l2.8,4c0.1,0.2,0.4,0.4,0.6,0.4L22,9.4
					C22.1,9.4,22.2,9.5,22.3,9.5z"/>
			</g>
		</g>
	</g>
	<path id="Path_12536" class="st1" d="M39.7,59.1c-0.1,0-0.3-0.1-0.3-0.3c0,0,0,0,0,0v-0.9c0-0.1,0.1-0.3,0.3-0.3
		c0.1,0,0.3,0.1,0.3,0.3c0,0,0,0,0,0v0.9C40,59,39.9,59.1,39.7,59.1z"/>
	<path id="Path_12536-2" class="st1" d="M20.6,73c-0.1,0-0.3-0.1-0.3-0.3c0,0,0,0,0,0v-0.9c0-0.1,0.1-0.3,0.3-0.3
		c0.1,0,0.3,0.1,0.3,0.3c0,0,0,0,0,0v0.9C20.9,72.9,20.8,73,20.6,73z"/>
	<path id="Path_12537" class="st1" d="M39.7,61.9c-0.1,0-0.3-0.1-0.3-0.3c0,0,0,0,0,0v-0.9c0-0.1,0.1-0.3,0.3-0.3
		c0.1,0,0.3,0.1,0.3,0.3c0,0,0,0,0,0v0.9C40,61.7,39.9,61.8,39.7,61.9C39.7,61.9,39.7,61.9,39.7,61.9z"/>
	<path id="Path_12537-2" class="st1" d="M20.6,75.7c-0.1,0-0.3-0.1-0.3-0.3c0,0,0,0,0,0v-0.9c0-0.1,0.1-0.3,0.3-0.3
		c0.1,0,0.3,0.1,0.3,0.3c0,0,0,0,0,0v0.9C20.9,75.6,20.8,75.7,20.6,75.7C20.6,75.7,20.6,75.7,20.6,75.7z"/>
	<path id="Path_12538" class="st1" d="M38.8,60h-0.9c-0.1,0-0.3-0.1-0.3-0.3c0-0.1,0.1-0.2,0.3-0.3h0.9c0.1,0,0.3,0.1,0.3,0.3
		C39,59.9,38.9,60,38.8,60L38.8,60z"/>
	<path id="Path_12538-2" class="st1" d="M19.7,73.9h-0.9c-0.1,0-0.3-0.1-0.3-0.3c0-0.1,0.1-0.2,0.3-0.3h0.9c0.1,0,0.3,0.1,0.3,0.3
		C19.9,73.8,19.8,73.9,19.7,73.9L19.7,73.9z"/>
	<path id="Path_12539" class="st1" d="M41.5,60h-0.9c-0.1,0-0.3-0.1-0.3-0.3c0-0.1,0.1-0.2,0.3-0.3h0.9c0.1,0,0.3,0.1,0.3,0.3
		C41.8,59.9,41.7,60,41.5,60L41.5,60z"/>
	<path id="Path_12539-2" class="st1" d="M22.4,73.9h-0.9c-0.1,0-0.3-0.1-0.3-0.3c0-0.1,0.1-0.2,0.3-0.3h0.9c0.1,0,0.3,0.1,0.3,0.3
		C22.7,73.8,22.6,73.9,22.4,73.9L22.4,73.9z"/>
</g>
</svg>
