<svg xmlns="http://www.w3.org/2000/svg" xmlns:xlink="http://www.w3.org/1999/xlink" version="1.1" x="0px" y="0px" viewBox="0 0 20 25" style="enable-background:new 0 0 20 20;" xml:space="preserve"><g><path d="M10,0.1c-5.4,0-9.9,4.4-9.9,9.9s4.4,9.9,9.9,9.9s9.9-4.4,9.9-9.9S15.4,0.1,10,0.1z M10,17.9c-4.4,0-7.9-3.5-7.9-7.9   S5.6,2.1,10,2.1s7.9,3.5,7.9,7.9S14.4,17.9,10,17.9z"/><path d="M10,4.1c-0.5,0-1,0.4-1,1V12c0,0.5,0.4,1,1,1s1-0.4,1-1V5.1C11,4.5,10.5,4.1,10,4.1z"/><path d="M9.3,14.2c-0.4,0.4-0.4,1,0,1.4c0.4,0.4,1,0.4,1.4,0c0.4-0.4,0.4-1,0-1.4C10.3,13.9,9.7,13.9,9.3,14.2z"/></g><text x="0" y="35" fill="#000000" font-size="5px" font-weight="bold" font-family="'Helvetica Neue', Helvetica, Arial-Unicode, Arial, Sans-serif">Created by Vectors Market</text><text x="0" y="40" fill="#000000" font-size="5px" font-weight="bold" font-family="'Helvetica Neue', Helvetica, Arial-Unicode, Arial, Sans-serif">from the Noun Project</text></svg>