<?xml version="1.0" encoding="utf-8"?>
<!-- Generator: Adobe Illustrator 24.0.2, SVG Export Plug-In . SVG Version: 6.00 Build 0)  -->
<svg version="1.1" id="Layer_1" xmlns="http://www.w3.org/2000/svg" xmlns:xlink="http://www.w3.org/1999/xlink" x="0px" y="0px"
	 viewBox="0 0 24 24" style="enable-background:new 0 0 24 24;" xml:space="preserve">
<style type="text/css">
	.st0{fill:#4A47EA;}
</style>
<g id="Group_1041">
	<path id="Path_27177" class="st0" d="M14.91,2.86C12.68,0.93,9.3,1.16,7.36,3.4c-1.84,2.12-1.73,5.3,0.25,7.28
		c0.01,0.01,0.02,0.03,0.04,0.04l6.99,6.99c0.15,0.15,0.4,0.15,0.56,0l7.02-7.02c2.1-2.08,2.11-5.47,0.03-7.57
		C20.24,1.12,17.04,1,14.91,2.86z M21.65,10.13l-6.74,6.74L8.2,10.16l-0.02-0.02c-1.78-1.78-1.79-4.68,0-6.46s4.68-1.79,6.46,0
		c0.15,0.15,0.4,0.15,0.55,0c1.79-1.75,4.66-1.74,6.44,0.02l0,0C23.4,5.47,23.41,8.34,21.65,10.13L21.65,10.13z"/>
	<path id="Path_27178" class="st0" d="M12.96,5.58c-0.09-0.2-0.32-0.28-0.52-0.19c-0.09,0.04-0.15,0.11-0.19,0.19L11.2,7.87H9.16
		C8.94,7.88,8.77,8.07,8.78,8.28c0.01,0.2,0.17,0.36,0.37,0.37h2.3c0.03,0,0.06-0.01,0.1-0.01l0.02-0.01
		c0.03-0.01,0.05-0.02,0.08-0.03l0.02-0.01c0.03-0.02,0.05-0.04,0.07-0.06l0.02-0.02c0.02-0.02,0.04-0.05,0.05-0.08
		c0,0,0-0.01,0.01-0.01l0.79-1.74l0.15,0.33c0.09,0.2,0.32,0.28,0.52,0.19c0.2-0.09,0.28-0.32,0.19-0.52L12.96,5.58z"/>
	<path id="Path_27179" class="st0" d="M20.67,7.87h-2.31l-0.83-1.36c-0.07-0.12-0.2-0.19-0.34-0.19c-0.14,0-0.27,0.08-0.33,0.2
		l-1.92,3.4l-0.6-1.33C14.23,8.4,14,8.32,13.8,8.42c-0.19,0.09-0.27,0.31-0.19,0.5l0.92,2.03c0.06,0.13,0.19,0.22,0.34,0.23h0.02
		c0.14,0,0.27-0.08,0.34-0.2l1.97-3.49l0.6,0.98l0,0.01c0.01,0.01,0.02,0.02,0.03,0.04c0.01,0.01,0.01,0.02,0.02,0.03
		c0.01,0.01,0.02,0.02,0.03,0.03c0.01,0.01,0.02,0.02,0.03,0.02c0.01,0.01,0.02,0.01,0.03,0.02c0.01,0.01,0.02,0.01,0.04,0.02
		c0.01,0,0.02,0.01,0.03,0.01c0.01,0.01,0.03,0.01,0.04,0.01h0.03c0.02,0,0.03,0,0.05,0.01h2.53c0.22,0,0.39-0.18,0.39-0.39
		C21.06,8.04,20.89,7.87,20.67,7.87L20.67,7.87z"/>
	<path id="Path_27180" class="st0" d="M1.71,19.42l2.75,0.03h0.02c0.63,0,1.19-0.39,1.42-0.98l0.05,0.01
		c0.46,0.07,0.89,0.28,1.22,0.61l2.14,2.14c0.55,0.55,1.27,0.89,2.05,0.98l2.15,0.23c0.09,0.02,0.18,0.03,0.28,0.03h0.03l3.48-0.11
		c0.26-0.01,0.51-0.12,0.69-0.3c0.2-0.2,0.31-0.48,0.3-0.76c-0.03-1-0.87-1.79-1.87-1.75c0,0,0,0-0.01,0l-1.65,0.05l-1.12-0.27
		c0-0.35-0.14-0.69-0.39-0.94l-1.84-1.84l-0.11-0.63c-0.07-0.42-0.27-0.8-0.57-1.11l-1.27-1.27c-0.37-0.38-0.88-0.59-1.41-0.6
		l-2.09-0.05c-0.21-0.61-0.77-1.02-1.42-1.03l-2.75-0.03H1.77c-0.83,0-1.5,0.67-1.51,1.5l-0.05,4.56C0.2,18.72,0.87,19.4,1.71,19.42
		L1.71,19.42z M8.9,14.09l1.27,1.27c0.19,0.19,0.31,0.42,0.35,0.68l0.13,0.76c0,0.01,0.01,0.03,0.02,0.04
		c0.01,0.05,0.04,0.1,0.07,0.14c0.01,0.01,0.01,0.02,0.02,0.03l1.93,1.93c0.21,0.21,0.21,0.55,0,0.77c-0.21,0.21-0.55,0.21-0.77,0
		l-2.21-2.21c-0.16-0.14-0.41-0.13-0.55,0.03c-0.13,0.15-0.13,0.37,0,0.52l2.21,2.21c0.51,0.52,1.34,0.52,1.86,0.01
		c0.06-0.06,0.12-0.13,0.17-0.2l1.22,0.3h0.01c0.02,0,0.04,0.01,0.06,0.01c0.01,0,0.02,0,0.02,0h0.01l1.71-0.05
		c0.57-0.02,1.04,0.42,1.06,0.99c0,0.07-0.02,0.13-0.07,0.18c-0.04,0.04-0.1,0.07-0.16,0.07l-3.45,0.11l-0.24-0.03h-0.03l-2.11-0.22
		c-0.59-0.06-1.15-0.33-1.57-0.75l-2.14-2.14c-0.45-0.45-1.03-0.73-1.66-0.82l-0.07-0.01l0.04-4.02l2,0.04
		C8.36,13.72,8.67,13.86,8.9,14.09z M1.04,13.33c0.01-0.4,0.33-0.72,0.73-0.72h0.01l2.75,0.03c0.4,0.01,0.72,0.34,0.72,0.74
		L5.2,17.94c-0.01,0.4-0.33,0.72-0.73,0.72H4.47l-2.75-0.03C1.31,18.63,0.99,18.3,1,17.9L1.04,13.33z"/>
	<circle id="Ellipse_307" class="st0" cx="4.12" cy="17.77" r="0.65"/>
</g>
</svg>
