<svg xmlns="http://www.w3.org/2000/svg" width="24" height="20.571" viewBox="0 0 24 20.571">
  <g id="noun_gynecology_1050584" transform="translate(-0.876 -8.7)">
    <g id="Group_714" data-name="Group 714" transform="translate(0.876 8.7)">
      <path id="Path_12470" data-name="Path 12470" d="M23.971,13.3a7.525,7.525,0,0,0-3.944-.723H18.713a.5.5,0,0,0-.239.1,2.672,2.672,0,0,0-1.2-.964,5.715,5.715,0,0,0-6.493,0l-.04.048a2.17,2.17,0,0,1-.4.145,2.6,2.6,0,0,0-.876.819.5.5,0,0,0-.239-.1,11.967,11.967,0,0,1-1.315,0,7.018,7.018,0,0,0-3.944.723,4.687,4.687,0,0,0-1.992,4.48c.04,2.457,1.354,4.866,2.948,5.54a2.091,2.091,0,0,0,.916.193,3.2,3.2,0,0,0,2.47-1.542,2.647,2.647,0,0,0,.359-3.035,2.425,2.425,0,0,0-3.187-.819A3.033,3.033,0,0,0,3.973,21.01a6.712,6.712,0,0,1-1.036-3.276A3.535,3.535,0,0,1,4.372,14.41a6.655,6.655,0,0,1,3.506-.578H9.033c0,.048-.04.145-.04.193a3.05,3.05,0,0,0,.8,2.553h0c0,.145.04.337.04.53v.048c0,.193.04.385.04.626a22.607,22.607,0,0,0,.438,2.794c.08.289.12.53.2.771a2.778,2.778,0,0,1,.12,1.59,5.577,5.577,0,0,0,.359,4.047l.239,1.734a2.97,2.97,0,0,0,2.311,2.505l.12.048h.637l.159-.048a2.917,2.917,0,0,0,2.311-2.457L17,26.936a5.439,5.439,0,0,0,.359-4,3.17,3.17,0,0,1,.12-1.59c.08-.241.12-.482.2-.771a22,22,0,0,0,.438-2.842c0-.193.04-.385.04-.626a2.378,2.378,0,0,1,.04-.53,5.049,5.049,0,0,0,.359-.53c.04-.1.12-.241.159-.337a3.453,3.453,0,0,0,.2-1.686h0c0-.048-.04-.1-.04-.145h1.155a6.59,6.59,0,0,1,3.506.578,3.5,3.5,0,0,1,1.434,3.324,6.712,6.712,0,0,1-1.036,3.276,3.033,3.033,0,0,0-1.514-2.842,2.368,2.368,0,0,0-3.187.819,2.716,2.716,0,0,0,.359,3.035,3.2,3.2,0,0,0,2.47,1.542,2.091,2.091,0,0,0,.916-.193c1.593-.674,2.868-3.083,2.988-5.588A4.8,4.8,0,0,0,23.971,13.3ZM5.846,19.275a1.507,1.507,0,0,1,1.992.385A1.4,1.4,0,0,1,7.519,21.2C6.762,22.214,6,22.551,5.208,22.214a1.307,1.307,0,0,1-.359-.193.726.726,0,0,0,.04-.289C4.889,20.287,5.089,19.661,5.846,19.275ZM17.8,15.18c-.04.048-.04.145-.08.193a1.683,1.683,0,0,1-.319.434l-.08.1-.08.241c0,.1-.04.145-.04.241a3.57,3.57,0,0,0-.04.674c0,.193-.04.385-.04.578a19.139,19.139,0,0,1-.438,2.65c-.04.241-.12.482-.159.723a4.285,4.285,0,0,0-.159,2.264,4.06,4.06,0,0,1-.279,3.083l-.08.1-.279,2.072a1.952,1.952,0,0,1-1.514,1.493h-.558a1.79,1.79,0,0,1-1.514-1.493L11.861,26.5l-.08-.1a4.09,4.09,0,0,1-.279-3.083,4.245,4.245,0,0,0-.159-2.264c-.04-.241-.12-.434-.159-.723a15.933,15.933,0,0,1-.4-2.65c0-.193-.04-.385-.04-.578v-.048c0-.241-.04-.434-.04-.626a1.062,1.062,0,0,0-.08-.385l-.04-.145-.239-.241a1.765,1.765,0,0,1-.438-1.445,1.581,1.581,0,0,1,.757-1.2.882.882,0,0,1,.279-.1l.239-.1a5.027,5.027,0,0,1,5.537,0l.04.048c.04,0,.08.048.12.048a1.57,1.57,0,0,1,1,1.3A1.634,1.634,0,0,1,17.8,15.18Zm4.82,7.034c-.8.337-1.554,0-2.311-1.012a1.479,1.479,0,0,1-.319-1.542,1.437,1.437,0,0,1,1.2-.626,1.619,1.619,0,0,1,.8.193c.757.385.956,1.012.916,2.457a.726.726,0,0,0,.04.289A.545.545,0,0,1,22.617,22.214Z" transform="translate(-1.969 -10.7)" fill="#4a47ea"/>
    </g>
  </g>
</svg>
