<svg xmlns="http://www.w3.org/2000/svg" width="24.266" height="24.292" viewBox="0 0 24.266 24.292">
  <g id="NUTRICION" transform="translate(-5.174 -8.008)">
    <path id="Path_12598" data-name="Path 12598" d="M79.219,14.579a.989.989,0,1,0-.989-.989A.989.989,0,0,0,79.219,14.579Zm0-1.463a.474.474,0,1,1-.474.474A.474.474,0,0,1,79.219,13.115Z" transform="translate(-54.13 -3.285)" fill="#4a47ea" stroke="#4a47ea" stroke-width="0.25"/>
    <path id="Path_12599" data-name="Path 12599" d="M51.649,50.89a.989.989,0,1,0,.989.989A.989.989,0,0,0,51.649,50.89Zm0,1.463a.474.474,0,1,1,.474-.474A.474.474,0,0,1,51.649,52.353Z" transform="translate(-33.663 -30.197)" fill="#4a47ea" stroke="#4a47ea" stroke-width="0.25"/>
    <path id="Path_12600" data-name="Path 12600" d="M21.089,17.719a.989.989,0,1,0-.989-.989A.989.989,0,0,0,21.089,17.719Zm0-1.463a.47.47,0,1,1-.336.137.474.474,0,0,1,.336-.137Z" transform="translate(-10.976 -5.616)" fill="#4a47ea" stroke="#4a47ea" stroke-width="0.25"/>
    <path id="Path_12601" data-name="Path 12601" d="M61.069,18.275a.258.258,0,0,0,.211-.111l.175-.258a14.427,14.427,0,0,0,1.082-1.829,4.1,4.1,0,0,0,2.1-2.265,4.288,4.288,0,0,0-.757-3.19.258.258,0,0,0-.312-.085A4.3,4.3,0,0,0,61.29,12.89h0A4.2,4.2,0,0,0,62,16.008a13.928,13.928,0,0,1-.966,1.608l-.175.258a.258.258,0,0,0,.211.4Zm.719-5.243h0a3.581,3.581,0,0,1,1.8-1.919,3.607,3.607,0,0,1,.562,2.576,3.062,3.062,0,0,1-1.224,1.561,14.429,14.429,0,0,0,.672-2.033l.075-.3a.258.258,0,1,0-.5-.121l-.075.3a13.912,13.912,0,0,1-.835,2.365A3.44,3.44,0,0,1,61.788,13.032Z" transform="translate(-41.199 -1.738)" fill="#4a47ea" stroke="#4a47ea" stroke-width="0.25"/>
    <path id="Path_12602" data-name="Path 12602" d="M24.159,68.786a.259.259,0,1,0-.448.258q.121.214.258.417a.258.258,0,1,0,.43-.286Q24.275,68.985,24.159,68.786Z" transform="translate(-13.631 -42.868)" fill="#4a47ea" stroke="#4a47ea" stroke-width="0.25"/>
    <path id="Path_12603" data-name="Path 12603" d="M29.612,74.963c-.167-.085-.335-.178-.5-.273s-.384-.242-.564-.371a7.2,7.2,0,0,1-.873-.745l-.1-.1a1.817,1.817,0,0,1-.16-.173.258.258,0,0,0-.394.332,2.236,2.236,0,0,0,.2.211l.09.09a7.71,7.71,0,0,0,.938.8c.193.139.394.273.6.4s.348.2.515.291a.258.258,0,1,0,.232-.459Z" transform="translate(-16.072 -45.622)" fill="#4a47ea" stroke="#4a47ea" stroke-width="0.25"/>
    <path id="Path_12604" data-name="Path 12604" d="M33.467,32.282a1.108,1.108,0,0,0,.183.015,1.4,1.4,0,0,0,1.3-1.234,1.546,1.546,0,0,0-.188-1.051,1.188,1.188,0,0,0-.827-.582,1.357,1.357,0,0,0-1.487,1.219A1.546,1.546,0,0,0,32.64,31.7,1.188,1.188,0,0,0,33.467,32.282Zm-.515-1.546a.889.889,0,0,1,.794-.8.62.62,0,0,1,.1,0,.683.683,0,0,1,.469.338,1.03,1.03,0,0,1,.121.7.85.85,0,0,1-.894.794.683.683,0,0,1-.451-.332,1.031,1.031,0,0,1-.131-.7Z" transform="translate(-20.128 -14.977)" fill="#4a47ea" stroke="#4a47ea" stroke-width="0.25"/>
    <path id="Path_12605" data-name="Path 12605" d="M23.08,16.756a4.364,4.364,0,0,0,2.6,3.027q.126.052.258.1a4.638,4.638,0,0,0,1.51.258,4.73,4.73,0,0,0,3.849-1.974,3.494,3.494,0,0,0,.575-2.667l-.026-.137a3.558,3.558,0,0,1,.363-2.337,3.372,3.372,0,0,0,.206-2.705,3.123,3.123,0,0,0-1.724-1.878,2.434,2.434,0,0,0-.229-.088,3.393,3.393,0,0,0-3.684,1.031l-2.759,3.3a4.637,4.637,0,0,0-.935,4.076Zm4.081-7.041a2.875,2.875,0,0,1,3.123-.871c.067.023.129.046.193.075a2.612,2.612,0,0,1,1.448,1.561,2.865,2.865,0,0,1-.183,2.319,4.066,4.066,0,0,0-.407,2.674l.026.137a2.976,2.976,0,0,1-.49,2.265A4.21,4.21,0,0,1,26.1,19.42l-.232-.088a3.865,3.865,0,0,1-2.288-2.7,4.122,4.122,0,0,1,.83-3.622Z" transform="translate(-13.088 0)" fill="#4a47ea" stroke="#4a47ea" stroke-width="0.25"/>
    <path id="Path_12606" data-name="Path 12606" d="M67.123,39.482a3.725,3.725,0,0,0-1.288.9l-.077.09a1.929,1.929,0,0,0-.258.327,3.37,3.37,0,0,0-.258,2.888.258.258,0,0,0,.479-.188,2.857,2.857,0,0,1,.234-2.445,1.528,1.528,0,0,1,.185-.242l.085-.1a3.251,3.251,0,0,1,1.118-.773.258.258,0,1,0-.237-.459Z" transform="translate(-44.331 -21.958)" fill="#4a47ea" stroke="#4a47ea" stroke-width="0.25"/>
    <path id="Path_12607" data-name="Path 12607" d="M29.3,20.509a1,1,0,0,0-.969-.957,1.03,1.03,0,0,0-.756-.827.911.911,0,0,0-.969.453,1.231,1.231,0,0,0-.032,1.2l-.876,1.3a.939.939,0,0,0-1.054.268l-.309.345a9.043,9.043,0,0,1-2.86,2.152,3.409,3.409,0,0,0-1.59,1.572,4.253,4.253,0,0,0,.479,4.564h-8.3a.289.289,0,0,0-.039-.109l-.015-.032-1.193-2.214a20,20,0,0,1-1.644-4.072l-.7-2.479a1.479,1.479,0,0,0-.755-.942,1.32,1.32,0,0,0-.294-.1l-.09-1.148a.6.6,0,0,0-.442-.563.528.528,0,0,0-.588.348.186.186,0,0,1-.1.1.155.155,0,0,1-.134-.009.5.5,0,0,0-.63.151.689.689,0,0,0-.058.732l.536.948a2.144,2.144,0,0,0-.276,1.9l.7,2.482a20.631,20.631,0,0,0,1.7,4.2l.438.8H8.067a.278.278,0,0,0-.258.294c0,5.374,3.707,9.128,9.017,9.128s9.017-3.754,9.017-9.128a.278.278,0,0,0-.258-.294h-.5c.044-.05.1-.1.137-.15a3.99,3.99,0,0,0,.809-2.205,11.5,11.5,0,0,1,.9-3.778l.2-.456a1.33,1.33,0,0,0,0-1.034l.861-1.275a1.043,1.043,0,0,0,.33.053.955.955,0,0,0,.8-.406A1.212,1.212,0,0,0,29.3,20.509ZM5.828,19.891a.019.019,0,0,1,.031,0,.658.658,0,0,0,.92-.374.023.023,0,0,1,.028-.018c.021,0,.021.015.021.026l.085,1.081a1.6,1.6,0,0,0-.495.168.79.79,0,0,0-.08.053l-.515-.9a.026.026,0,0,1-.006-.021A.024.024,0,0,1,5.828,19.891Zm2.659,9.558a20,20,0,0,1-1.644-4.072l-.7-2.462a1.288,1.288,0,0,1,.492-1.6.992.992,0,0,1,.889-.044.926.926,0,0,1,.466.589l.216.763-.855.265a.3.3,0,0,0-.18.362.256.256,0,0,0,.317.206l.876-.274.325,1.151c.077.277.167.548.258.819l-.853.265a.3.3,0,0,0-.18.362.256.256,0,0,0,.317.206l.907-.294q.258.739.582,1.449l-.6.315A.314.314,0,0,0,9,27.844a.246.246,0,0,0,.343.144l.618-.327c.139.294.281.589.433.86l.232.427-.912.71a.322.322,0,0,0-.067.409.238.238,0,0,0,.358.077l.9-.689.59,1.116H9.1Zm8.34,9.955h0c-4.367,0-7.5-2.529-8.3-6.478h16.6C24.329,36.875,21.194,39.4,16.827,39.4Zm8.4-7.067H8.428a10.5,10.5,0,0,1-.1-1.178h17A10.5,10.5,0,0,1,25.226,32.337Zm1.432-8.616-.191.445a12.155,12.155,0,0,0-.948,3.993,3.354,3.354,0,0,1-.678,1.864,3.1,3.1,0,0,1-.564.548H21.145a.283.283,0,0,0-.044-.053q-.082-.068-.16-.141a3.571,3.571,0,0,1-.6-4.078,2.864,2.864,0,0,1,1.337-1.322A9.556,9.556,0,0,0,24.7,22.7l.309-.345a.468.468,0,0,1,.662-.056l.824.683a.643.643,0,0,1,.16.739ZM28.7,20.96a.53.53,0,0,1-.68.1H27.99l-.049-.018h-.1l-.046.018-.044.024a.271.271,0,0,0-.039.038.254.254,0,0,0-.026.027L26.777,22.5l-.626-.53.927-1.372h0a.325.325,0,0,0,0-.415.569.569,0,0,1-.056-.622.424.424,0,0,1,.512-.221.512.512,0,0,1,.317.51.3.3,0,0,0,.16.294.231.231,0,0,0,.211.035.4.4,0,0,1,.4.085.529.529,0,0,1,.171.34.563.563,0,0,1-.091.378Z" transform="translate(0 -7.818)" fill="#4a47ea" stroke="#4a47ea" stroke-width="0.25"/>
    <path id="Path_12608" data-name="Path 12608" d="M29.354,21.6l.2.075h0a3.313,3.313,0,0,0,1.077.178,3.808,3.808,0,0,0,3.115-1.716,3.146,3.146,0,0,0,.5-2.205l-.018-.111a3.135,3.135,0,0,1,.325-1.907,2.976,2.976,0,0,0,.178-2.357A2.365,2.365,0,0,0,33.44,12.15q-.088-.039-.178-.07a2.638,2.638,0,0,0-2.891.92L28.2,15.764a4.122,4.122,0,0,0-.757,3.566A3.311,3.311,0,0,0,29.354,21.6Zm-.747-5.508,2.167-2.752a2.123,2.123,0,0,1,2.319-.773l.139.054a1.855,1.855,0,0,1,1,1.108,2.468,2.468,0,0,1-.155,1.961,3.643,3.643,0,0,0-.358,2.205l.018.111a2.623,2.623,0,0,1-.417,1.84,3.184,3.184,0,0,1-3.607,1.34l-.157-.062A2.8,2.8,0,0,1,27.947,19.2,3.607,3.607,0,0,1,28.606,16.091Z" transform="translate(-16.335 -2.809)" fill="#4a47ea" stroke="#4a47ea" stroke-width="0.25"/>
    <path id="Path_12609" data-name="Path 12609" d="M48.189,18.731a.259.259,0,1,0,.466.224,2.423,2.423,0,0,0-.443-2.924.258.258,0,0,0-.322.4A1.912,1.912,0,0,1,48.189,18.731Z" transform="translate(-31.539 -5.794)" fill="#4a47ea" stroke="#4a47ea" stroke-width="0.25"/>
  </g>
</svg>
