<svg xmlns="http://www.w3.org/2000/svg" width="22.818" height="22.481" viewBox="0 0 22.818 22.481">
  <g id="noun_Baby_2374425" transform="translate(0 -19.132)">
    <g id="Group_706" data-name="Group 706" transform="translate(0 19.132)">
      <circle id="Ellipse_137" data-name="Ellipse 137" cx="0.906" cy="0.906" r="0.906" transform="translate(5.745 12.911)" fill="#4a47ea"/>
      <circle id="Ellipse_138" data-name="Ellipse 138" cx="0.906" cy="0.906" r="0.906" transform="translate(15.261 12.911)" fill="#4a47ea"/>
      <path id="Path_12439" data-name="Path 12439" d="M22.818,32.508a2.866,2.866,0,0,0-2.2-2.875V29.2c0-5.552-4.131-10.068-9.209-10.068S2.2,23.649,2.2,29.2v.433a2.977,2.977,0,0,0,.032,5.756A5.914,5.914,0,0,0,5,40.266a12.269,12.269,0,0,0,6.409,1.348,12.27,12.27,0,0,0,6.409-1.348,5.914,5.914,0,0,0,2.768-4.876A2.862,2.862,0,0,0,22.818,32.508Zm-21.875,0A1.876,1.876,0,0,1,2.2,30.69v3.636A1.876,1.876,0,0,1,.943,32.508Zm18.731,2.07c0,2.265-.758,3.831-2.318,4.789a11.467,11.467,0,0,1-5.947,1.216h0a11.467,11.467,0,0,1-5.947-1.216c-1.56-.958-2.318-2.524-2.318-4.789V29.2a8.986,8.986,0,0,1,5.891-8.656,3.864,3.864,0,0,1,3.974,3.564,1.979,1.979,0,0,1-1.883,2.058,1.484,1.484,0,0,1-1.412-1.544,1.088,1.088,0,0,1,1.035-1.132.518.518,0,0,0,0-1.031,2.079,2.079,0,0,0-1.978,2.163A2.475,2.475,0,0,0,11.126,27.2a2.97,2.97,0,0,0,2.826-3.09,4.6,4.6,0,0,0-1.316-3.08,4.829,4.829,0,0,0-1.114-.863c4.506.066,8.153,4.094,8.153,9.035v5.378Zm.943-.252V30.69a1.943,1.943,0,0,1,0,3.636Z" transform="translate(0 -19.132)" fill="#4a47ea"/>
      <path id="Path_12440" data-name="Path 12440" d="M140.338,265.915h-6.1a.472.472,0,0,0-.472.472,3.523,3.523,0,1,0,7.046,0A.472.472,0,0,0,140.338,265.915Zm-3.051,3.051a2.584,2.584,0,0,1-2.536-2.108h1.66v.446a.472.472,0,1,0,.943,0v-.446h2.47A2.584,2.584,0,0,1,137.287,268.966Z" transform="translate(-125.878 -249.447)" fill="#4a47ea"/>
    </g>
  </g>
</svg>
