<svg xmlns="http://www.w3.org/2000/svg" width="24.25" height="24.25" viewBox="0 0 24.25 24.25">
  <g id="psicopedagogia" transform="translate(0.125 0.125)">
    <path id="Path_12550" data-name="Path 12550" d="M9.253,37.125H3.518A.3.3,0,0,0,3.4,37.1H-2.708a6.017,6.017,0,0,0-5.868,6.147v5.735A.3.3,0,0,0-8.6,49.1v6.108a6.02,6.02,0,0,0,6.147,5.868H3.282A.3.3,0,0,0,3.4,61.1H9.508a6.028,6.028,0,0,0,5.872-6.147V49.2a.256.256,0,0,0,.02-.1V42.992A6.017,6.017,0,0,0,9.253,37.125Zm-17.24,6.123a5.43,5.43,0,0,1,5.279-5.558H3.106V41.4a.288.288,0,0,0,.137.25.293.293,0,0,0,.285.015,1.738,1.738,0,0,1,.77-.177,1.761,1.761,0,1,1-.77,3.346.293.293,0,0,0-.285.015.3.3,0,0,0-.137.25v3.7H-.167a2.263,2.263,0,0,0,.078-.6,2.359,2.359,0,0,0-2.355-2.355h-.01A2.355,2.355,0,0,0-4.808,48.2a2.263,2.263,0,0,0,.078.6H-7.987ZM3.106,60.487H-2.453a5.43,5.43,0,0,1-5.558-5.279V49.394H-4.3a.288.288,0,0,0,.25-.137.293.293,0,0,0,.015-.285,1.738,1.738,0,0,1-.177-.77,1.764,1.764,0,0,1,1.761-1.766A1.767,1.767,0,0,1-.687,48.2a1.738,1.738,0,0,1-.177.77.293.293,0,0,0,.015.285.3.3,0,0,0,.25.137h3.7v3.272a2.264,2.264,0,0,0-.6-.078A2.355,2.355,0,0,0,.147,54.943v.01A2.359,2.359,0,0,0,2.5,57.308a2.263,2.263,0,0,0,.6-.079Zm11.681-5.534a5.43,5.43,0,0,1-5.279,5.558H3.694V56.793a.288.288,0,0,0-.137-.25.293.293,0,0,0-.285-.015,1.738,1.738,0,0,1-.77.177,1.759,1.759,0,1,1,0-3.518,1.738,1.738,0,0,1,.77.177.294.294,0,0,0,.285-.015.3.3,0,0,0,.137-.25v-3.7H6.967a2.264,2.264,0,0,0-.078.6,2.355,2.355,0,0,0,2.355,2.355h.01A2.359,2.359,0,0,0,11.608,50a2.263,2.263,0,0,0-.078-.6h3.258Zm.025-6.147H11.1a.288.288,0,0,0-.25.137.293.293,0,0,0-.015.285,1.738,1.738,0,0,1,.177.77,1.761,1.761,0,1,1-3.522,0,1.738,1.738,0,0,1,.177-.77.294.294,0,0,0-.015-.285.3.3,0,0,0-.25-.137h-3.7V45.538a2.264,2.264,0,0,0,.6.079,2.355,2.355,0,0,0,2.355-2.355v-.015A2.355,2.355,0,0,0,4.3,40.892a2.264,2.264,0,0,0-.6.078V37.713H9.253a5.43,5.43,0,0,1,5.558,5.279v5.814Z" transform="translate(8.6 -37.1)" fill="#4a47ea" stroke="#4a47ea" stroke-width="0.25"/>
  </g>
</svg>
