<?xml version="1.0" encoding="utf-8"?>
<!-- Generator: Adobe Illustrator 24.0.1, SVG Export Plug-In . SVG Version: 6.00 Build 0)  -->
<svg version="1.1" id="Layer_1" xmlns="http://www.w3.org/2000/svg" xmlns:xlink="http://www.w3.org/1999/xlink" x="0px" y="0px"
	 viewBox="0 0 24 24" style="enable-background:new 0 0 24 24;" xml:space="preserve">
<style type="text/css">
	.st0{fill:#58F9DA;}
	.st1{fill:#4A47EA;}
</style>
<g id="Group_997" transform="translate(-6.93 -5.33)">
	<g id="Group_996" transform="translate(11.9 10.3)">
		<g id="Group_995" transform="translate(0 0)">
			<path id="Path_27135" class="st0" d="M16.8,0.5h-3.9c-0.2,0-0.5-0.2-0.5-0.4c0,0,0,0,0,0v-3.6c0.3,0.1,0.6,0.3,0.8,0.5l3,2.9
				C16.5-0.1,16.7,0.2,16.8,0.5z"/>
			<g transform="matrix(1, 0, 0, 1, -4.97, -4.97)">
				<path id="Path_27136-2" class="st0" d="M21.9,6.4v14.4c0,1.1-0.9,2-2.1,2H4.2c-1.2,0-2.1-0.9-2.1-2V3.2c0-0.5,0.2-1,0.6-1.4
					c0.4-0.4,0.9-0.6,1.5-0.6l12.2,0V5c0,0.8,0.7,1.4,1.5,1.4L21.9,6.4z M18.7,13.4c0-0.3-0.2-0.5-0.5-0.5h-7
					c-0.3,0-0.5,0.2-0.5,0.5c0,0.3,0.2,0.5,0.5,0.5h7C18.5,13.9,18.7,13.7,18.7,13.4C18.7,13.4,18.7,13.4,18.7,13.4z M18.7,8.5
					c0-0.3-0.2-0.5-0.5-0.5c0,0,0,0,0,0h-7c-0.3,0-0.5,0.2-0.5,0.5c0,0.3,0.2,0.5,0.5,0.5h7C18.5,9,18.7,8.8,18.7,8.5
					C18.7,8.5,18.7,8.5,18.7,8.5z M18.7,18.3c0-0.3-0.2-0.5-0.5-0.5c0,0,0,0,0,0h-7c-0.3,0-0.5,0.2-0.5,0.5c0,0.3,0.2,0.5,0.5,0.5h7
					C18.5,18.8,18.7,18.6,18.7,18.3C18.7,18.4,18.7,18.3,18.7,18.3L18.7,18.3z M9.3,7.9c0.2-0.2,0.2-0.5,0-0.7C9.1,7,8.8,7,8.6,7.2
					L6.8,8.8L6.1,8.2C5.9,8,5.6,8,5.4,8.2c-0.2,0.2-0.2,0.5,0,0.7l0,0l1.1,1C6.5,10,6.7,10,6.8,10C7,10,7.1,9.9,7.2,9.9L9.3,7.9z
					 M9.3,12.8c0.2-0.2,0.2-0.5,0-0.7c-0.2-0.2-0.5-0.2-0.7,0l-1.7,1.6l-0.7-0.6c-0.2-0.2-0.5-0.2-0.7,0c-0.2,0.2-0.2,0.5,0,0.7l0,0
					l1.1,1c0.1,0.1,0.2,0.1,0.4,0.1c0.1,0,0.3-0.1,0.4-0.1L9.3,12.8z M9.3,17.7c0.2-0.2,0.2-0.5,0-0.7c-0.2-0.2-0.5-0.2-0.7,0
					c0,0,0,0,0,0l-1.7,1.6L6.1,18c-0.2-0.2-0.5-0.2-0.7,0c-0.2,0.2-0.2,0.5,0,0.7l1.1,1c0.1,0.1,0.2,0.1,0.4,0.1
					c0.1,0,0.3-0.1,0.4-0.1L9.3,17.7z"/>
			</g>
			<path id="Path_27137" class="st1" d="M17.9,1.1v14.7c0,1.6-1.4,2.9-3.1,2.9H-0.8c-1.7,0-3.1-1.3-3.1-2.9V-1.8
				c0-0.8,0.3-1.5,0.9-2.1c0.3-0.3,0.6-0.5,1-0.6c0.4-0.1,0.8-0.2,1.2-0.2l12.6,0c0.8,0,1.6,0.3,2.2,0.9L17-1
				C17.6-0.4,17.9,0.3,17.9,1.1z M16.9,15.8V1.4h-4c-0.8,0-1.5-0.6-1.5-1.4v-3.7l-12.2,0c-0.6,0-1.1,0.2-1.5,0.6
				c-0.4,0.4-0.6,0.9-0.6,1.4v17.6c0,1.1,0.9,2,2.1,2h15.6C16,17.8,16.9,16.9,16.9,15.8z M12.9,0.5h3.9c-0.1-0.3-0.3-0.5-0.5-0.8
				l-3-2.9c-0.2-0.2-0.5-0.4-0.8-0.5V0C12.5,0.3,12.7,0.5,12.9,0.5C12.9,0.5,12.9,0.5,12.9,0.5z"/>
			<path id="Path_27138" class="st1" d="M13.2,8c0.3,0,0.5,0.2,0.5,0.5c0,0.3-0.2,0.5-0.5,0.5c0,0,0,0,0,0h-7
				c-0.3,0-0.5-0.2-0.5-0.5C5.7,8.2,5.9,8,6.2,8H13.2z"/>
			<path id="Path_27139" class="st1" d="M13.2,3.1c0.3,0,0.5,0.2,0.5,0.5c0,0.3-0.2,0.5-0.5,0.5h-7C5.9,4,5.7,3.8,5.7,3.5
				c0-0.3,0.2-0.5,0.5-0.5H13.2z"/>
			<path id="Path_27140" class="st1" d="M13.2,12.9c0.3,0,0.5,0.2,0.5,0.5c0,0.3-0.2,0.5-0.5,0.5c0,0,0,0,0,0h-7
				c-0.3,0-0.5-0.2-0.5-0.5c0-0.3,0.2-0.5,0.5-0.5H13.2z"/>
			<path id="Path_27141" class="st1" d="M3.6,2.2C3.8,2,4.1,2,4.3,2.2s0.2,0.5,0,0.7l-2.1,2C2.1,5,2,5,1.9,5C1.7,5,1.6,5,1.5,4.9
				l-1.1-1c-0.2-0.2-0.2-0.5,0-0.7C0.6,3,1,3,1.2,3.2l0.7,0.6L3.6,2.2z"/>
			<path id="Path_27142" class="st1" d="M3.6,7.1c0.2-0.2,0.5-0.2,0.7,0s0.2,0.5,0,0.7l0,0l-2.1,2C2.1,9.9,2,9.9,1.9,9.9
				c-0.1,0-0.3,0-0.4-0.1l-1.1-1c-0.2-0.2-0.2-0.5,0-0.7c0.2-0.2,0.5-0.2,0.7,0l0.7,0.6L3.6,7.1z"/>
			<path id="Path_27143" class="st1" d="M3.6,12.1c0.2-0.2,0.5-0.2,0.7,0c0,0,0,0,0,0c0.2,0.2,0.2,0.5,0,0.7l-2.1,2
				c-0.1,0.1-0.2,0.1-0.4,0.1c-0.1,0-0.3,0-0.4-0.1l-1.1-1c-0.2-0.2-0.2-0.5,0-0.7c0.2-0.2,0.5-0.2,0.7,0l0.7,0.6L3.6,12.1z"/>
		</g>
	</g>
</g>
</svg>
