<svg xmlns="http://www.w3.org/2000/svg" width="24.354" height="24.226" viewBox="0 0 24.354 24.226">
  <g id="traumatologia" transform="translate(-6.515 -5.115)">
    <g id="Group_848" data-name="Group 848" transform="translate(6.718 5.331)">
      <g id="Group_846" data-name="Group 846" transform="translate(15.429 10.554)">
        <path id="Path_12548" data-name="Path 12548" d="M63.591,44.751a.341.341,0,0,1-.341-.341v-.068a.341.341,0,1,1,.682,0v.068A.341.341,0,0,1,63.591,44.751Z" transform="translate(-63.25 -44)" fill="#4a47ea" stroke="#4a47ea" stroke-width="0.25"/>
      </g>
      <g id="Group_847" data-name="Group 847" transform="translate(0 0)">
        <path id="Path_12549" data-name="Path 12549" d="M11.858,29.217a3.074,3.074,0,0,1-.878-.127,2.747,2.747,0,0,1-1.928-2.225l-.07-.278a2.332,2.332,0,0,1-1.657-.753,2.7,2.7,0,0,1,.09-3.5,2.832,2.832,0,0,1,3.5-.949.337.337,0,0,1,.082.061l.046.046c2.8-2.488,5.467-5.248,8.049-7.92l.653-.675c.528-.546,2.125-2.219,2.736-2.86a2.4,2.4,0,0,1-.473-3A3.787,3.787,0,0,1,26.633,5.6a1.854,1.854,0,0,1,1.2,1.1,2.136,2.136,0,0,1-.018,1.324,2.837,2.837,0,0,1,2.439,1.05,2.814,2.814,0,0,1-.027,3.153c-.93,1.66-3.658,1.549-4.392,1.486a11.847,11.847,0,0,1-.939.88,6.3,6.3,0,0,0-.84.817.341.341,0,0,1-.536-.422,6.878,6.878,0,0,1,.929-.91,10.164,10.164,0,0,0,.995-.947.339.339,0,0,1,.3-.112c.03,0,3.059.36,3.89-1.125a2.143,2.143,0,0,0,.077-2.41,2.305,2.305,0,0,0-2.362-.707.341.341,0,0,1-.371-.506,1.882,1.882,0,0,0,.213-1.345,1.2,1.2,0,0,0-.789-.686,3.142,3.142,0,0,0-3.8,1.128,1.774,1.774,0,0,0,.585,2.382.341.341,0,0,1,.031.5s-2.322,2.435-2.981,3.116l-.652.675c-2.665,2.758-5.421,5.609-8.329,8.17a.341.341,0,0,1-.467-.015l-.235-.235a2.145,2.145,0,0,0-2.6.791,2.021,2.021,0,0,0-.111,2.63,1.8,1.8,0,0,0,1.414.53.342.342,0,0,1,.329.258l.136.546a2.071,2.071,0,0,0,1.457,1.717,2.4,2.4,0,0,0,2.337-.565,1.819,1.819,0,0,0,.329-1.982l-.274-.822a.342.342,0,0,1,.078-.345c.571-.593,1.132-1.1,1.675-1.594.585-.53,1.138-1.031,1.624-1.57.459-.508,1.524-1.528,2.554-2.514.857-.821,1.743-1.669,1.9-1.871a.341.341,0,1,1,.535.424c-.18.227-.864.885-1.966,1.94-.974.933-2.077,1.99-2.52,2.479-.51.563-1.074,1.076-1.672,1.618-.489.443-.992.9-1.5,1.415l.207.622a2.51,2.51,0,0,1-.483,2.673A3,3,0,0,1,11.858,29.217Z" transform="translate(-6.718 -5.331)" fill="#4a47ea" stroke="#4a47ea" stroke-width="0.25"/>
      </g>
    </g>
  </g>
</svg>
