<svg xmlns="http://www.w3.org/2000/svg" width="24" height="22.316" viewBox="0 0 24 22.316">
  <g id="noun_Cardio_Heart_1196073" data-name="noun_Cardio Heart_1196073" transform="translate(184.82 44.922)">
    <g id="Group_713" data-name="Group 713" transform="translate(-184.82 -44.922)">
      <g id="Group_707" data-name="Group 707" transform="translate(1.223)">
        <path id="Path_12443" data-name="Path 12443" d="M16.4,25.46a.429.429,0,0,1-.352-.182,7.661,7.661,0,0,1-.351-8.616c1.492-2.221,4.036-3.105,6.981-2.428a7.862,7.862,0,0,1,3.276,1.726l.664-.5a5.819,5.819,0,0,1,6.5-.458,6.566,6.566,0,0,1,3.3,6.692,6.363,6.363,0,0,1-1.477,3.383.43.43,0,1,1-.664-.546A5.526,5.526,0,0,0,35.565,21.6a5.651,5.651,0,0,0-2.855-5.838,4.969,4.969,0,0,0-5.561.38l-.952.715a.43.43,0,0,1-.541-.02,7.311,7.311,0,0,0-3.17-1.762,5.44,5.44,0,0,0-6.074,2.07,6.8,6.8,0,0,0,.34,7.641.43.43,0,0,1-.351.678Z" transform="translate(-14.536 -14.011)" fill="#4a47ea"/>
      </g>
      <g id="Group_708" data-name="Group 708" transform="translate(5.159 13.326)">
        <path id="Path_12444" data-name="Path 12444" d="M34.043,65.616h-.017a.432.432,0,0,1-.331-.176,34.735,34.735,0,0,0-2.528-2.916,26.547,26.547,0,0,1-3.992-5.029.43.43,0,0,1,.757-.408A25.947,25.947,0,0,0,31.8,61.939c.829.892,1.618,1.741,2.266,2.564.726-.841,2.39-2.761,3.146-3.564l.183-.194A49.072,49.072,0,0,0,40.861,56.8a.43.43,0,0,1,.694.508,49.6,49.6,0,0,1-3.537,4.025l-.183.194c-.949,1.007-3.442,3.908-3.467,3.937A.428.428,0,0,1,34.043,65.616Z" transform="translate(-27.124 -56.626)" fill="#4a47ea"/>
      </g>
      <g id="Group_711" data-name="Group 711" transform="translate(0 5.586)">
        <path id="Path_12447" data-name="Path 12447" d="M21.843,42.506a.43.43,0,0,1-.392-.252c-.632-1.395-1.864-4.119-2.526-5.582-.346,1.087-.729,2.453-.734,2.472a.431.431,0,0,1-.433.314c-2.453-.107-4.644-.156-6.7-.156h0a.43.43,0,0,1,0-.86c1.976-.008,4.074.045,6.4.142.208-.731.715-2.476,1.016-3.233a.43.43,0,0,1,.39-.271.425.425,0,0,1,.4.253s1.48,3.276,2.478,5.479c.585-2.146,1.83-6.713,2.344-8.619a.43.43,0,0,1,.812-.053l.391.938a.428.428,0,0,1,.019.058c.191.743,1.6,3.8,2.271,5.211a58.276,58.276,0,0,1,6.648.1.43.43,0,1,1-.064.857,55.777,55.777,0,0,0-6.819-.078.43.43,0,0,1-.417-.244c-.082-.171-1.853-3.893-2.351-5.307-.841,3.1-2.319,8.518-2.319,8.518a.43.43,0,0,1-.381.316Z" transform="translate(-10.625 -31.873)" fill="#4a47ea"/>
      </g>
      <g id="Group_712" data-name="Group 712" transform="translate(17.98 3.006)">
        <path id="Path_12448" data-name="Path 12448" d="M71.1,28.085a.627.627,0,0,1-.143-.017.43.43,0,0,1-.179-.746,5.271,5.271,0,0,0-.356-1.025,3.152,3.152,0,0,0-1.961-1.824.43.43,0,1,1,.187-.839A3.917,3.917,0,0,1,71.2,25.942c.681,1.5.4,1.839.308,1.951A.525.525,0,0,1,71.1,28.085Z" transform="translate(-68.124 -23.624)" fill="#4a47ea"/>
      </g>
    </g>
  </g>
</svg>
