<svg xmlns="http://www.w3.org/2000/svg" width="24" height="24" viewBox="0 0 24 24">
  <g id="noun_Hospital_534051_1_" data-name="noun_Hospital_534051(1)" transform="translate(279 50.633)">
    <path id="Path_12441" data-name="Path 12441" d="M36.308,26.175H32.4V22.266a.51.51,0,0,0-.511-.511h-5.2a.511.511,0,0,0-.511.511v3.909h-3.91a.511.511,0,0,0-.511.511v5.2a.511.511,0,0,0,.511.511h3.91v3.91a.51.51,0,0,0,.511.511h5.2a.51.51,0,0,0,.511-.511V32.4h3.91a.51.51,0,0,0,.511-.511v-5.2A.511.511,0,0,0,36.308,26.175Zm-.511,5.2H31.943a.566.566,0,0,0-.565.566V35.8H27.2V31.943a.566.566,0,0,0-.565-.566H22.776V27.2h3.855a.566.566,0,0,0,.565-.565V22.776h4.181v3.855a.566.566,0,0,0,.565.565H35.8Z" transform="translate(-296.286 -67.92)" fill="#4a47ea"/>
    <path id="Path_12442" data-name="Path 12442" d="M26.447,29H7.553A2.556,2.556,0,0,1,5,26.447V7.553A2.556,2.556,0,0,1,7.553,5H26.447A2.556,2.556,0,0,1,29,7.553V26.447A2.556,2.556,0,0,1,26.447,29ZM7.553,6.021A1.533,1.533,0,0,0,6.021,7.553V26.447a1.533,1.533,0,0,0,1.532,1.532H26.447a1.533,1.533,0,0,0,1.532-1.532V7.553a1.533,1.533,0,0,0-1.532-1.532Z" transform="translate(-284 -55.633)" fill="#4a47ea"/>
  </g>
</svg>
