<svg xmlns="http://www.w3.org/2000/svg" width="21.432" height="24.054" viewBox="0 0 21.432 24.054">
  <g id="dermatologia" transform="translate(0.125 0.125)">
    <path id="Path_12587" data-name="Path 12587" d="M16.091,34.791a10.591,10.591,0,0,1-4.117-20.349.234.234,0,1,1,.19.428,10.136,10.136,0,1,0,9.877,1.19.216.216,0,0,1-.048-.333.233.233,0,0,1,.333-.048,10.564,10.564,0,0,1-6.236,19.111Z" transform="translate(-5.5 -10.987)" fill="#4a47ea" stroke="#4a47ea" stroke-width="0.25"/>
    <path id="Path_12588" data-name="Path 12588" d="M59.579,59.461h-3.57a.238.238,0,1,1,0-.476h3.57a.4.4,0,0,0,0-.809H54.938a.238.238,0,0,1,0-.476h4.641a.9.9,0,0,1,.9.9A.929.929,0,0,1,59.579,59.461Z" transform="translate(-42.99 -43.964)" fill="#4a47ea" stroke="#4a47ea" stroke-width="0.25"/>
    <path id="Path_12589" data-name="Path 12589" d="M63.984,64.961H59.438a.239.239,0,0,1-.238-.238.256.256,0,0,1,.238-.238h4.546a.4.4,0,0,0,0-.809h-1a.238.238,0,1,1,0-.476h1a.881.881,0,1,1,0,1.761Z" transform="translate(-46.419 -48.155)" fill="#4a47ea" stroke="#4a47ea" stroke-width="0.25"/>
    <path id="Path_12590" data-name="Path 12590" d="M63.008,70.461h-3.57a.238.238,0,0,1,0-.476h3.57a.4.4,0,1,0,0-.809.238.238,0,0,1-.238-.238.256.256,0,0,1,.238-.238.9.9,0,0,1,.9.9A.879.879,0,0,1,63.008,70.461Z" transform="translate(-46.419 -52.346)" fill="#4a47ea" stroke="#4a47ea" stroke-width="0.25"/>
    <path id="Path_12591" data-name="Path 12591" d="M29.642,75.961H26.287a12.909,12.909,0,0,1-3.713-.619,4.713,4.713,0,0,0-.643-.167A7.7,7.7,0,0,0,20.36,75.1H16.838a.238.238,0,1,1,0-.476h3.5a9.333,9.333,0,0,1,1.69.071s.309.071.714.19a12.068,12.068,0,0,0,3.57.6h3.332a.4.4,0,0,0,0-.809.238.238,0,0,1,0-.476.881.881,0,1,1,0,1.761Z" transform="translate(-13.958 -56.537)" fill="#4a47ea" stroke="#4a47ea" stroke-width="0.25"/>
    <path id="Path_12592" data-name="Path 12592" d="M12.259,52.418H6.238a.238.238,0,0,1,0-.476h6.021a3.029,3.029,0,0,0,1.476-.6c.286-.238.619-.476.976-.738a2.551,2.551,0,0,1,1.809-.428,3.979,3.979,0,0,0,2-.238,1.2,1.2,0,0,1,.809-.071c.024,0,.048.024.071.024a.868.868,0,0,1,.6.881.969.969,0,0,1-.357.762.236.236,0,1,1-.309-.357.508.508,0,0,0,.19-.4.409.409,0,0,0-.262-.428c-.024,0-.024,0-.048-.024a.731.731,0,0,0-.5.048,4.6,4.6,0,0,1-2.261.286,2.031,2.031,0,0,0-1.476.357c-.357.238-.69.5-.952.714A3.622,3.622,0,0,1,12.259,52.418Z" transform="translate(-5.881 -37.968)" fill="#4a47ea" stroke="#4a47ea" stroke-width="0.25"/>
    <path id="Path_12593" data-name="Path 12593" d="M32.309,10.032,30,7.723,35.474.345a.874.874,0,0,1,1.333-.1l3,3a.931.931,0,0,1,.262.69.845.845,0,0,1-.357.643ZM30.643,7.676,32.38,9.413,39.425,4.2a.441.441,0,0,0,.167-.286.365.365,0,0,0-.119-.309L36.45.583A.5.5,0,0,0,36.14.464a.363.363,0,0,0-.286.167Z" transform="translate(-24.169 0.015)" fill="#4a47ea" stroke="#4a47ea" stroke-width="0.25"/>
    <path id="Path_12594" data-name="Path 12594" d="M30.766,41.3a1.027,1.027,0,0,1-.738-.309l-.357-.357A.236.236,0,0,1,30,40.3l.381.381a.532.532,0,0,0,.762,0l.714-.714a.236.236,0,0,1,.333.333l-.714.714A1.008,1.008,0,0,1,30.766,41.3Z" transform="translate(-23.864 -30.4)" fill="#4a47ea" stroke="#4a47ea" stroke-width="0.25"/>
    <path id="Path_12595" data-name="Path 12595" d="M26.738,32.78a.216.216,0,0,1-.167-.071.23.23,0,0,1,0-.333l.9-.9a.236.236,0,0,1,.333.333l-.9.9A.216.216,0,0,1,26.738,32.78Z" transform="translate(-21.502 -23.923)" fill="#4a47ea" stroke="#4a47ea" stroke-width="0.25"/>
    <path id="Path_12596" data-name="Path 12596" d="M54.675,8.013a.216.216,0,0,1-.167-.071L50.771,4.2a.236.236,0,1,1,.333-.333l3.737,3.737a.23.23,0,0,1,0,.333A.216.216,0,0,1,54.675,8.013Z" transform="translate(-39.942 -2.892)" fill="#4a47ea" stroke="#4a47ea" stroke-width="0.25"/>
    <circle id="Ellipse_152" data-name="Ellipse 152" cx="0.262" cy="0.262" r="0.262" transform="translate(5.855 15.402)" fill="#4a47ea" stroke="#4a47ea" stroke-width="0.25"/>
    <circle id="Ellipse_153" data-name="Ellipse 153" cx="0.262" cy="0.262" r="0.262" transform="translate(8.187 15.164)" fill="#4a47ea" stroke="#4a47ea" stroke-width="0.25"/>
    <circle id="Ellipse_154" data-name="Ellipse 154" cx="0.262" cy="0.262" r="0.262" transform="translate(9.353 16.973)" fill="#4a47ea" stroke="#4a47ea" stroke-width="0.25"/>
    <circle id="Ellipse_155" data-name="Ellipse 155" cx="0.262" cy="0.262" r="0.262" transform="translate(4.641 16.759)" fill="#4a47ea" stroke="#4a47ea" stroke-width="0.25"/>
    <circle id="Ellipse_156" data-name="Ellipse 156" cx="0.262" cy="0.262" r="0.262" transform="translate(2.618 15.474)" fill="#4a47ea" stroke="#4a47ea" stroke-width="0.25"/>
    <path id="Path_12597" data-name="Path 12597" d="M25.926,45.77H25.9a.236.236,0,0,1-.214-.262,1.784,1.784,0,0,1,.452-.833,1,1,0,0,0,.333-.619.928.928,0,0,0-.309-.547,1.709,1.709,0,0,1-.333-.476,1.21,1.21,0,0,1,0-1.071A1.267,1.267,0,0,1,26.9,41.2a.238.238,0,0,1,.238.238.256.256,0,0,1-.238.238.773.773,0,0,0-.619.476.759.759,0,0,0,0,.643,3.159,3.159,0,0,0,.286.381,1.349,1.349,0,0,1,.428.833,1.392,1.392,0,0,1-.452.952,1.2,1.2,0,0,0-.333.571C26.141,45.674,26.045,45.77,25.926,45.77Z" transform="translate(-20.881 -31.391)" fill="#4a47ea" stroke="#4a47ea" stroke-width="0.25"/>
  </g>
</svg>
