<svg id="gastro" xmlns="http://www.w3.org/2000/svg" width="24" height="24" viewBox="0 0 24 24">
  <path id="Path_12616" data-name="Path 12616" d="M24,12a11.968,11.968,0,0,0-3.808-8.756.108.108,0,0,0-.028-.032,12.136,12.136,0,0,0-2.44-1.756c-.012-.008-.024-.012-.036-.02q-.228-.126-.468-.24l-.072-.036c-.144-.068-.288-.136-.436-.2L16.6.916c-.132-.056-.268-.108-.4-.16-.052-.02-.1-.04-.156-.056-.124-.044-.248-.088-.376-.128l-.188-.06c-.116-.036-.232-.068-.352-.1-.072-.02-.144-.04-.22-.056C14.8.332,14.688.3,14.576.28c-.08-.016-.16-.036-.24-.052l-.328-.06c-.084-.016-.164-.028-.248-.04C13.648.112,13.536.1,13.424.084c-.08-.008-.164-.02-.244-.028C13.052.048,12.928.04,12.8.028c-.068,0-.14-.012-.208-.016C12.4,0,12.2,0,12,0c-.284,0-.568.012-.848.032-.072,0-.144.012-.216.016-.268.024-.532.052-.792.1-.072.012-.148.028-.22.04-.2.036-.388.072-.58.116-.1.024-.2.044-.3.068-.224.056-.448.12-.664.188Q8.21.61,8.036.676c-.144.048-.284.1-.42.156-.168.068-.336.136-.5.212-.14.064-.284.128-.42.2-.116.056-.228.116-.344.176-.2.1-.388.212-.576.328-.1.06-.2.128-.3.192-.136.088-.268.18-.4.272-.068.048-.136.088-.2.136-.008,0-.008.012-.016.016a12,12,0,0,0,5.892,21.576h.012A11.392,11.392,0,0,0,12,24c.256,0,.508-.012.764-.028l.18-.012c.224-.016.444-.04.664-.068l.1-.012a11.794,11.794,0,0,0,1.564-.332l.044-.012s0,0,.008,0A12.03,12.03,0,0,0,24,12ZM19.6,4.4A3.605,3.605,0,0,1,16,8H7.6a.4.4,0,0,0,0,.8H16A3.6,3.6,0,1,1,16,16H8a.4.4,0,0,0,0,.8h5.2a1.6,1.6,0,0,1,1.6,1.6v4.444c-.28.072-.56.132-.844.18a.566.566,0,0,0-.08.016q-.414.072-.828.108c-.036,0-.072,0-.108.008-.244.02-.492.032-.736.036-.044,0-.092,0-.136,0-.264,0-.532-.008-.8-.024-.024,0-.048,0-.072,0V20.4a.4.4,0,0,0-.4-.4H8.4a3.6,3.6,0,1,1,0-7.2h8.4a.4.4,0,0,0,0-.8H8.4a3.6,3.6,0,1,1,0-7.2h8.4a.4.4,0,0,0,0-.8H8.4A3.6,3.6,0,0,1,5.684,2.756c.064-.044.128-.088.2-.128.124-.08.248-.16.372-.236.108-.064.216-.128.324-.188s.2-.108.3-.16c.176-.092.36-.18.54-.26.1-.044.2-.092.3-.132.12-.048.236-.1.356-.14s.232-.084.348-.124c.164-.056.328-.108.492-.152q.2-.06.408-.108l.3-.072c.2-.044.4-.08.6-.112.064-.012.132-.02.2-.028.2-.028.408-.052.612-.068.072-.008.14-.012.212-.016C11.5.812,11.748.8,12,.8c.184,0,.368,0,.548.012l.192.012c.116.008.236.016.352.028.076.008.152.016.224.028.1.012.208.024.312.04l.232.036c.1.016.2.036.3.056l.224.048c.1.024.208.044.308.072.068.016.136.036.208.052.108.028.216.06.324.092.06.02.12.036.18.056.116.036.236.076.352.12.048.016.1.032.144.052.132.048.26.1.388.152.032.012.064.028.1.04.148.064.292.128.436.2a.372.372,0,0,0,.04.02A11.265,11.265,0,0,1,19.532,3.72,3.6,3.6,0,0,1,19.6,4.4ZM.8,12A11.183,11.183,0,0,1,5.048,3.228,4.419,4.419,0,0,0,6.572,4.4a4.4,4.4,0,0,0,0,8A4.4,4.4,0,0,0,8.4,20.8h2v2.284A11.217,11.217,0,0,1,.8,12ZM15.6,22.6V18.4a2.388,2.388,0,0,0-.612-1.6H16a4.4,4.4,0,0,0,1.832-8.4,4.414,4.414,0,0,0,2.56-3.8A11.186,11.186,0,0,1,15.6,22.6Z" fill="#4a47ea"/>
</svg>
