<svg xmlns="http://www.w3.org/2000/svg" width="24.25" height="24" viewBox="0 0 24.25 24">
  <g id="Group_845" data-name="Group 845" transform="translate(-39.875 -403)">
    <g id="Group_863" data-name="Group 863">
      <g id="Group_844" data-name="Group 844" transform="translate(39.265 402.653)">
        <path id="Path_12533" data-name="Path 12533" d="M14.807,23.916c-1.992,0-2-3.117-2.011-5.847,0-.727,0-1.409-.046-1.958a.988.988,0,0,0-1.973,0c-.022.533-.022,1.2-.046,1.905-.025,2.764-.057,5.9-2,5.9A2.364,2.364,0,0,1,7.32,23a13.063,13.063,0,0,1-2.852-9.473,3.756,3.756,0,0,0-.8-2.1,6.6,6.6,0,0,1-.8-1.637,5.582,5.582,0,0,1-.1-2.309A5.66,5.66,0,0,1,7.494,2.8a5.731,5.731,0,0,1,2.235.112,8.311,8.311,0,0,0,4.086,0,5.67,5.67,0,0,1,6.966,4.572h0a5.625,5.625,0,0,1-.1,2.307,6.576,6.576,0,0,1-.8,1.652,3.723,3.723,0,0,0-.8,2.1,13.067,13.067,0,0,1-2.855,9.462A2.4,2.4,0,0,1,14.807,23.916Zm-3.043-9.35a1.62,1.62,0,0,1,1.609,1.489c.044.57.044,1.266.046,2,0,2.329.016,5.227,1.388,5.227.115,0,.443-.149.935-.708a12.594,12.594,0,0,0,2.7-8.98,4.2,4.2,0,0,1,.882-2.494,6.012,6.012,0,0,0,.733-1.481,5.019,5.019,0,0,0-6.085-6.094,8.946,8.946,0,0,1-4.395,0,5.022,5.022,0,0,0-6.107,6.1,6,6,0,0,0,.739,1.481A4.247,4.247,0,0,1,5.095,13.6a12.526,12.526,0,0,0,2.7,8.976c.5.561.832.711.935.711,1.324,0,1.353-3.054,1.374-5.3,0-.714,0-1.387.057-1.945a1.622,1.622,0,0,1,1.617-1.47Z" transform="translate(0.11 0.078)" fill="#4a47ea" stroke="#4a47ea" stroke-width="0.25"/>
        <path id="Path_12534" data-name="Path 12534" d="M11.423,5.565a9.013,9.013,0,0,1-2.2-.275A.311.311,0,1,1,9.3,4.671a.28.28,0,0,1,.081.021,8.336,8.336,0,0,0,4.086,0,.312.312,0,1,1,.156.6A9.015,9.015,0,0,1,11.423,5.565Z" transform="translate(0.461 0.187)" fill="#4a47ea" stroke="#4a47ea" stroke-width="0.25"/>
        <path id="Path_12535" data-name="Path 12535" d="M4.671,9.643a.31.31,0,0,1-.312-.233,4.03,4.03,0,0,1,2.9-4.9,3.76,3.76,0,0,1,.4-.082.315.315,0,1,1,.091.623h0A3.4,3.4,0,0,0,4.952,9.253a.312.312,0,0,1-.206.38A.3.3,0,0,1,4.671,9.643Z" transform="translate(0.196 0.173)" fill="#4a47ea" stroke="#4a47ea" stroke-width="0.25"/>
        <path id="Path_12536" data-name="Path 12536" d="M21.2,3.008a.311.311,0,0,1-.312-.312V1.659a.312.312,0,1,1,.623,0V2.7A.311.311,0,0,1,21.2,3.008Z" transform="translate(1.132 0)" fill="#4a47ea" stroke="#4a47ea" stroke-width="0.25"/>
        <path id="Path_12537" data-name="Path 12537" d="M21.2,5.986a.312.312,0,0,1-.312-.313V4.643a.312.312,0,1,1,.623,0V5.673A.312.312,0,0,1,21.2,5.986Z" transform="translate(1.132 0.168)" fill="#4a47ea" stroke="#4a47ea" stroke-width="0.25"/>
        <path id="Path_12538" data-name="Path 12538" d="M20.251,3.95H19.22a.312.312,0,0,1,0-.623h1.032a.312.312,0,0,1,0,.623Z" transform="translate(1.021 0.111)" fill="#4a47ea" stroke="#4a47ea" stroke-width="0.25"/>
        <path id="Path_12539" data-name="Path 12539" d="M23.235,3.95H22.2a.312.312,0,0,1,0-.623h1.032a.312.312,0,0,1,0,.623Z" transform="translate(1.188 0.111)" fill="#4a47ea" stroke="#4a47ea" stroke-width="0.25"/>
        <path id="Path_12540" data-name="Path 12540" d="M15.165,12.025a.311.311,0,0,1-.312-.312v-.67a.312.312,0,0,1,.624,0v.67A.312.312,0,0,1,15.165,12.025Z" transform="translate(0.793 0.527)" fill="#4a47ea" stroke="#4a47ea" stroke-width="0.25"/>
        <path id="Path_12541" data-name="Path 12541" d="M15.165,13.964a.311.311,0,0,1-.312-.312v-.682a.312.312,0,0,1,.624,0v.67a.312.312,0,0,1-.3.324Z" transform="translate(0.793 0.635)" fill="#4a47ea" stroke="#4a47ea" stroke-width="0.25"/>
        <path id="Path_12542" data-name="Path 12542" d="M14.548,12.642h-.663a.312.312,0,0,1,0-.624h.673a.312.312,0,0,1,0,.624Z" transform="translate(0.721 0.599)" fill="#4a47ea" stroke="#4a47ea" stroke-width="0.25"/>
        <path id="Path_12543" data-name="Path 12543" d="M16.487,12.642h-.67a.312.312,0,0,1,0-.624h.67a.312.312,0,0,1,0,.624Z" transform="translate(0.83 0.599)" fill="#4a47ea" stroke="#4a47ea" stroke-width="0.25"/>
        <path id="Path_12544" data-name="Path 12544" d="M2.537,3.121a.311.311,0,0,1-.312-.312V2.034a.312.312,0,0,1,.623,0V2.81A.311.311,0,0,1,2.537,3.121Z" transform="translate(0.084 0.021)" fill="#4a47ea" stroke="#4a47ea" stroke-width="0.25"/>
        <path id="Path_12545" data-name="Path 12545" d="M2.537,5.355a.311.311,0,0,1-.312-.312V4.28a.312.312,0,1,1,.623,0v.764A.311.311,0,0,1,2.537,5.355Z" transform="translate(0.084 0.147)" fill="#4a47ea" stroke="#4a47ea" stroke-width="0.25"/>
        <path id="Path_12546" data-name="Path 12546" d="M1.826,3.838H1.047a.312.312,0,0,1,0-.623h.779a.312.312,0,1,1,0,.623Z" transform="translate(0 0.105)" fill="#4a47ea" stroke="#4a47ea" stroke-width="0.25"/>
        <path id="Path_12547" data-name="Path 12547" d="M4.072,3.838H3.293a.312.312,0,1,1,0-.623h.779a.312.312,0,0,1,0,.623Z" transform="translate(0.126 0.105)" fill="#4a47ea" stroke="#4a47ea" stroke-width="0.25"/>
      </g>
      <rect id="Rectangle_1599" data-name="Rectangle 1599" width="24" height="24" transform="translate(40 403)" fill="none"/>
    </g>
  </g>
</svg>
