<svg xmlns="http://www.w3.org/2000/svg" width="24.5" height="24.21" viewBox="0 0 24.5 24.21">
  <g id="psicologia" transform="translate(0.25 0.25)">
    <path id="Path_12610" data-name="Path 12610" d="M23.083,44a4.448,4.448,0,0,1-4.072-2.628.273.273,0,0,1,.508-.2,3.925,3.925,0,0,0,7.128,0,.273.273,0,0,1,.508.2A4.446,4.446,0,0,1,23.083,44Z" transform="translate(-15.447 -31.608)" fill="#4a47ea" stroke="#4a47ea" stroke-width="0.5"/>
    <path id="Path_12611" data-name="Path 12611" d="M59.163,70.628a.273.273,0,0,1-.508.2,3.925,3.925,0,0,0-7.128,0,.273.273,0,0,1-.508-.2,4.469,4.469,0,0,1,8.144,0Z" transform="translate(-38.727 -51.363)" fill="#4a47ea" stroke="#4a47ea" stroke-width="0.5"/>
    <path id="Path_12612" data-name="Path 12612" d="M28.364,13.528H21.273V7.613A1.627,1.627,0,0,0,19.636,6h-12A1.627,1.627,0,0,0,6,7.613v8.436a3.466,3.466,0,0,0,1.657,2.958l4.236,2.63a3.327,3.327,0,0,0,2.835.309v1.631a3.466,3.466,0,0,0,1.657,2.958l4.236,2.63a3.329,3.329,0,0,0,3.487,0l4.236-2.63A3.467,3.467,0,0,0,30,23.578V15.142A1.627,1.627,0,0,0,28.364,13.528Zm-16.18,7.653-4.236-2.63a2.932,2.932,0,0,1-1.4-2.5V7.613A1.084,1.084,0,0,1,7.636,6.538h12a1.084,1.084,0,0,1,1.091,1.076v8.436a2.933,2.933,0,0,1-1.4,2.5l-4.236,2.63A2.8,2.8,0,0,1,12.183,21.182Zm17.271,2.4a2.933,2.933,0,0,1-1.4,2.5l-4.236,2.63a2.774,2.774,0,0,1-2.906,0l-4.236-2.63a2.933,2.933,0,0,1-1.4-2.5V21.7c.157-.09,4.19-2.6,4.343-2.691a3.466,3.466,0,0,0,1.657-2.958V14.066h7.091a1.084,1.084,0,0,1,1.091,1.076Z" transform="translate(-6 -6)" fill="#4a47ea" stroke="#4a47ea" stroke-width="0.5"/>
    <path id="Path_12613" data-name="Path 12613" d="M17.906,22.148a.273.273,0,0,1-.541.067,1.929,1.929,0,0,0-3.823,0A.273.273,0,0,1,13,22.148a2.474,2.474,0,0,1,4.9,0Z" transform="translate(-11.09 -16.242)" fill="#4a47ea" stroke="#4a47ea" stroke-width="0.5"/>
    <path id="Path_12614" data-name="Path 12614" d="M41.906,22.148a.273.273,0,0,1-.541.067,1.929,1.929,0,0,0-3.823,0A.273.273,0,0,1,37,22.148a2.474,2.474,0,0,1,4.9,0Z" transform="translate(-28.544 -16.242)" fill="#4a47ea" stroke="#4a47ea" stroke-width="0.5"/>
    <path id="Path_12615" data-name="Path 12615" d="M73.906,48.31a2.474,2.474,0,0,1-4.9,0,.273.273,0,0,1,.541-.067,1.929,1.929,0,0,0,3.823,0A.273.273,0,0,1,73.906,48.31Z" transform="translate(-51.817 -36.729)" fill="#4a47ea" stroke="#4a47ea" stroke-width="0.5"/>
  </g>
</svg>
